<?xml version="1.0" encoding="utf-8"?>
<!-- Generator: Adobe Illustrator 24.2.3, SVG Export Plug-In . SVG Version: 6.00 Build 0)  -->
<svg version="1.1" id="Capa_1" xmlns="http://www.w3.org/2000/svg" xmlns:xlink="http://www.w3.org/1999/xlink" x="0px" y="0px"
	 viewBox="0 0 629.77 178.32" style="enable-background:new 0 0 629.77 178.32;" xml:space="preserve">
<style type="text/css">
	.st0{fill:#98989A;}
	.st1{fill:#002856;}
</style>
<g>
	<g>
		<path class="st0" d="M336.04,150.19h5.94c4.72,0,7.49,2.73,7.49,6.8c0,2.93-1.38,4.85-3.18,5.94c3.54,0.57,5.62,3.3,5.62,6.8
			c0,4.76-3.5,7.61-8.43,7.61h-7.45V150.19z M337.83,162.49h4.32c1.38,0,2.52-0.16,3.7-1.14c1.1-0.9,1.79-2.28,1.79-4.15
			c0-2.16-0.94-3.5-1.83-4.23c-1.34-1.06-3.09-1.14-4.52-1.14h-3.46V162.49z M337.83,175.72h4.56c1.83,0,4.07,0,5.9-1.63
			c1.47-1.3,1.75-2.89,1.75-4.15c0-2.44-0.86-4.11-2.89-5.05c-0.73-0.33-2.08-0.77-5.09-0.77h-4.24V175.72z"/>
		<path class="st0" d="M377.24,165.75l-8.92-15.55h2.04l7.82,13.72l7.98-13.72h2.04l-9.16,15.55v11.6h-1.79V165.75z"/>
		<path class="st0" d="M454.26,155.73c-2.32-2.73-5.66-4.28-9.16-4.28c-6.96,0-12.17,5.58-12.17,12.46
			c0,8.06,6.72,12.26,12.22,12.26c2.73,0,6.35-1.1,9.12-4.11v2.36c-2.77,2.44-6.11,3.38-9.04,3.38c-8.14,0-14.17-6.39-14.17-13.97
			c0-7.82,6.27-14.01,14.09-14.01c5.17,0,8.31,2.77,9.12,3.54V155.73z"/>
		<path class="st0" d="M496.32,155.73c-2.32-2.73-5.66-4.28-9.16-4.28c-6.96,0-12.17,5.58-12.17,12.46
			c0,8.06,6.72,12.26,12.22,12.26c2.73,0,6.35-1.1,9.12-4.11v2.36c-2.77,2.44-6.11,3.38-9.04,3.38c-8.14,0-14.17-6.39-14.17-13.97
			c0-7.82,6.27-14.01,14.09-14.01c5.17,0,8.31,2.77,9.12,3.54V155.73z"/>
		<path class="st0" d="M519.28,150.19v27.16h-1.79v-27.16H519.28z"/>
		<path class="st0" d="M541.63,177.35l3.09-28.09l11.77,25.12l11.77-25.12l3.1,28.09h-1.79l-2.4-21.82c0,0-10.63,22.8-10.67,22.8
			l-10.67-22.8l-2.4,21.82H541.63z"/>
		<path class="st0" d="M607.34,168.44h-11.56l-3.62,8.92h-1.95l11.44-27.97l11.28,27.97h-1.95L607.34,168.44z M606.69,166.81
			l-5.09-12.87l-5.17,12.87H606.69z"/>
	</g>
	<polygon class="st1" points="76.36,32.58 36.49,32.58 36.49,1.93 0,1.93 0,120.02 36.49,120.02 36.49,61.58 76.36,61.58 
		76.36,120.02 113.01,120.02 113.01,1.93 76.36,1.93 	"/>
	<path class="st1" d="M289.57,32.54c-5.05,0-9.65,0.86-13.81,2.58c-4.16,1.72-7.88,4.3-11.16,7.73V1.93h-33.11v118.08h30.69v-12.65
		c4.24,5.32,8.16,8.94,11.76,10.87c4.78,2.47,10.04,3.71,15.79,3.71c6.71,0,12.82-1.76,18.32-5.28c5.5-3.52,9.81-8.83,12.93-15.95
		c3.11-7.11,4.67-15.34,4.67-24.69c0-14.01-3.41-24.77-10.23-32.26C308.6,36.29,299.98,32.54,289.57,32.54z M288.88,93.08
		c-2.66,3.25-5.95,4.87-9.87,4.87c-4.24,0-7.75-1.65-10.51-4.95c-2.77-3.3-4.15-8.63-4.15-15.99c0-6.71,1.41-11.72,4.23-15.02
		c2.82-3.3,6.46-4.95,10.91-4.95c3.71,0,6.86,1.58,9.46,4.75c2.6,3.17,3.91,8.14,3.91,14.9C292.87,84.36,291.54,89.83,288.88,93.08z
		"/>
	<rect x="335.63" y="1.93" class="st1" width="32.78" height="22.56"/>
	<rect x="335.63" y="32.58" class="st1" width="32.78" height="87.44"/>
	<path class="st1" d="M609.57,111.26c-0.51-2.28-0.77-5.44-0.77-9.46V64.02c0-4.03-0.81-8.26-2.42-12.69
		c-1.61-4.43-3.81-7.85-6.61-10.27c-3.97-3.49-8.94-5.79-14.9-6.89c-5.96-1.1-13.85-1.65-23.68-1.65c-6.12,0-11.81,0.46-17.08,1.37
		c-5.26,0.91-9.4,2.2-12.4,3.87c-4.19,2.31-7.4,5.03-9.63,8.18c-2.23,3.14-3.93,7.45-5.11,12.93l31.33,3.3
		c1.29-3.71,2.98-6.23,5.07-7.57c2.68-1.72,6.71-2.58,12.08-2.58c4.19,0,7.11,0.81,8.78,2.42c1.66,1.61,2.5,4.43,2.5,8.46
		c-4.08,1.61-7.95,2.91-11.6,3.91c-3.65,0.99-11.63,2.73-23.92,5.19c-10.26,2.04-17.29,5.16-21.1,9.34
		c-3.81,4.19-5.72,9.53-5.72,16.03c0,6.93,2.64,12.75,7.93,17.48c5.29,4.73,13.04,7.09,23.24,7.09c7.68,0,14.42-1.18,20.22-3.54
		c4.24-1.77,8.51-4.72,12.81-8.86c0.37,2.47,0.75,4.28,1.13,5.44c0.38,1.16,1.18,2.83,2.42,5.03h30.77
		C611.19,116.45,610.08,113.54,609.57,111.26z M576.75,84.64c0,4.08-0.66,7.4-1.97,9.95c-1.32,2.55-3.54,4.71-6.69,6.48
		c-3.14,1.77-6.54,2.66-10.19,2.66c-3.49,0-6.14-0.82-7.93-2.46c-1.8-1.64-2.7-3.74-2.7-6.32c0-2.26,0.91-4.27,2.74-6.04
		c1.77-1.72,5.99-3.46,12.65-5.24c4.89-1.23,9.59-2.66,14.1-4.27V84.64z"/>
	<path class="st1" d="M156.91,62.22l-31.33-3.3c1.18-5.48,2.89-9.79,5.11-12.93c2.23-3.14,5.44-5.87,9.63-8.18
		c3.01-1.66,7.14-2.95,12.4-3.87c5.26-0.91,10.95-1.37,17.08-1.37c9.83,0,17.72,0.55,23.68,1.65c5.96,1.1,10.93,3.4,14.9,6.89
		c2.79,2.42,4.99,5.84,6.61,10.27c1.61,4.43,2.42,8.66,2.42,12.69v37.78c0,4.03,0.25,7.18,0.77,9.46c0.51,2.28,1.62,5.2,3.34,8.74
		h-30.77c-1.24-2.2-2.04-3.88-2.42-5.03c-0.38-1.15-0.75-2.97-1.13-5.44c-4.3,4.14-8.57,7.09-12.81,8.86
		c-5.8,2.36-12.54,3.54-20.22,3.54c-10.2,0-17.95-2.36-23.24-7.09c-5.29-4.72-7.93-10.55-7.93-17.48c0-6.5,1.91-11.84,5.72-16.03
		c3.81-4.19,10.85-7.3,21.1-9.34c12.3-2.47,20.27-4.2,23.92-5.2c3.65-0.99,7.52-2.3,11.6-3.91c0-4.03-0.83-6.85-2.5-8.46
		c-1.67-1.61-4.59-2.42-8.78-2.42c-5.37,0-9.4,0.86-12.08,2.58C159.89,56,158.2,58.52,156.91,62.22z M185.35,79.46
		c-4.51,1.61-9.21,3.03-14.1,4.27c-6.66,1.77-10.87,3.52-12.65,5.24c-1.83,1.77-2.74,3.79-2.74,6.04c0,2.58,0.9,4.69,2.7,6.32
		c1.8,1.64,4.44,2.46,7.93,2.46c3.65,0,7.05-0.89,10.19-2.66c3.14-1.77,5.37-3.93,6.69-6.48c1.32-2.55,1.97-5.87,1.97-9.95V79.46z
		 M171.25,1.93h28.19L174.28,24.5h-15.71L171.25,1.93z"/>
	<path class="st0" d="M430.02,98.83c-2.69,0-4.56-0.91-5.64-2.73c-0.7-1.18-1.05-3.59-1.05-7.24V56.59h18.04v-24h-18.04V2.01
		l-32.86,16.84v13.74h-12.08v24h12.08v32.06c0,9.55,0.93,16.45,2.78,20.71c1.85,4.26,4.71,7.44,8.58,9.53
		c3.87,2.09,9.88,3.14,18.04,3.14c7.03,0,14.61-0.89,22.71-2.66l-2.42-22.63C435.82,98.13,432.44,98.83,430.02,98.83z"/>
	<path class="st0" d="M452.8,23.2c2.69,0,4.56,0.91,5.64,2.73c0.7,1.18,1.05,3.59,1.05,7.24v32.28h-18.04v24h18.04v30.57
		l32.86-16.84V89.45h12.08v-24h-12.08V33.38c0-9.55-0.93-16.45-2.78-20.71c-1.85-4.26-4.71-7.44-8.58-9.53
		C477.13,1.05,471.11,0,462.95,0c-7.03,0-14.61,0.89-22.71,2.66l2.42,22.63C447,23.89,450.39,23.2,452.8,23.2z"/>
	<g>
		<g>
			<path class="st1" d="M621.71,107.01c1.39,0,2.1,0.36,2.57,0.75c0.77,0.65,1,1.51,1,2.26c0,0.98-0.39,1.84-1.18,2.37
				c-0.26,0.18-0.62,0.35-1.1,0.44l3.14,4.24h-2.44l-2.69-4.04h-0.24v4.04h-1.96v-10.07H621.71z M620.76,111.64h0.56
				c0.38,0,1.93-0.04,1.93-1.52c0-1.49-1.54-1.51-1.9-1.51h-0.59V111.64z"/>
		</g>
		<path class="st1" d="M621.98,120.02c-4.36,0-7.9-3.54-7.9-7.9s3.54-7.9,7.9-7.9c4.36,0,7.9,3.54,7.9,7.9
			S626.34,120.02,621.98,120.02z M621.98,105.48c-3.66,0-6.64,2.98-6.64,6.64s2.98,6.64,6.64,6.64c3.66,0,6.64-2.98,6.64-6.64
			S625.65,105.48,621.98,105.48z"/>
	</g>
</g>
</svg>
