<?xml version="1.0" encoding="utf-8"?>
<!-- Generator: Adobe Illustrator 24.2.3, SVG Export Plug-In . SVG Version: 6.00 Build 0)  -->
<svg version="1.1" id="Capa_1" xmlns="http://www.w3.org/2000/svg" xmlns:xlink="http://www.w3.org/1999/xlink" x="0px" y="0px"
	 viewBox="0 0 548.77 178.32" style="enable-background:new 0 0 548.77 178.32;" xml:space="preserve">
<style type="text/css">
	.st0{fill:#002856;}
	.st1{fill:#0047BA;}
</style>
<g>
	<g>
		<polygon class="st0" points="177.43,52.22 148.79,125.32 128.36,177.47 101.92,177.47 86.21,125.32 64.2,52.22 60.06,38.49 
			54.75,52.22 26.44,125.32 0,125.32 28.31,52.22 48.49,0.07 48.52,0 74.96,0 90.68,52.22 112.65,125.32 116.86,139.31 
			122.35,125.32 150.99,52.22 		"/>
		<g>
			<g>
				<path class="st1" d="M304.15,52.25h44.11v11.6h-28.99v18.73h22.25v11.45h-22.25v19.4h32.08v11.93h-47.2V52.25z"/>
				<path class="st1" d="M376.96,63.85h-20.72v-11.6h56.56v11.6h-20.62v61.5h-15.21V63.85z"/>
				<path class="st1" d="M423.16,52.25h44.11v11.6h-28.99v18.73h22.25v11.45h-22.25v19.4h32.08v11.93h-47.2V52.25z"/>
				<path class="st1" d="M478.58,88.63c0-5.68,0.92-10.8,2.76-15.37c1.84-4.57,4.36-8.4,7.56-11.51c6.5-6.34,14.88-9.5,25.14-9.5
					c5.7,0,11.09,0.66,16.16,1.99c1.2,0.32,2.38,0.59,3.52,0.81l-2.19,13.32c-2.28-1.27-4.1-2.13-5.47-2.57
					c-3.2-1.05-6.59-1.57-10.15-1.57c-3.56,0-6.62,0.54-9.15,1.62c-2.54,1.08-4.74,2.63-6.61,4.66c-3.99,4.37-5.99,10.23-5.99,17.57
					c0,7.56,1.93,13.68,5.8,18.37c4.02,4.84,9.41,7.26,16.16,7.26c4.63,0,9.3-1,14.02-2.99c1.2-0.53,2.12-1.03,2.76-1.5l0.05,12.38
					c-4.63,1.84-8.28,2.93-10.96,3.28c-2.68,0.35-5.11,0.53-7.29,0.53c-11.03,0-19.84-3.36-26.43-10.07
					C481.81,108.73,478.58,99.84,478.58,88.63z"/>
				<path class="st1" d="M226.3,52.27h16.21L256,92.12l3.85,13.91l3.9-13.91l12.79-39.85h16.12l-26.62,73.1H253.2L226.3,52.27z"/>
				<path class="st1" d="M234.85,125.37h-16.21l-13.5-39.85l-3.85-13.91l-3.9,13.91l-12.79,39.85H168.5l26.62-73.1h12.83
					L234.85,125.37z"/>
			</g>
		</g>
		<g>
			<g>
				<path class="st0" d="M330.08,157.55h4.37c3.47,0,5.51,2.01,5.51,5c0,2.16-1.02,3.57-2.34,4.37c2.61,0.42,4.13,2.43,4.13,5
					c0,3.5-2.58,5.6-6.2,5.6h-5.48V157.55z M331.4,166.59h3.17c1.02,0,1.86-0.12,2.73-0.84c0.81-0.66,1.32-1.68,1.32-3.06
					c0-1.59-0.69-2.57-1.35-3.11c-0.99-0.78-2.27-0.84-3.32-0.84h-2.54V166.59z M331.4,176.33h3.35c1.35,0,2.99,0,4.34-1.2
					c1.08-0.96,1.29-2.13,1.29-3.05c0-1.8-0.63-3.03-2.13-3.72c-0.54-0.24-1.53-0.57-3.74-0.57h-3.11V176.33z"/>
				<path class="st0" d="M360.39,168.99l-6.56-11.44h1.5l5.75,10.09l5.87-10.09h1.5l-6.74,11.44v8.54h-1.32V168.99z"/>
				<path class="st0" d="M417.05,161.62c-1.71-2.01-4.16-3.14-6.74-3.14c-5.12,0-8.96,4.1-8.96,9.16c0,5.93,4.94,9.02,8.99,9.02
					c2.01,0,4.67-0.81,6.71-3.03v1.74c-2.04,1.8-4.49,2.49-6.65,2.49c-5.99,0-10.42-4.7-10.42-10.27c0-5.75,4.61-10.31,10.36-10.31
					c3.8,0,6.11,2.04,6.71,2.61V161.62z"/>
				<path class="st0" d="M447.99,161.62c-1.71-2.01-4.16-3.14-6.74-3.14c-5.12,0-8.96,4.1-8.96,9.16c0,5.93,4.94,9.02,8.99,9.02
					c2.01,0,4.67-0.81,6.71-3.03v1.74c-2.04,1.8-4.49,2.49-6.65,2.49c-5.99,0-10.42-4.7-10.42-10.27c0-5.75,4.61-10.31,10.36-10.31
					c3.8,0,6.11,2.04,6.71,2.61V161.62z"/>
				<path class="st0" d="M464.88,157.55v19.98h-1.32v-19.98H464.88z"/>
				<path class="st0" d="M481.32,177.53l2.28-20.67l8.66,18.48l8.66-18.48l2.28,20.67h-1.32l-1.77-16.05c0,0-7.82,16.77-7.85,16.77
					l-7.85-16.77l-1.77,16.05H481.32z"/>
				<path class="st0" d="M529.66,170.97h-8.51l-2.67,6.56h-1.44l8.42-20.58l8.3,20.58h-1.44L529.66,170.97z M529.18,169.77
					l-3.74-9.47l-3.8,9.47H529.18z"/>
			</g>
		</g>
	</g>
	<g>
		<g>
			<path class="st0" d="M541.85,114.33c1.19,0,1.8,0.31,2.21,0.65c0.66,0.56,0.86,1.3,0.86,1.95c0,0.84-0.34,1.58-1.01,2.04
				c-0.22,0.16-0.53,0.3-0.95,0.38l2.7,3.65h-2.1l-2.31-3.48h-0.21v3.48h-1.69v-8.66H541.85z M541.03,118.32h0.48
				c0.32,0,1.66-0.04,1.66-1.31c0-1.29-1.32-1.3-1.64-1.3h-0.51V118.32z"/>
		</g>
		<path class="st0" d="M542.09,125.52c-3.75,0-6.8-3.05-6.8-6.8c0-3.75,3.05-6.8,6.8-6.8c3.75,0,6.8,3.05,6.8,6.8
			C548.88,122.47,545.83,125.52,542.09,125.52z M542.09,113.01c-3.15,0-5.71,2.56-5.71,5.71c0,3.15,2.56,5.71,5.71,5.71
			c3.15,0,5.72-2.56,5.72-5.71C547.8,115.57,545.24,113.01,542.09,113.01z"/>
	</g>
</g>
</svg>
