<?xml version="1.0" encoding="utf-8"?>
<!-- Generator: Adobe Illustrator 24.2.3, SVG Export Plug-In . SVG Version: 6.00 Build 0)  -->
<svg version="1.1" id="Capa_1" xmlns="http://www.w3.org/2000/svg" xmlns:xlink="http://www.w3.org/1999/xlink" x="0px" y="0px"
	 viewBox="0 0 8.86 8.86" style="enable-background:new 0 0 8.86 8.86;" xml:space="preserve">
<style type="text/css">
	.st0{fill:#00173A;}
</style>
<g id="Grupo_100" transform="translate(-368.869 -350.428)">
	<g id="Grupo_99" transform="translate(368.969 350.528)">
		<g id="Grupo_98">
			<path id="Trazado_244" class="st0" d="M8.62-0.1H0.05c-0.08,0-0.15,0.07-0.15,0.15c0,0,0,0,0,0v8.57c0,0.08,0.07,0.15,0.15,0.15
				c0,0,0,0,0,0h8.57c0.08,0,0.15-0.07,0.15-0.15V0.05C8.76-0.03,8.7-0.1,8.62-0.1C8.62-0.1,8.62-0.1,8.62-0.1z M0.2,0.2h2.22v1.77
				c0,1.34-0.83,2.16-2.22,2.21V0.2z M2.7,2.26h2.67v2.96H1.82V3.95C2.34,3.54,2.66,2.92,2.7,2.26L2.7,2.26z M4.33,8.02v0.44H0.19
				V4.47c0.46-0.01,0.92-0.12,1.33-0.34v1.23c0,0.08,0.07,0.15,0.15,0.15h0.89V6.7c0,0.08,0.07,0.15,0.15,0.15h2.07v1.04h-0.3
				C4.4,7.88,4.33,7.95,4.33,8.02L4.33,8.02z M8.47,8.47H4.63v-0.3h2.26c0.13,0,0.26,0,0.26-0.15V6.69C7.12,5.99,7.67,5.4,8.37,5.37
				c0.03,0,0.07,0,0.1,0L8.47,8.47L8.47,8.47z M8.47,5.08C7.6,5.04,6.87,5.72,6.84,6.59c0,0.04,0,0.07,0,0.11v1.18H5.07V6.7
				c0-0.04-0.02-0.08-0.04-0.1C5,6.57,4.96,6.55,4.92,6.55H2.85V5.52h2.66c0.08,0,0.15-0.07,0.15-0.15c0,0,0,0,0,0v-3.1h2.81
				L8.47,5.08L8.47,5.08z M8.47,1.97H2.69c0.01-0.13,0.01-0.39,0.01-0.96V0.2h5.76L8.47,1.97z"/>
		</g>
	</g>
</g>
</svg>
