<?xml version="1.0" encoding="utf-8"?>
<!-- Generator: Adobe Illustrator 24.2.3, SVG Export Plug-In . SVG Version: 6.00 Build 0)  -->
<svg version="1.1" id="Capa_1" xmlns="http://www.w3.org/2000/svg" xmlns:xlink="http://www.w3.org/1999/xlink" x="0px" y="0px"
	 viewBox="0 0 13.07 15.37" style="enable-background:new 0 0 13.07 15.37;" xml:space="preserve">
<style type="text/css">
	.st0{fill:#A2A4AB;}
</style>
<g>
	<path class="st0" d="M7.75,13.76H5.17c-0.23,0-0.4,0.23-0.33,0.45c0.23,0.68,0.87,1.17,1.62,1.17s1.39-0.49,1.62-1.17
		C8.16,13.99,7.99,13.76,7.75,13.76z"/>
	<path class="st0" d="M12.91,11.76l-1.76-1.44V6.18c0-2.21-1.54-4.08-3.61-4.58V1.1c0-0.6-0.49-1.1-1.1-1.1c-0.6,0-1.1,0.49-1.1,1.1
		v0.5c-2.07,0.5-3.63,2.37-3.63,4.59v4.13H1.72l-1.59,1.48c-0.34,0.47,0.03,1.1,0.66,1.1H2.6h7.67h2
		C12.92,12.89,13.3,12.23,12.91,11.76z"/>
</g>
</svg>
