<?xml version="1.0" encoding="utf-8"?>
<!-- Generator: Adobe Illustrator 24.2.3, SVG Export Plug-In . SVG Version: 6.00 Build 0)  -->
<svg version="1.1" id="Capa_1" xmlns="http://www.w3.org/2000/svg" xmlns:xlink="http://www.w3.org/1999/xlink" x="0px" y="0px"
	 viewBox="0 0 8.47 9.34" style="enable-background:new 0 0 8.47 9.34;" xml:space="preserve">
<style type="text/css">
	.st0{fill:#00173A;}
</style>
<g id="Grupo_281" transform="translate(-721.721 -85.368)">
	<path id="Trazado_340" class="st0" d="M721.88,85.37L721.88,85.37c-0.09,0-0.16,0.07-0.16,0.16v8.99c0,0.09,0.07,0.16,0.16,0.16
		l8.15,0.02l0,0c0.09,0,0.16-0.07,0.16-0.16c0,0,0,0,0,0v-8.99c0-0.09-0.07-0.16-0.16-0.16L721.88,85.37z M729.87,94.38l-7.82-0.02
		v-8.67l7.82,0.02V94.38z"/>
	<path id="Trazado_341" class="st0" d="M724.35,88.67c0.44-0.01,0.78-0.37,0.77-0.81c-0.01-0.42-0.35-0.77-0.77-0.77l0,0
		c-0.44-0.01-0.8,0.34-0.81,0.77s0.34,0.8,0.77,0.81C724.33,88.67,724.34,88.67,724.35,88.67z M723.88,87.88
		c0-0.26,0.21-0.47,0.47-0.47l0,0c0.26,0,0.47,0.21,0.47,0.47c0,0.26-0.21,0.47-0.47,0.47l0,0
		C724.09,88.34,723.88,88.13,723.88,87.88C723.88,87.88,723.88,87.88,723.88,87.88L723.88,87.88z"/>
	<path id="Trazado_342" class="st0" d="M722.78,92.38h6.37c0.09,0,0.16-0.07,0.16-0.16c0,0,0,0,0,0v-5.8c0-0.09-0.07-0.16-0.16-0.16
		c0,0,0,0,0,0h-6.38c-0.09,0-0.16,0.07-0.16,0.16c0,0,0,0,0,0v5.76C722.61,92.27,722.68,92.36,722.78,92.38L722.78,92.38z
		 M728.98,92.01v0.04h-6.05v-1.07l1.01-1.25l1.22,1.04c0.07,0.06,0.17,0.05,0.23-0.02c0,0,0,0,0.01-0.01l1.67-2.19l1.91,1.85
		L728.98,92.01z M722.93,86.58h6.05v3.38l-1.81-1.76c-0.06-0.06-0.17-0.06-0.23,0c0,0-0.01,0.01-0.01,0.01l-1.67,2.2l-1.22-1.04
		c-0.07-0.06-0.17-0.05-0.23,0.02c0,0,0,0,0,0l-0.87,1.08L722.93,86.58z"/>
</g>
</svg>
