<?xml version="1.0" encoding="utf-8"?>
<!-- Generator: Adobe Illustrator 24.2.3, SVG Export Plug-In . SVG Version: 6.00 Build 0)  -->
<svg version="1.1" id="Capa_1" xmlns="http://www.w3.org/2000/svg" xmlns:xlink="http://www.w3.org/1999/xlink" x="0px" y="0px"
	 viewBox="0 0 9.06 9.42" style="enable-background:new 0 0 9.06 9.42;" xml:space="preserve">
<style type="text/css">
	.st0{fill:#00173A;}
</style>
<g id="Grupo_279" transform="translate(-539.399 -1105.305)">
	<g id="Grupo_165" transform="translate(546.868 1112.376)">
		<g id="Grupo_161">
			<path id="Trazado_320" class="st0" d="M-4.59-3.27c-0.1,0-0.17-0.08-0.17-0.17c0-0.07,0.05-0.14,0.12-0.17l2.67-0.89
				c0.09-0.03,0.19,0.02,0.22,0.11C-1.72-4.3-1.77-4.2-1.86-4.17c0,0,0,0,0,0l-2.67,0.89C-4.55-3.27-4.57-3.27-4.59-3.27z"/>
		</g>
		<g id="Grupo_162" transform="translate(0.797 2.379)">
			<path id="Trazado_321" class="st0" d="M-5.1-4.79c-0.1,0-0.17-0.08-0.17-0.17c0-0.07,0.05-0.14,0.12-0.17l2.67-0.89
				C-2.39-6.05-2.29-6-2.26-5.91c0.03,0.09-0.02,0.19-0.11,0.22c0,0,0,0,0,0l-2.67,0.89C-5.06-4.79-5.08-4.79-5.1-4.79z"/>
		</g>
		<g id="Grupo_163" transform="translate(1.594 4.758)">
			<path id="Trazado_322" class="st0" d="M-5.61-6.3c-0.1,0-0.17-0.08-0.17-0.17c0-0.07,0.05-0.14,0.12-0.17l2.67-0.89
				C-2.9-7.57-2.8-7.52-2.77-7.43s-0.02,0.19-0.11,0.22c0,0,0,0,0,0l-2.67,0.89C-5.57-6.31-5.59-6.3-5.61-6.3z"/>
		</g>
		<g id="Grupo_164" transform="translate(2.391 7.137)">
			<path id="Trazado_323" class="st0" d="M-6.12-7.82c-0.1,0-0.17-0.08-0.17-0.17c0-0.07,0.05-0.14,0.12-0.17l2.67-0.89
				c0.09-0.03,0.19,0.02,0.22,0.11S-3.3-8.76-3.39-8.72c0,0,0,0,0,0l-2.67,0.89C-6.08-7.82-6.1-7.82-6.12-7.82z"/>
		</g>
	</g>
	<path id="Trazado_324" class="st0" d="M548.46,1111.02c0,0,0-0.01,0-0.01c0-0.02,0-0.03,0-0.05l0,0c0-0.01,0-0.02-0.01-0.03
		l-1.76-5.27c-0.09-0.27-0.39-0.42-0.66-0.33l-6.27,2.1c-0.27,0.09-0.42,0.39-0.33,0.66c0,0,0,0,0,0l2.1,6.27
		c0.09,0.27,0.39,0.42,0.66,0.33c0,0,0,0,0,0l5.27-1.76c0.01,0,0.02-0.01,0.04-0.02l0.01,0c0.01-0.01,0.02-0.01,0.03-0.02l0.01-0.01
		c0.01-0.01,0.02-0.02,0.02-0.04l0,0l0.89-1.78l0,0C548.45,1111.05,548.46,1111.03,548.46,1111.02z M542.08,1114.36
		c-0.09,0.03-0.19-0.02-0.22-0.11l-2.1-6.27c-0.01-0.04-0.01-0.09,0.01-0.13c0.02-0.04,0.06-0.07,0.1-0.09l6.27-2.1
		c0.09-0.03,0.19,0.02,0.22,0.11l1.71,5.1l-0.84,0.28c-0.27,0.09-0.42,0.39-0.33,0.66l0.28,0.84L542.08,1114.36z M547.43,1112.31
		l-0.2-0.6c-0.03-0.09,0.02-0.19,0.11-0.22l0.6-0.2L547.43,1112.31z"/>
</g>
</svg>
