<?xml version="1.0" encoding="utf-8"?>
<!-- Generator: Adobe Illustrator 24.2.3, SVG Export Plug-In . SVG Version: 6.00 Build 0)  -->
<svg version="1.1" id="Capa_1" xmlns="http://www.w3.org/2000/svg" xmlns:xlink="http://www.w3.org/1999/xlink" x="0px" y="0px"
	 viewBox="0 0 576 512" style="enable-background:new 0 0 576 512;" xml:space="preserve">
<style type="text/css">
	.st0{fill:#FFFFFF;}
</style>
<path class="st0" d="M572.6,270.3l-96,192c-5.4,10.9-16.5,17.7-29.5,17.7H64c-35.3,0-64-28.7-64-64V96c0-35.3,28.6-64,64-64h117.5
	c17,0,33.3,6.7,45.3,18.8L275.9,96H416c35.4,0,64,28.7,64,64v32h-48v-32c0-8.8-7.2-16-16-16H256l-63.2-59.3c-3-3-7-4.7-11.3-4.7H64
	c-8.8,0-16,7.2-16,16v288l71.2-142.3c5.4-10.9,16.5-17.7,28.6-17.7H544C567.7,224,583.2,249,572.6,270.3z"/>
</svg>
