<?xml version="1.0" encoding="utf-8"?>
<!-- Generator: Adobe Illustrator 24.2.3, SVG Export Plug-In . SVG Version: 6.00 Build 0)  -->
<svg version="1.1" id="Capa_1" xmlns="http://www.w3.org/2000/svg" xmlns:xlink="http://www.w3.org/1999/xlink" x="0px" y="0px"
	 viewBox="0 0 9.06 11.67" style="enable-background:new 0 0 9.06 11.67;" xml:space="preserve">
<style type="text/css">
	.st0{fill:#00173A;}
</style>
<g id="Grupo_280" transform="translate(-779.925 -1165.918)">
	<g id="Grupo_167" transform="translate(782.457 1168.468)">
		<path id="Trazado_325" class="st0" d="M0.86,0.33h-2.07c-0.14,0-0.25-0.08-0.25-0.17v-1.45c0-0.1,0.11-0.17,0.25-0.17h2.07
			c0.14,0,0.25,0.08,0.25,0.17v1.45C1.11,0.25,1,0.33,0.86,0.33z M-0.96-0.02h1.58v-1.1h-1.58V-0.02z"/>
	</g>
	<g id="Grupo_169" transform="translate(789.585 1177.059)">
		<g id="Grupo_168" transform="translate(0 0)">
			<path id="Trazado_326" class="st0" d="M-1.99-5.9h-3.3C-5.43-5.89-5.54-6-5.55-6.13c-0.01-0.14,0.1-0.25,0.24-0.26
				c0.01,0,0.01,0,0.02,0h3.3c0.14-0.01,0.25,0.1,0.26,0.24c0.01,0.14-0.1,0.25-0.24,0.26C-1.98-5.9-1.99-5.9-1.99-5.9z"/>
		</g>
	</g>
	<g id="Grupo_171" transform="translate(790.633 1179.588)">
		<g id="Grupo_170" transform="translate(0 0)">
			<path id="Trazado_327" class="st0" d="M-3.07-7.35h-2.82c-0.14,0.01-0.25-0.1-0.26-0.24c-0.01-0.14,0.1-0.25,0.24-0.26
				c0.01,0,0.01,0,0.02,0h2.82c0.14,0.01,0.24,0.12,0.24,0.26C-2.84-7.45-2.94-7.35-3.07-7.35z"/>
		</g>
	</g>
	<g id="Grupo_173" transform="translate(794.645 1182.082)">
		<g id="Grupo_172" transform="translate(0 0)">
			<path id="Trazado_328" class="st0" d="M-7.05-8.78h-1.14c-0.14,0.01-0.25-0.1-0.26-0.24c-0.01-0.14,0.1-0.25,0.24-0.26
				c0.01,0,0.01,0,0.02,0h1.14c0.14-0.01,0.25,0.1,0.26,0.24s-0.1,0.25-0.24,0.26C-7.04-8.78-7.05-8.78-7.05-8.78L-7.05-8.78z"/>
		</g>
	</g>
	<g id="Grupo_175" transform="translate(794.645 1186.24)">
		<g id="Grupo_174" transform="translate(0)">
			<path id="Trazado_329" class="st0" d="M-7.05-11.16h-1.14c-0.14,0.01-0.25-0.1-0.26-0.24c-0.01-0.14,0.1-0.25,0.24-0.26
				c0.01,0,0.01,0,0.02,0h1.14c0.14-0.01,0.25,0.1,0.26,0.24s-0.1,0.25-0.24,0.26C-7.04-11.16-7.05-11.16-7.05-11.16L-7.05-11.16z"
				/>
		</g>
	</g>
	<path id="Trazado_330" class="st0" d="M788.99,1169.07c0-0.08-0.04-0.15-0.1-0.2l-2.89-2.89l0,0c-0.01-0.01-0.03-0.03-0.05-0.04
		l-0.02-0.01c-0.02-0.01-0.04-0.02-0.06-0.02h0c-0.02,0-0.03,0-0.05,0h-5.66c-0.14,0-0.25,0.11-0.25,0.24c0,0,0,0,0,0v11.17
		c0,0.14,0.11,0.25,0.24,0.25c0,0,0,0,0,0h8.57c0.14,0,0.25-0.11,0.25-0.24c0,0,0,0,0,0v-8.23
		C788.99,1169.09,788.99,1169.08,788.99,1169.07z M788.14,1168.83h-2.07v-2.07L788.14,1168.83z M780.42,1177.09v-10.68h5.16v2.67
		c0,0.14,0.11,0.25,0.25,0.25c0,0,0,0,0,0h2.67v7.77H780.42z"/>
	<g id="Grupo_176" transform="translate(786.082 1177.059)">
		<path id="Trazado_331" class="st0" d="M-2.5-5.9h-0.78C-3.42-5.89-3.53-6-3.54-6.13c-0.01-0.14,0.1-0.25,0.24-0.26
			c0.01,0,0.01,0,0.02,0h0.78c0.14-0.01,0.25,0.1,0.26,0.24c0.01,0.14-0.1,0.25-0.24,0.26C-2.49-5.9-2.5-5.9-2.5-5.9z"/>
	</g>
	<g id="Grupo_177" transform="translate(783.435 1177.059)">
		<path id="Trazado_332" class="st0" d="M-1.34-5.9h-0.42C-1.9-5.9-2.01-6.02-2-6.15C-2-6.28-1.89-6.38-1.77-6.39h0.42
			c0.14,0.01,0.24,0.12,0.24,0.26C-1.11-6-1.21-5.9-1.34-5.9z"/>
	</g>
	<g id="Grupo_178" transform="translate(787.905 1179.588)">
		<path id="Trazado_333" class="st0" d="M-3.9-7.35h-0.42C-4.46-7.35-4.57-7.47-4.56-7.6c0.01-0.13,0.11-0.23,0.24-0.24h0.42
			c0.14-0.01,0.25,0.1,0.26,0.24c0.01,0.14-0.1,0.25-0.24,0.26C-3.89-7.35-3.9-7.35-3.9-7.35z"/>
	</g>
	<g id="Grupo_179" transform="translate(796.3 1184.13)">
		<path id="Trazado_334" class="st0" d="M-8.72-9.95h-0.42c-0.14-0.01-0.24-0.12-0.24-0.26c0.01-0.13,0.11-0.23,0.24-0.24h0.42
			c0.14-0.01,0.25,0.1,0.26,0.24c0.01,0.14-0.1,0.25-0.24,0.26C-8.7-9.95-8.71-9.95-8.72-9.95z"/>
	</g>
	<g id="Grupo_180" transform="translate(793.573 1184.13)">
		<path id="Trazado_335" class="st0" d="M-7.15-9.95h-0.42c-0.14-0.01-0.24-0.12-0.24-0.26c0.01-0.13,0.11-0.23,0.24-0.24h0.42
			c0.14-0.01,0.25,0.1,0.26,0.24c0.01,0.14-0.1,0.25-0.24,0.26C-7.14-9.95-7.15-9.95-7.15-9.95z"/>
	</g>
	<g id="Grupo_181" transform="translate(786.562 1184.13)">
		<path id="Trazado_336" class="st0" d="M-1.38-9.95h-2.18c-0.14,0.01-0.25-0.1-0.26-0.24c-0.01-0.14,0.1-0.25,0.24-0.26
			c0.01,0,0.01,0,0.02,0h2.18c0.14,0.01,0.24,0.12,0.24,0.26C-1.15-10.06-1.25-9.95-1.38-9.95z"/>
	</g>
	<g id="Grupo_182" transform="translate(785.411 1182.082)">
		<path id="Trazado_337" class="st0" d="M0.28-8.78H-2.9c-0.14,0.01-0.25-0.1-0.26-0.24c-0.01-0.14,0.1-0.25,0.24-0.26
			c0.01,0,0.01,0,0.02,0h3.17c0.14-0.01,0.25,0.1,0.26,0.24S0.43-8.78,0.3-8.78C0.29-8.78,0.28-8.78,0.28-8.78z"/>
	</g>
</g>
</svg>
