<svg xmlns="http://www.w3.org/2000/svg" viewBox="0 0 138.59 138.59"><defs><style>.cls-1{fill:#333;}</style></defs><g id="Capa_2" data-name="Capa 2"><g id="Ñëîé_1" data-name="Ñëîé 1"><path class="cls-1" d="M91.62,92.86c-.35.77-.71,1.53-1.11,2.26l.12,0Zm-3-7.91,0,0c-.11.51-.23,1-.37,1.53Z"/><path class="cls-1" d="M81.5,98.65l-.71.75s0,0,0,0Zm10.12-5.79c-.35.77-.71,1.53-1.11,2.26l.12,0Zm-3-7.91.69-2.54-.32.08c-.1.84-.24,1.66-.42,2.48-.11.51-.23,1-.37,1.53Zm7.06,10.71h0s0,0,0,0h0Z"/><path class="cls-1" d="M91.62,92.86c-.35.77-.71,1.53-1.11,2.26l.12,0ZM81.5,98.65l-.71.75h0l0,0ZM88.63,85l.69-2.54-.32.08c-.1.84-.24,1.66-.42,2.48-.11.51-.23,1-.37,1.53Z"/><path class="cls-1" d="M84.42,103.33l-25.09,25.1A34.76,34.76,0,0,1,10.16,79.27l25.1-25.1a35,35,0,0,1,5.13-4.24c-.17.64-.32,1.29-.44,1.94-.06.28-.12.56-.17.84s-.07.38-.1.58-.07.45-.11.68c-.18,1.27-.31,2.54-.38,3.83L14,83.05a29.41,29.41,0,0,0,41.59,41.6L80.78,99.41h0l0,0,.68-.74c.56-.6,1.09-1.24,1.59-1.89a31,31,0,0,0,2-2.87l.09-.15h0l.42-.72.05-.1L86,92.3l.1-.21.33-.65,0,0c.12-.26.24-.52.35-.78s.19-.43.28-.65l.15-.39c.16-.37.3-.76.43-1.15l.18-.51,0-.1q.21-.64.39-1.32L88.63,85l.69-2.54-.32.08c0-.12,0-.23,0-.36A29.34,29.34,0,0,0,65.19,49.85l-.29-.05,4.48-4.49.27.08A34.77,34.77,0,0,1,94.59,78.6v1.05c0,.72-.06,1.43-.12,2.14h0Q94.32,83.4,94,85a.22.22,0,0,1,0,.08c0,.27-.1.55-.16.82s-.13.59-.2.89-.14.56-.21.84-.19.7-.29,1.05c-.06.2-.12.41-.19.62s-.22.69-.34,1-.2.56-.31.84-.22.57-.34.86-.23.58-.36.87c-.35.77-.71,1.53-1.11,2.26a33,33,0,0,1-1.85,3.08A34.49,34.49,0,0,1,84.42,103.33Z"/><path class="cls-1" d="M91.62,92.86c-.35.77-.71,1.53-1.11,2.26l.12,0ZM57.81,39.18h0l-.7.76C57.32,39.68,57.57,39.43,57.81,39.18Z"/><path class="cls-1" d="M128.43,59.33l-25.1,25.09a35,35,0,0,1-5.13,4.24c.17-.64.32-1.29.44-1.94.06-.28.12-.56.17-.84s.06-.38.1-.58.07-.45.1-.67q.28-1.91.39-3.84l25.24-25.25A29.41,29.41,0,0,0,83.05,14L57.81,39.18h0l-.7.76a29.41,29.41,0,0,0-6.71,12.15,27.86,27.86,0,0,0-.79,4A29.36,29.36,0,0,0,75.18,89l.31,0L70.85,93.7l-.28-.07A34.76,34.76,0,0,1,44,58.94,34.62,34.62,0,0,1,54.17,35.26L79.26,10.17a34.76,34.76,0,0,1,49.17,49.16Z"/><path class="cls-1" d="M57.09,39.94l.7-.76h0C57.57,39.43,57.32,39.68,57.09,39.94Z"/><path class="cls-1" d="M88.63,85l.69-2.54-.32.08c-.1.84-.24,1.66-.42,2.48-.11.51-.23,1-.37,1.53ZM81.5,98.65l-.71.75h0l0,0Z"/></g></g></svg>