<?xml version="1.0" encoding="utf-8"?>
<!-- Generator: Adobe Illustrator 24.2.3, SVG Export Plug-In . SVG Version: 6.00 Build 0)  -->
<svg version="1.1" id="Capa_1" xmlns="http://www.w3.org/2000/svg" xmlns:xlink="http://www.w3.org/1999/xlink" x="0px" y="0px"
	 viewBox="0 0 15.17 15.1" style="enable-background:new 0 0 15.17 15.1;" xml:space="preserve">
<style type="text/css">
	.st0{fill:#858688;}
</style>
<g id="Grupo_424" transform="translate(381.623 -1459.235) rotate(90)">
	<g id="Grupo_423" transform="translate(1459.235 359.546)">
		<path id="Trazado_520" class="st0" d="M14.97,20.41l-0.38-0.38l0,0l-0.11-0.11l0,0l-3.63-3.58c1.91-2.69,1.27-6.42-1.42-8.33
			S3.01,6.73,1.1,9.42s-1.27,6.42,1.42,8.33c2.02,1.43,4.71,1.47,6.77,0.1l3.74,3.68l0.41,0.41c0.26,0.26,0.82,0.13,1.24-0.29
			C15.1,21.22,15.23,20.67,14.97,20.41z M6.05,17.08c-2.33,0-4.21-1.89-4.21-4.21c0-2.33,1.89-4.21,4.21-4.21
			c2.33,0,4.21,1.89,4.21,4.21C10.26,15.19,8.38,17.07,6.05,17.08L6.05,17.08z"/>
	</g>
</g>
</svg>
