<?xml version="1.0" encoding="utf-8"?>
<!-- Generator: Adobe Illustrator 24.2.3, SVG Export Plug-In . SVG Version: 6.00 Build 0)  -->
<svg version="1.1" id="Capa_1" xmlns="http://www.w3.org/2000/svg" xmlns:xlink="http://www.w3.org/1999/xlink" x="0px" y="0px"
	 viewBox="0 0 13 9.34" style="enable-background:new 0 0 13 9.34;" xml:space="preserve">
<style type="text/css">
	.st0{fill:#00173A;}
</style>
<g id="Grupo_282" transform="translate(-258.419 -74.583)">
	<path id="Trazado_338" class="st0" d="M264.12,83.91c-0.22,0-0.44,0-0.66,0l-0.44-0.01c-0.47,0-0.95-0.01-1.43-0.04
		c-0.63-0.01-1.26-0.12-1.87-0.33c-1.18-0.48-1.23-1.88-1.27-2.81c-0.03-0.71-0.03-1.42-0.02-2.2c0-0.09,0-0.18,0-0.27
		c-0.06-0.8,0.06-1.61,0.34-2.37c0.44-0.95,1.38-1.1,2.31-1.18c0.69-0.06,1.4-0.07,2.08-0.09c1.32-0.03,2.69-0.06,4.05-0.01
		c0.72,0.03,1.38,0.08,2,0.15c0.6,0,1.17,0.25,1.58,0.67c0.4,0.58,0.6,1.28,0.59,1.98c0.01,0.15,0.02,0.29,0.02,0.45
		c0.01,0.36,0.01,0.72,0.01,1.07c0,0.16,0,0.33,0,0.49c0,0.11,0,0.23,0,0.34c0.02,0.6-0.01,1.2-0.08,1.8
		c-0.12,0.8-0.35,1.67-1.2,1.96c-0.87,0.25-1.78,0.36-2.69,0.34h-0.08c-0.3,0.01-0.59,0.01-0.89,0.02
		C265.7,83.9,264.91,83.91,264.12,83.91z M265.61,75.07c-0.82,0-1.64,0.02-2.44,0.04c-0.68,0.02-1.37,0.03-2.06,0.08
		c-0.85,0.07-1.57,0.18-1.91,0.9c-0.25,0.69-0.34,1.43-0.29,2.16c0,0.09,0,0.18,0,0.27c0,0.78-0.01,1.48,0.02,2.18
		c0.04,0.9,0.08,2.02,0.97,2.38c0.55,0.18,1.13,0.28,1.71,0.29c0.47,0.03,0.94,0.03,1.4,0.04l0.44,0.01c1,0.02,2.02-0.01,3-0.03
		c0.3-0.01,0.59-0.01,0.89-0.02h0.08c0.86,0.03,1.72-0.08,2.54-0.31c0.6-0.21,0.78-0.88,0.88-1.57c0.07-0.57,0.09-1.15,0.07-1.72
		c0-0.11,0-0.23,0-0.34c0-0.16,0-0.33,0-0.49c0-0.35,0.01-0.7-0.01-1.05l0,0c-0.01-0.15-0.01-0.3-0.02-0.43
		c0.02-0.6-0.15-1.2-0.48-1.71c-0.34-0.32-0.79-0.5-1.26-0.5c-0.62-0.07-1.26-0.12-1.97-0.14
		C266.66,75.08,266.14,75.07,265.61,75.07L265.61,75.07z"/>
	<path id="Trazado_339" class="st0" d="M266.89,79.24l-3.24-1.9v3.8L266.89,79.24z"/>
</g>
</svg>
