<?xml version="1.0" encoding="utf-8"?>
<!-- Generator: Adobe Illustrator 24.2.3, SVG Export Plug-In . SVG Version: 6.00 Build 0)  -->
<svg version="1.1" id="Capa_1" xmlns="http://www.w3.org/2000/svg" xmlns:xlink="http://www.w3.org/1999/xlink" x="0px" y="0px"
	 viewBox="0 0 9.95 8.83" style="enable-background:new 0 0 9.95 8.83;" xml:space="preserve">
<style type="text/css">
	.st0{fill:#00173A;}
</style>
<g id="Grupo_521" transform="translate(-96.271 -430)">
	<g id="Grupo_116" transform="translate(102.542 430)">
		<path id="Trazado_259" class="st0" d="M-1.2,5.46c-1.51,0-2.73-1.22-2.73-2.73C-3.93,1.22-2.7,0-1.2,0c1.51,0,2.73,1.22,2.73,2.73
			l0,0c0,0.59-0.19,1.16-0.54,1.63c-0.15,0.2-0.33,0.38-0.53,0.54C-0.01,5.26-0.6,5.46-1.2,5.46z M-1.2,0.33
			C-2.52,0.31-3.61,1.37-3.63,2.7c-0.02,1.33,1.04,2.41,2.37,2.43c0.02,0,0.04,0,0.06,0c0.53,0,1.04-0.17,1.46-0.5
			C0.44,4.5,0.6,4.34,0.73,4.16C1.04,3.75,1.2,3.25,1.2,2.73C1.21,1.4,0.13,0.33-1.2,0.33C-1.2,0.33-1.2,0.33-1.2,0.33L-1.2,0.33z"
			/>
	</g>
	<g id="Grupo_117" transform="translate(107.727 433.421)">
		<path id="Trazado_260" class="st0" d="M-6.54-2.14h0.26v0.24c0.27,0.02,0.5,0.22,0.56,0.49l-0.36,0.15
			c-0.07-0.2-0.18-0.3-0.32-0.3c-0.07,0-0.13,0.02-0.18,0.07c-0.04,0.04-0.07,0.1-0.07,0.16c0,0.06,0.02,0.11,0.06,0.15
			c0.08,0.06,0.18,0.1,0.27,0.13c0.12,0.04,0.24,0.1,0.36,0.16c0.09,0.05,0.16,0.12,0.21,0.21c0.05,0.09,0.08,0.2,0.08,0.31
			c0.01,0.16-0.05,0.32-0.16,0.45c-0.12,0.13-0.29,0.2-0.46,0.21v0.31h-0.26V0.28c-0.32-0.02-0.59-0.27-0.63-0.59l0.4-0.1
			c0.01,0.19,0.17,0.34,0.36,0.34c0,0,0.01,0,0.01,0c0.08,0.01,0.16-0.02,0.21-0.07c0.05-0.05,0.07-0.11,0.07-0.17
			c0-0.06-0.02-0.12-0.07-0.16c-0.1-0.06-0.2-0.11-0.31-0.14c-0.12-0.04-0.23-0.09-0.33-0.15c-0.08-0.05-0.15-0.12-0.19-0.2
			c-0.05-0.09-0.08-0.2-0.07-0.3c0-0.15,0.05-0.29,0.13-0.41c0.1-0.13,0.26-0.21,0.42-0.22L-6.54-2.14z"/>
	</g>
	<path id="Trazado_261" class="st0" d="M106.22,436.15c0-0.01-0.01-0.02-0.01-0.03c0-0.02,0-0.03-0.01-0.05
		c-0.03-0.09-0.09-0.16-0.16-0.21c-0.31-0.21-0.93-0.09-1.51,0.06c-0.25-0.11-0.79-0.01-1.64,0.32c-0.05,0-0.1,0-0.15,0
		c-1,0.06-1.52,0.06-1.62,0.05c-0.06-0.01-0.13-0.03-0.19-0.06c-0.1-0.05-0.25-0.14-0.42-0.25c-0.48-0.3-1.15-0.7-1.69-0.74h-0.05
		c-0.95,0-2.35,0.7-2.41,0.73c-0.08,0.04-0.12,0.14-0.08,0.22c0.04,0.08,0.14,0.12,0.22,0.08c0,0,0,0,0,0
		c0.01-0.01,1.39-0.69,2.25-0.69h0.04c0.46,0.03,1.08,0.41,1.54,0.69c0.18,0.11,0.34,0.21,0.45,0.26c0.09,0.04,0.17,0.07,0.27,0.08
		h0h0.01c0.01,0,0.01,0,0.02,0c0.02,0,0.54,0.01,1.66-0.05c0.25-0.01,0.39,0.02,0.48,0.13c0.03,0.03,0.05,0.08,0.04,0.12
		c-0.04,0.21-0.58,0.5-0.78,0.6c-0.42,0.22-1.61,0.25-2.5-0.21c-0.08-0.04-0.18,0-0.22,0.08c-0.04,0.08-0.01,0.17,0.07,0.21
		c0.55,0.27,1.15,0.41,1.76,0.41c0.36,0.01,0.71-0.05,1.04-0.2c0.54-0.29,0.89-0.53,0.95-0.83c0.03-0.14-0.02-0.29-0.11-0.39
		c-0.03-0.03-0.05-0.06-0.09-0.08c0.31-0.13,0.64-0.2,0.97-0.2c0.04,0.05,0.11,0.07,0.17,0.05l0.01,0c0.88-0.24,1.19-0.2,1.3-0.12
		c0.01,0,0.01,0.01,0.02,0.02c-0.05,0.11-0.22,0.33-0.79,0.68c-0.33,0.2-1.18,0.65-1.59,0.87l-0.14,0.08
		c-0.07,0.04-0.15,0.08-0.24,0.13c-0.57,0.38-1.24,0.59-1.93,0.61h-0.01c-0.08,0-0.55-0.13-0.97-0.24
		c-0.68-0.22-1.37-0.37-2.07-0.47c-0.42,0.02-1.48,0.25-1.52,0.26c-0.09,0.02-0.14,0.11-0.13,0.19c0.02,0.09,0.11,0.14,0.19,0.13
		c0.01,0,1.08-0.23,1.47-0.25c0.67,0.11,1.32,0.26,1.97,0.46c0.34,0.11,0.69,0.19,1.05,0.25h0.01c0.75-0.02,1.47-0.24,2.1-0.65
		c0.08-0.05,0.16-0.09,0.23-0.13l0.14-0.07c0.44-0.23,1.27-0.67,1.61-0.88c0.37-0.19,0.68-0.46,0.9-0.8
		C106.2,436.26,106.22,436.21,106.22,436.15z"/>
</g>
</svg>
