<?xml version="1.0" encoding="utf-8"?>
<!-- Generator: Adobe Illustrator 24.2.3, SVG Export Plug-In . SVG Version: 6.00 Build 0)  -->
<svg version="1.1" id="Capa_1" xmlns="http://www.w3.org/2000/svg" xmlns:xlink="http://www.w3.org/1999/xlink" x="0px" y="0px"
	 viewBox="0 0 13.19 9.42" style="enable-background:new 0 0 13.19 9.42;" xml:space="preserve">
<style type="text/css">
	.st0{fill:#00173A;}
</style>
<g>
	<path class="st0" d="M11.31,2.67l-0.8,0.94l-0.38-0.33C10.05,3.2,9.92,3.21,9.85,3.29C9.77,3.38,9.78,3.51,9.86,3.58l0.54,0.47
		c0.04,0.03,0.09,0.05,0.13,0.05l0.02,0c0.05,0,0.11-0.03,0.14-0.07l0.93-1.1c0.07-0.09,0.06-0.21-0.02-0.29
		C11.51,2.57,11.38,2.58,11.31,2.67z"/>
	<path class="st0" d="M3.06,3.02c-0.11,0-0.2,0.09-0.2,0.2v1.25c0,0.11,0.09,0.2,0.2,0.2c0,0,0,0,0,0c0.11,0,0.2-0.09,0.2-0.2V3.22
		C3.27,3.11,3.18,3.02,3.06,3.02z"/>
	<path class="st0" d="M3.88,2.26c-0.11,0-0.2,0.09-0.2,0.2v2.01c0,0.11,0.09,0.2,0.2,0.2c0.11,0,0.2-0.09,0.2-0.2V2.47
		C4.08,2.35,3.99,2.26,3.88,2.26z"/>
	<path class="st0" d="M4.68,2.76c-0.11,0-0.2,0.09-0.2,0.2l0.01,1.51c0,0.11,0.09,0.2,0.2,0.2h0c0.11,0,0.2-0.09,0.2-0.2L4.88,2.96
		C4.88,2.85,4.79,2.76,4.68,2.76z"/>
	<path class="st0" d="M5.5,3.14c-0.11,0-0.2,0.09-0.2,0.2v1.13c0,0.11,0.09,0.2,0.2,0.2c0,0,0,0,0,0c0.11,0,0.2-0.09,0.2-0.2V3.35
		C5.71,3.23,5.62,3.14,5.5,3.14z"/>
	<path class="st0" d="M6.32,2.71c-0.11,0-0.2,0.09-0.2,0.2v1.56c0,0.11,0.09,0.2,0.2,0.2c0.11,0,0.2-0.09,0.2-0.2V2.92
		C6.52,2.81,6.43,2.71,6.32,2.71z"/>
	<path class="st0" d="M7.13,2.87c-0.11,0-0.2,0.09-0.2,0.2v1.4c0,0.11,0.09,0.2,0.2,0.2c0,0,0,0,0,0c0.11,0,0.2-0.09,0.2-0.2v-1.4
		C7.33,2.96,7.24,2.87,7.13,2.87z"/>
	<path class="st0" d="M7.94,1.56c-0.11,0-0.2,0.09-0.2,0.2v2.71c0,0.11,0.09,0.2,0.2,0.2c0.11,0,0.2-0.09,0.2-0.2V1.77
		C8.15,1.65,8.05,1.56,7.94,1.56z"/>
	<path class="st0" d="M13.1,5.18l-0.88-0.89V4.28c0.16-0.25,0.26-0.54,0.29-0.84c0.01-0.1,0.01-0.19,0-0.29
		c-0.06-0.84-0.68-1.52-1.49-1.67V0.66c0-0.37-0.3-0.66-0.66-0.66h-9.7C0.3,0,0,0.3,0,0.66v5.91c0,0.37,0.3,0.66,0.66,0.66h3.82v1
		h-0.8c-0.26,0-0.47,0.21-0.47,0.47v0.24c0,0.26,0.21,0.47,0.47,0.47h3.66c0.26,0,0.47-0.21,0.47-0.47V8.7
		c0-0.26-0.21-0.47-0.47-0.47h-0.8v-1h3.82c0.37,0,0.66-0.3,0.66-0.66v-1.5c0.16-0.03,0.31-0.07,0.46-0.14l0.92,0.95
		c0.12,0.12,0.31,0.12,0.43,0L13.1,5.6c0.06-0.06,0.09-0.13,0.09-0.21C13.19,5.31,13.16,5.23,13.1,5.18z M7.34,8.64
		c0.04,0,0.07,0.03,0.07,0.07v0.24c0,0.04-0.03,0.07-0.07,0.07H3.68c-0.04,0-0.07-0.03-0.07-0.07V8.71c0-0.04,0.03-0.07,0.07-0.07
		H7.34z M4.9,8.23v-1h1.23v1H4.9z M10.62,6.57c0,0.14-0.11,0.26-0.25,0.26h-9.7c-0.14,0-0.26-0.12-0.25-0.26V6.26h10.21V6.57z
		 M0.41,5.85V0.66c0-0.14,0.11-0.26,0.25-0.26h9.7c0.14,0,0.26,0.12,0.25,0.26v0.79C9.7,1.49,8.93,2.21,8.86,3.15
		c-0.01,0.1-0.01,0.19,0,0.29C8.94,4.36,9.7,5.07,10.62,5.1v0.75H0.41z M12.62,5.64l-0.99-1.02l-0.09-0.09L11.43,4.6
		c-0.01,0-0.02,0.01-0.03,0.02c-0.22,0.11-0.46,0.17-0.71,0.18c-0.79,0-1.44-0.6-1.51-1.38c-0.01-0.08-0.01-0.16,0-0.24
		c0.05-0.75,0.65-1.35,1.41-1.41c0.83-0.06,1.56,0.57,1.61,1.41c0.01,0.08,0.01,0.16,0,0.24c-0.02,0.25-0.11,0.5-0.25,0.71
		l-0.02,0.03v0c-0.01,0.01-0.01,0.02-0.01,0.03L11.9,4.2L11.8,4.31l1.07,1.08L12.62,5.64z"/>
</g>
</svg>
