<?xml version="1.0" encoding="utf-8"?>
<!-- Generator: Adobe Illustrator 24.2.3, SVG Export Plug-In . SVG Version: 6.00 Build 0)  -->
<svg version="1.1" id="Capa_1" xmlns="http://www.w3.org/2000/svg" xmlns:xlink="http://www.w3.org/1999/xlink" x="0px" y="0px"
	 viewBox="0 0 9.59 8.83" style="enable-background:new 0 0 9.59 8.83;" xml:space="preserve">
<style type="text/css">
	.st0{fill:#00173A;}
</style>
<g id="Grupo_522" transform="translate(-100.466 -480.226)">
	<path id="Trazado_262" class="st0" d="M109.24,480.98c-0.02-0.01-0.05-0.02-0.08-0.02v-0.55c0-0.1-0.08-0.19-0.19-0.19h-0.84
		c-0.1,0-0.18,0.08-0.19,0.19v0.55c-0.1,0.01-0.17,0.09-0.17,0.18v6.49c0,0.09,0.07,0.17,0.16,0.18c0.16,0.3,0.37,0.7,0.44,0.82
		v0.24c0,0.1,0.08,0.19,0.19,0.19s0.19-0.08,0.19-0.19v-0.24c0.06-0.12,0.28-0.52,0.44-0.82c0.09-0.01,0.16-0.09,0.16-0.18v-6.24
		c0.22,0.08,0.36,0.29,0.35,0.51v2.01c0,0.1,0.08,0.19,0.19,0.19c0.1,0,0.19-0.08,0.19-0.19v-2.01
		C110.06,481.44,109.71,481.04,109.24,480.98z M108.14,481.33h0.82v3.71h-0.82V481.33z M108.79,480.6v0.36h-0.47v-0.36H108.79z
		 M108.9,487.54c-0.16,0.29-0.27,0.5-0.35,0.65c-0.08-0.15-0.19-0.35-0.35-0.65c-0.02-0.03-0.04-0.05-0.07-0.07v-2.06h0.82v2.07
		C108.94,487.49,108.91,487.51,108.9,487.54L108.9,487.54z"/>
	<g id="Grupo_119" transform="translate(100.466 480.268)">
		<path id="Trazado_263" class="st0" d="M4.34,2.97H1.85c-0.1,0-0.19,0.08-0.19,0.19c0,0.1,0.08,0.19,0.19,0.19h2.49
			c0.1,0,0.19-0.08,0.19-0.19C4.52,3.06,4.44,2.97,4.34,2.97L4.34,2.97z"/>
		<path id="Trazado_264" class="st0" d="M1.85,2.5h0.9c0.1,0,0.19-0.08,0.19-0.19c0-0.1-0.08-0.19-0.19-0.19h-0.9
			c-0.1,0-0.19,0.08-0.19,0.19C1.67,2.42,1.75,2.5,1.85,2.5z"/>
		<path id="Trazado_265" class="st0" d="M2.75,6.21h-0.9c-0.1,0-0.19,0.08-0.19,0.19c0,0.1,0.08,0.19,0.19,0.19h0.9
			c0.1,0,0.19-0.08,0.19-0.19C2.94,6.29,2.85,6.21,2.75,6.21L2.75,6.21z"/>
		<path id="Trazado_266" class="st0" d="M1.85,4.16h2.13c0.1,0,0.19-0.08,0.19-0.19c0-0.1-0.08-0.19-0.19-0.19H1.85
			c-0.1,0-0.19,0.08-0.19,0.19C1.67,4.08,1.75,4.16,1.85,4.16z"/>
		<path id="Trazado_267" class="st0" d="M4.34,4.59H1.85c-0.1,0-0.19,0.08-0.19,0.19c0,0.1,0.08,0.19,0.19,0.19h2.49
			c0.1,0,0.19-0.08,0.19-0.19C4.52,4.67,4.44,4.59,4.34,4.59L4.34,4.59z"/>
		<path id="Trazado_268" class="st0" d="M6.82,2.36c0-0.06-0.03-0.11-0.07-0.15L4.57,0.03C4.55,0.02,4.54,0.01,4.53,0L4.52,0
			C4.5-0.01,4.49-0.02,4.47-0.02l0,0c-0.01,0-0.02,0-0.04,0H0.17c-0.1,0-0.19,0.08-0.19,0.19v8.43c0,0.1,0.08,0.19,0.19,0.19h6.46
			c0.1,0,0.19-0.08,0.19-0.19V2.38C6.82,2.37,6.82,2.36,6.82,2.36z M6.18,2.17H4.62V0.61L5.4,1.39L6.18,2.17z M0.35,8.4V0.35h3.89
			v2.01c0,0.1,0.08,0.19,0.19,0.19h2.01V8.4L0.35,8.4z"/>
	</g>
</g>
</svg>
