<?xml version="1.0" encoding="utf-8"?>
<!-- Generator: Adobe Illustrator 26.2.1, SVG Export Plug-In . SVG Version: 6.00 Build 0)  -->
<svg version="1.1" id="Capa_1" xmlns="http://www.w3.org/2000/svg" xmlns:xlink="http://www.w3.org/1999/xlink" x="0px" y="0px"
	 viewBox="0 0 98 100" style="enable-background:new 0 0 98 100;" xml:space="preserve">
<style type="text/css">
	.st0{fill:#FFFFFF;}
</style>
<g id="Capa_2_00000022562847916005402410000000202540803502474928_">
	<g id="Capa_1-2">
		<path class="st0" d="M11.8,50l5.4-14.1h3.4L26,50h-3.4l-1.1-3H16l-1,3H11.8z M20.8,44.7l-1.6-4.6c0-0.1-0.1-0.4-0.2-0.7
			s-0.1-0.7-0.2-1.2c-0.1,0.5-0.2,0.9-0.2,1.2c0,0.2-0.1,0.5-0.2,0.7l-1.5,4.5L20.8,44.7z"/>
		<path class="st0" d="M27.5,50V35.9h3v11.5h4.8V50H27.5z"/>
		<path class="st0" d="M37.4,50V35.9h3V50H37.4z"/>
		<path class="st0" d="M41.5,50l5.4-14.1h3.4L55.7,50h-3.4l-1.2-3h-5.5l-1,3H41.5z M50.5,44.7l-1.6-4.5c-0.1-0.2-0.1-0.5-0.2-0.7
			c-0.1-0.3-0.1-0.7-0.2-1.2c-0.1,0.5-0.2,0.9-0.2,1.2s-0.1,0.6-0.2,0.7l-1.5,4.5H50.5z"/>
		<path class="st0" d="M56.8,50V35.9h3.8c1.2,0,2.4,0.1,3.6,0.3c0.8,0.2,1.6,0.5,2.3,1c0.8,0.6,1.5,1.4,1.9,2.4
			c0.5,1,0.7,2.2,0.6,3.3c0,1.1-0.2,2.3-0.7,3.3c-0.4,1-1.1,1.8-2,2.4c-0.6,0.5-1.4,0.8-2.1,1c-1.1,0.2-2.3,0.3-3.5,0.3L56.8,50
			L56.8,50z M59.8,47.5h1.7c1.2,0.1,2.5-0.3,3.4-1.1c0.8-0.9,1.2-2.2,1.1-3.4c0.1-1.2-0.3-2.5-1.1-3.4c-1-0.8-2.2-1.2-3.5-1.1h-1.7
			L59.8,47.5z"/>
		<path class="st0" d="M86,43c0,1-0.2,2-0.6,2.9c-0.4,0.9-0.9,1.7-1.6,2.4c-0.7,0.7-1.6,1.2-2.5,1.6c-1.7,0.7-3.6,0.7-5.4,0.1
			c-0.8-0.3-1.6-0.7-2.3-1.2C72,47.3,71,45.2,71,43c0-2,0.8-3.9,2.2-5.2c0.7-0.7,1.5-1.2,2.5-1.6c1.8-0.8,3.9-0.8,5.7,0
			c0.9,0.4,1.7,0.9,2.5,1.6c0.7,0.7,1.2,1.5,1.6,2.4C85.8,41.1,86,42,86,43z M78.5,47.7c1.2,0,2.4-0.5,3.2-1.3
			c1.7-1.9,1.7-4.8,0-6.7c-1.6-1.7-4.4-1.8-6.1-0.2c-0.1,0.1-0.1,0.1-0.2,0.2c-1.7,1.9-1.7,4.8,0,6.7C76.2,47.2,77.3,47.7,78.5,47.7
			L78.5,47.7z"/>
		<path class="st0" d="M55.8,88.4c-0.6-0.2-1.2-0.2-1.7,0h-0.3l0.4,2.6h0.3c0.6,0,1.2-0.2,1.7-0.6c0.2-0.3,0.3-0.6,0.2-1
			C56.5,89,56.2,88.6,55.8,88.4z"/>
		<path class="st0" d="M67.2,84.3c-0.5-0.1-0.9,0.1-1.3,0.3l-0.3,0.2l1.4,2.6l0.3-0.1c0.4-0.2,0.8-0.5,1-0.9c0.1-0.4,0-0.9-0.2-1.2
			C67.9,84.7,67.6,84.4,67.2,84.3z"/>
		<path class="st0" d="M76.6,79.3l1.3,2.6l1.7-1.7l-2.7-1.3l-0.4-0.2l-0.6-0.4c0.2,0.2,0.3,0.4,0.4,0.6C76.4,79,76.5,79.2,76.6,79.3
			z"/>
		<path class="st0" d="M98,24v-8.7L80.1,5.9c-0.7-0.3-1.4-0.4-2.1-0.4c-0.6,0-1.2,0.2-1.8,0.4l-3,1.6c-0.3,0.2-0.7,0.2-1,0.2
			c-0.4-0.1-0.8-0.2-1.2-0.5l-8.9-6.5C61.5,0.2,60.8,0,60,0c-0.9,0-1.7,0.3-2.5,0.8l-6.1,4.6c-0.3,0.2-0.6,0.4-1,0.4
			c-0.3,0-0.7,0-1-0.1l-2.6-1.2c-0.6-0.3-1.3-0.4-2-0.3c-0.6,0.1-1.2,0.4-1.8,0.7l-7.5,5.7c-0.2,0.2-0.5,0.4-0.9,0.4
			c-0.4,0-0.7,0-1.1-0.2l-9.3-3.1c-0.4-0.1-0.9-0.2-1.4-0.2c-0.5,0-1,0.1-1.4,0.3L5.9,15l0,0L0,17.6V24l0,0v27
			c0,11.8,4.3,23.2,12,32.1c2.8,3.2,6,6.1,9.5,8.5c16.6,11.3,38.4,11.3,55,0c3.5-2.4,6.7-5.2,9.5-8.5c7.7-8.9,12-20.3,12-32.1V24z
			 M24,80.2l-1.5-0.1c0.1-0.2,0.1-0.5,0.1-0.8c-0.1-0.3-0.2-0.5-0.4-0.7c-0.2-0.2-0.5-0.4-0.8-0.4c-0.3,0-0.5,0-0.7,0.2
			c-0.3,0.3-0.3,0.9,0,1.8c0.1,0.2,0.1,0.3,0.1,0.4c0.2,0.6,0.3,1.3,0.3,1.9c-0.1,0.5-0.3,1-0.7,1.3c-0.5,0.5-1.2,0.8-2,0.7
			c-0.8-0.1-1.5-0.5-2-1.1c-0.4-0.4-0.7-0.9-0.9-1.5c-0.2-0.5-0.2-1,0-1.4h1.5c-0.1,0.3-0.2,0.7-0.1,1c0.1,0.3,0.2,0.6,0.5,0.9
			c0.2,0.3,0.5,0.5,0.9,0.5c0.3,0,0.6-0.1,0.9-0.3c0.3-0.3,0.3-0.8,0-1.7c-0.1-0.3-0.1-0.5-0.2-0.7c-0.2-0.6-0.3-1.3-0.2-1.9
			c0.2-1.2,1.3-2,2.5-1.8c0.8,0.1,1.5,0.5,2,1.1c0.3,0.3,0.6,0.7,0.8,1.1C24.1,79.3,24.1,79.7,24,80.2z M32.2,93.8l-1.9-1l1.9-3.8
			l-3.9-2l-1.9,3.8l-1.9-1l4.6-9l1.9,1l-1.8,3.6l3.9,2l1.8-3.6l1.9,1L32.2,93.8z M46.7,89l-3.8-0.4l-0.2,2.1l3.8,0.4l-0.2,1.8
			l-3.8-0.4L42.1,95l3.8,0.4l-0.2,1.8l-5.9-0.7l1.2-10.1l5.9,0.7L46.7,89z M57.8,96.3l-3.4-4.2l0.8,4.7l-2.1,0.4l-1.7-10l3-0.5
			c1-0.2,2-0.2,2.8,0.2c0.7,0.4,1.2,1.2,1.3,2c0.1,0.6,0,1.3-0.3,1.9c-0.3,0.6-0.8,1-1.5,1.1l3.5,4.1L57.8,96.3z M70.2,86.6
			c-0.4,0.9-1.1,1.6-1.9,2l-0.5,0.3l1.8,3.4l-1.9,1l-4.8-8.9l2.2-1.2c0.9-0.6,1.9-0.8,3-0.7c0.9,0.2,1.6,0.8,2,1.6
			C70.5,84.8,70.6,85.8,70.2,86.6L70.2,86.6z M82.8,81.7L81,80.9l-2.4,2.4l0.9,1.7l-1.4,1.4l-4-8.5l1.5-1.5l8.6,3.7L82.8,81.7z
			 M89.5,42.5C89.9,64.9,72,83.3,49.6,83.7S8.8,66.2,8.5,43.8c0-0.4,0-0.8,0-1.3V30.1l0,0v-5l13.1-5.9c0.4-0.2,0.9-0.3,1.4-0.3
			c0.5,0,0.9,0,1.4,0.2l9.2,3.1c0.3,0.1,0.7,0.2,1.1,0.1c0.3-0.1,0.6-0.2,0.9-0.4l7.5-5.7c0.6-0.4,1.2-0.6,1.9-0.7
			c0.7-0.1,1.4,0,2,0.3l2.7,1.2c0.3,0.1,0.6,0.2,0.9,0.1c0.4,0,0.7-0.2,1-0.4l6-4.7c0.8-0.5,1.6-0.7,2.5-0.8c0.8,0,1.5,0.2,2.2,0.7
			l9.1,6.6c0.3,0.2,0.6,0.3,1,0.4c0.3,0,0.7-0.1,1-0.2l3-1.6c0.6-0.3,1.2-0.4,1.8-0.4c0.6,0,1.3,0.2,1.9,0.5l9.5,4.9v8l0,0
			L89.5,42.5z"/>
		<polygon class="st0" points="33.1,58 33.2,58.5 32.4,58.1 32.4,58.1 31,57.3 29.6,58.1 29.6,58.1 28.9,58.5 29,58 29.3,56.1 
			27.6,54.4 30,54 30.5,52.9 31,51.9 31.5,52.9 32.1,54 34.5,54.4 32.7,56.1 		"/>
		<polygon class="st0" points="42.1,58 42.1,58.5 41.4,58.1 41.4,58.1 40,57.3 38.6,58.1 38.6,58.1 37.9,58.5 38,58 38.3,56.1 
			36.5,54.4 38.9,54 39.5,52.9 40,51.9 40.5,52.9 41.1,54 43.5,54.4 41.7,56.1 		"/>
		<polygon class="st0" points="51,58 51.1,58.5 50.4,58.1 50.4,58.1 49,57.3 47.6,58.1 47.6,58.1 46.9,58.5 46.9,58 47.3,56.1 
			45.5,54.4 47.9,54 48.5,52.9 49,51.9 49.5,52.9 50.1,54 52.4,54.4 50.7,56.1 		"/>
		<polygon class="st0" points="60,58 60.1,58.5 59.4,58.1 59.4,58.1 58,57.3 56.6,58.1 56.6,58.1 55.8,58.5 55.9,58 56.3,56.1 
			54.5,54.4 56.9,54 57.5,52.9 58,51.9 58.5,52.9 59,54 61.4,54.4 59.7,56.1 		"/>
		<polygon class="st0" points="69,58 69.1,58.5 68.4,58.1 68.4,58.1 67,57.3 65.6,58.1 65.6,58.1 64.8,58.5 64.9,58 65.2,56.1 
			63.5,54.4 65.9,54 66.5,52.9 67,51.9 67.5,52.9 68,54 70.4,54.4 68.7,56.1 		"/>
	</g>
</g>
</svg>
