<?xml version="1.0" encoding="utf-8"?>
<!-- Generator: Adobe Illustrator 24.2.3, SVG Export Plug-In . SVG Version: 6.00 Build 0)  -->
<svg version="1.1" id="Capa_1" xmlns="http://www.w3.org/2000/svg" xmlns:xlink="http://www.w3.org/1999/xlink" x="0px" y="0px"
	 viewBox="0 0 6.74 8.92" style="enable-background:new 0 0 6.74 8.92;" xml:space="preserve">
<style type="text/css">
	.st0{fill:#00173A;}
</style>
<g id="Grupo_520" transform="translate(-100 -380)">
	<path id="Trazado_256" class="st0" d="M106.17,380h-5.6c-0.31,0-0.57,0.26-0.57,0.57v7.78c0,0.31,0.25,0.57,0.57,0.57h5.6
		c0.31,0,0.57-0.25,0.57-0.57v-7.78C106.73,380.25,106.48,380,106.17,380z M106.37,388.35c0,0.11-0.09,0.2-0.2,0.2h-5.6
		c-0.11,0-0.2-0.09-0.2-0.2v-7.78c0-0.11,0.09-0.2,0.2-0.2h5.6c0.11,0,0.2,0.09,0.2,0.2V388.35z"/>
	<path id="Trazado_257" class="st0" d="M105.45,381h-4.19c-0.24,0-0.43,0.19-0.43,0.43v0.73c0,0.24,0.19,0.43,0.43,0.43h4.19
		c0.24,0,0.43-0.19,0.43-0.43v-0.73C105.87,381.19,105.68,381,105.45,381z M105.51,382.15c0,0.03-0.03,0.06-0.06,0.06h-4.19
		c-0.03,0-0.06-0.03-0.06-0.06v-0.73c0-0.03,0.03-0.06,0.06-0.06h4.19c0.03,0,0.06,0.03,0.06,0.06L105.51,382.15z"/>
	<path id="Trazado_258" class="st0" d="M105.5,383.25h-4.31c-0.1,0-0.18,0.08-0.18,0.18v2.87c0,0,0,0,0,0v1.44
		c0,0.1,0.08,0.18,0.18,0.18h4.31c0.1,0,0.18-0.08,0.18-0.18v-4.31C105.69,383.33,105.6,383.25,105.5,383.25
		C105.5,383.25,105.5,383.25,105.5,383.25z M105.32,384.68h-1.07v-1.07h1.07V384.68z M101.38,385.05h1.07v1.07h-1.07V385.05z
		 M102.81,383.62h1.07v1.07h-1.07L102.81,383.62z M102.81,386.12v-1.07h1.07v1.07H102.81z M101.38,383.62h1.07v1.07h-1.07V383.62z
		 M101.38,386.49h1.07v1.07h-1.07V386.49z M102.82,386.49h1.07v1.07h-1.07L102.82,386.49z M105.32,387.56h-1.07v-1.25
		c0,0,0,0,0-0.01v-1.25h1.07L105.32,387.56z"/>
</g>
</svg>
