<?xml version="1.0" encoding="utf-8"?>
<!-- Generator: Adobe Illustrator 24.2.3, SVG Export Plug-In . SVG Version: 6.00 Build 0)  -->
<svg version="1.1" id="Capa_1" xmlns="http://www.w3.org/2000/svg" xmlns:xlink="http://www.w3.org/1999/xlink" x="0px" y="0px"
	 viewBox="0 0 6.74 8.83" style="enable-background:new 0 0 6.74 8.83;" xml:space="preserve">
<style type="text/css">
	.st0{fill:#00173A;}
</style>
<g id="Trazado_269">
	<path class="st0" d="M3.37,8.81L3.2,8.63C3.07,8.49,0,5.17,0,3.37C0,1.51,1.51,0,3.37,0s3.37,1.51,3.37,3.37
		c0,1.8-3.07,5.12-3.2,5.27L3.37,8.81z M3.37,0.46c-1.6,0-2.91,1.3-2.91,2.91c0,1.4,2.26,4.04,2.91,4.77
		c0.64-0.72,2.91-3.37,2.91-4.77C6.28,1.76,4.97,0.46,3.37,0.46z M3.37,4.69c-0.81,0-1.47-0.66-1.47-1.47s0.66-1.47,1.47-1.47
		S4.84,2.4,4.84,3.22S4.18,4.69,3.37,4.69z M3.37,2.2c-0.56,0-1.01,0.45-1.01,1.01s0.45,1.01,1.01,1.01s1.01-0.45,1.01-1.01
		S3.93,2.2,3.37,2.2z"/>
</g>
</svg>
