<?xml version="1.0" encoding="utf-8"?>
<!-- Generator: Adobe Illustrator 24.2.3, SVG Export Plug-In . SVG Version: 6.00 Build 0)  -->
<svg version="1.1" id="Capa_1" xmlns="http://www.w3.org/2000/svg" xmlns:xlink="http://www.w3.org/1999/xlink" x="0px" y="0px"
	 viewBox="0 0 11.74 7.78" style="enable-background:new 0 0 11.74 7.78;" xml:space="preserve">
<style type="text/css">
	.st0{fill:#ffffff;}
</style>
<g id="Grupo_508" transform="translate(-268.005 -307.622)">
	<g id="Grupo_363" transform="translate(268.013 314.477)">
		<g id="Grupo_361" transform="translate(0)">
			<g id="Grupo_360">
				<path id="Trazado_485" class="st0" d="M9.03-1.85c-0.06,0.01-0.12,0-0.17-0.03l-1.52-0.8C7.3-2.7,7.25-2.71,7.2-2.71
					c-0.05,0-0.09,0.01-0.14,0.03L6.79-2.53C6.75-2.51,6.71-2.5,6.67-2.5c-0.05,0-0.1-0.02-0.15-0.05L5.68-3.16
					C5.63-3.2,5.57-3.21,5.51-3.21h0c-0.06,0-0.12,0.02-0.18,0.06L4.76-2.72C4.73-2.7,4.69-2.68,4.65-2.68c-0.04,0-0.08,0-0.12-0.02
					L4.27-2.8c-0.05-0.02-0.1-0.03-0.15-0.02c-0.05,0.01-0.1,0.03-0.14,0.06L3.28-2.23c-0.03,0.02-0.07,0.04-0.1,0.05
					c-0.04,0.01-0.09,0-0.13-0.01L2.19-2.48C2.15-2.5,2.12-2.5,2.08-2.5c-0.04,0-0.07,0.01-0.11,0.02L0-1.59v-0.12l1.93-0.86
					c0.05-0.02,0.1-0.03,0.15-0.03c0.05,0,0.1,0.01,0.15,0.02L3.09-2.3c0.02,0.01,0.05,0.01,0.07,0.01c0.02,0,0.04-0.01,0.06-0.02
					l0.69-0.53C3.97-2.89,4.03-2.92,4.1-2.93c0.07-0.01,0.15,0,0.21,0.03l0.25,0.1C4.59-2.79,4.6-2.79,4.62-2.79h0.01
					c0.02,0,0.04-0.01,0.06-0.02l0.57-0.43c0.07-0.05,0.16-0.08,0.25-0.09c0.08,0,0.17,0.03,0.24,0.08l0.85,0.61
					c0.02,0.02,0.05,0.03,0.08,0.03c0.02,0,0.04-0.01,0.06-0.02l0.28-0.15c0.06-0.03,0.12-0.05,0.19-0.05
					c0.07,0,0.13,0.02,0.19,0.05l1.52,0.8C8.94-1.96,8.97-1.96,9-1.96C9.01-1.94,9.03-1.87,9.03-1.85z"/>
			</g>
		</g>
		<g id="Grupo_362" transform="translate(0.009 4.877)">
			<path id="Trazado_486" class="st0" d="M1.49-4.17v0.22C1.12-3.94,0.76-4.03,0.43-4.21C0.09-4.33-0.09-4.7,0.03-5.04
				c0.07-0.19,0.21-0.34,0.4-0.4C0.76-5.62,1.12-5.71,1.49-5.7v0.22C1.22-5.49,0.96-5.42,0.73-5.29C0.48-5.19,0.35-4.9,0.45-4.65
				C0.5-4.52,0.61-4.42,0.73-4.37C0.96-4.23,1.22-4.17,1.49-4.17z"/>
			<path id="Trazado_487" class="st0" d="M3.92-4.17v0.22C3.55-3.94,3.18-4.03,2.86-4.21C2.52-4.33,2.34-4.7,2.46-5.04
				c0.07-0.19,0.21-0.34,0.4-0.4C3.18-5.62,3.55-5.71,3.92-5.7v0.22C3.65-5.49,3.39-5.42,3.16-5.29C2.91-5.19,2.78-4.9,2.88-4.65
				c0.05,0.13,0.15,0.23,0.28,0.28C3.39-4.23,3.65-4.17,3.92-4.17z"/>
			<path id="Trazado_488" class="st0" d="M5.2-5.7h0.43v1.74H5.2V-5.7z"/>
			<path id="Trazado_489" class="st0" d="M7.9-5.26L8.54-5.7h0.43v1.74H8.54v-1.41L7.9-4.93L7.26-5.37v1.41H6.83V-5.7h0.43L7.9-5.26
				z"/>
			<path id="Trazado_490" class="st0" d="M11.48-5.37v0.76h0.21v0.22h-0.21v0.44h-0.43v-0.44h-0.43v0.44H10.2v-0.44H9.99v-0.22h0.21
				v-0.76c0-0.09,0.06-0.17,0.19-0.23c0.29-0.13,0.62-0.13,0.91,0C11.42-5.54,11.48-5.46,11.48-5.37z M10.63-5.37v0.76h0.43v-0.76
				c0-0.03-0.02-0.06-0.06-0.08c-0.1-0.04-0.21-0.04-0.3,0C10.65-5.42,10.63-5.4,10.63-5.37z"/>
		</g>
	</g>
	<path id="Trazado_508" class="st0" d="M279.74,313.1l-1.32-0.88l-0.55,0.16c-0.86-3.03-4.02-4.79-7.06-3.93
		c-0.92,0.26-1.77,0.75-2.45,1.43c0,0-0.01,0.01-0.01,0.01c0,0-0.01,0-0.02,0c-0.02,0-0.03-0.01-0.03-0.03c0,0,0-0.01,0-0.01
		c0.01-0.01,0.01-0.01,0.02-0.02l0,0c2.42-2.72,6.58-2.96,9.3-0.54c0.81,0.72,1.42,1.62,1.8,2.63
		C279.57,312.3,279.67,312.7,279.74,313.1z"/>
	<path id="Trazado_509" class="st0" d="M277.78,312.41l-0.73,0.22c-0.9-2.85-3.95-4.43-6.8-3.53c-0.83,0.26-1.59,0.72-2.2,1.34l0,0
		c0,0-0.01,0.01-0.01,0.01c-0.01,0-0.02-0.01-0.02-0.02c0,0,0-0.01,0-0.01l0,0c0,0,0-0.01,0.01-0.01c1.96-2.41,5.49-2.78,7.9-0.82
		C276.81,310.31,277.46,311.3,277.78,312.41z"/>
</g>
</svg>
