<?xml version="1.0" encoding="utf-8"?>
<!-- Generator: Adobe Illustrator 24.2.3, SVG Export Plug-In . SVG Version: 6.00 Build 0)  -->
<svg version="1.1" id="Capa_1" xmlns="http://www.w3.org/2000/svg" xmlns:xlink="http://www.w3.org/1999/xlink" x="0px" y="0px"
	 viewBox="0 0 196.1 21.7" style="enable-background:new 0 0 196.1 21.7;" xml:space="preserve">
<style type="text/css">
	.st0{fill:#FFFFFF;}
</style>
<g>
	<path id="Trazado_97" class="st0" d="M93.8,5.7l7.5-5.1h5v20.5h-5V4.4l-7.5,5.1l-7.5-5.1v16.6h-5V0.6h5L93.8,5.7z"/>
	<g id="Grupo_189">
		<path id="Trazado_186" class="st0" d="M172.8,0.6h5v20.5h-5V0.6z"/>
		<g id="Grupo_188">
			<path id="Trazado_94" class="st0" d="M18.3,18.5v2.6c-4.3,0.1-8.6-0.9-12.4-3c-3.4-2-5.2-4.4-5.2-7.2s1.7-5.2,5.2-7.2
				c3.8-2.1,8.1-3.1,12.4-3v2.6c-3.1-0.1-6.2,0.7-8.9,2.2c-2.5,1.5-3.7,3.3-3.7,5.4c0,2.1,1.2,3.9,3.7,5.4
				C12.1,17.8,15.2,18.6,18.3,18.5z"/>
			<path id="Trazado_95" class="st0" d="M46.9,18.5v2.6c-4.3,0.1-8.6-0.9-12.4-3c-3.4-2-5.2-4.4-5.2-7.2s1.7-5.2,5.2-7.2
				c3.8-2.1,8.1-3.1,12.4-3v2.6c-3.1-0.1-6.2,0.7-8.9,2.2c-2.5,1.5-3.7,3.3-3.7,5.4c0,2.1,1.2,3.9,3.7,5.4
				C40.7,17.8,43.8,18.6,46.9,18.5z"/>
			<path id="Trazado_96" class="st0" d="M62,0.6h5v20.5h-5V0.6z"/>
			<path id="Trazado_98" class="st0" d="M135.8,4.4v9h2.5V16h-2.5v5.1h-5V16h-5v5.1h-5V16h-2.5v-2.6h2.5v-9c0-1.1,0.7-2,2.2-2.7
				c3.4-1.5,7.3-1.5,10.7,0C135.1,2.5,135.8,3.4,135.8,4.4z M125.8,4.4v9h5v-9c0-0.3-0.2-0.6-0.7-0.9c-1.1-0.5-2.4-0.5-3.5,0
				C126,3.8,125.8,4.1,125.8,4.4z"/>
			<path id="Trazado_187" class="st0" d="M177.8,3.2V0.6c4.3-0.1,8.6,0.9,12.4,3c3.4,2,5.2,4.4,5.2,7.2s-1.7,5.2-5.2,7.2
				c-3.8,2.1-8.1,3.1-12.4,3v-2.6c3.1,0.1,6.2-0.7,8.9-2.2c2.5-1.5,3.7-3.3,3.7-5.4s-1.2-3.9-3.7-5.4C184,3.8,180.9,3.1,177.8,3.2z"
				/>
			<path id="Trazado_188" class="st0" d="M163.3,0.6h5v20.5h-5V0.6z"/>
		</g>
	</g>
</g>
</svg>
