<?xml version="1.0" encoding="utf-8"?>
<!-- Generator: Adobe Illustrator 24.2.3, SVG Export Plug-In . SVG Version: 6.00 Build 0)  -->
<svg version="1.1" id="Capa_1" xmlns="http://www.w3.org/2000/svg" xmlns:xlink="http://www.w3.org/1999/xlink" x="0px" y="0px"
	 viewBox="0 0 69 22" style="enable-background:new 0 0 69 22;" xml:space="preserve">
<style type="text/css">
	.st0{fill:#ffffff;}
</style>
<g id="Grupo_382" transform="translate(-426.325 -270.236)">
	<g id="Grupo_31" transform="translate(426.325 270.236)">
		<path id="Trazado_85" class="st0" d="M21.9,6.5l-3.5,9L15.9,22h-3.3l-1.9-6.5l-2.7-9L7.4,4.8L6.8,6.5l-3.5,9H0l3.5-9L6,0v0h3.3
			l1.9,6.5l2.7,9l0.5,1.7l0.7-1.7l3.5-9H21.9z"/>
		<g id="Grupo_30" transform="translate(20.841 6.462)">
			<g id="Grupo_29">
				<path id="Trazado_86" class="st0" d="M16.8,0h5.5v1.4h-3.6v2.3h2.8v1.4h-2.8v2.4h4V9h-5.8L16.8,0z"/>
				<path id="Trazado_87" class="st0" d="M25.8,1.4h-2.6V0h7v1.4h-2.6V9h-1.9L25.8,1.4z"/>
				<path id="Trazado_88" class="st0" d="M31.5,0H37v1.4h-3.6v2.3h2.8v1.4h-2.8v2.4h4V9h-5.8L31.5,0z"/>
				<path id="Trazado_89" class="st0" d="M38.3,4.5c0-0.6,0.1-1.3,0.3-1.9c0.2-0.5,0.5-1,0.9-1.4c0.8-0.8,2-1.2,3.1-1.2
					c0.7,0,1.3,0.1,2,0.2c0.1,0,0.3,0.1,0.4,0.1L44.9,2c-0.2-0.1-0.4-0.2-0.7-0.3c-0.4-0.1-0.8-0.2-1.3-0.2c-0.4,0-0.8,0.1-1.1,0.2
					C41.5,1.8,41.2,2,41,2.3c-0.5,0.6-0.8,1.4-0.7,2.2c0,0.8,0.2,1.6,0.7,2.3c0.5,0.6,1.2,0.9,2,0.9c0.6,0,1.2-0.1,1.7-0.4
					c0.1,0,0.2-0.1,0.3-0.2l0,1.5c-0.4,0.2-0.9,0.3-1.4,0.4c-0.3,0-0.6,0.1-0.9,0.1c-1.2,0.1-2.4-0.4-3.3-1.2
					C38.7,6.9,38.3,5.7,38.3,4.5z"/>
				<path id="Trazado_90" class="st0" d="M7.1,0h2l1.7,4.9l0.5,1.7l0.5-1.7L13.4,0h2l-3.3,9h-1.6L7.1,0z"/>
				<path id="Trazado_91" class="st0" d="M8.2,9h-2L4.5,4.1L4.1,2.4L3.6,4.1L2,9H0l3.3-9h1.6L8.2,9z"/>
			</g>
		</g>
	</g>
	<g id="Grupo_33" transform="translate(493.321 284.064)">
		<g id="Grupo_32" transform="translate(0.501 0.297)">
			<path id="Trazado_92" class="st0" d="M0.3,0c0.1,0,0.2,0,0.3,0.1c0.1,0.1,0.1,0.1,0.1,0.2c0,0.1,0,0.2-0.1,0.3c0,0-0.1,0-0.1,0
				l0.3,0.5H0.5L0.2,0.6h0v0.4H0V0L0.3,0z M0.2,0.5L0.2,0.5c0.1,0,0.3,0,0.3-0.2S0.3,0.2,0.3,0.2H0.2L0.2,0.5z"/>
		</g>
		<path id="Trazado_93" class="st0" d="M0.8,1.7C0.4,1.7,0,1.3,0,0.8S0.4,0,0.8,0s0.8,0.4,0.8,0.8S1.3,1.7,0.8,1.7L0.8,1.7z
			 M0.8,0.1c-0.4,0-0.7,0.3-0.7,0.7s0.3,0.7,0.7,0.7c0.4,0,0.7-0.3,0.7-0.7v0C1.5,0.5,1.2,0.1,0.8,0.1L0.8,0.1z"/>
	</g>
</g>
</svg>
