<?xml version="1.0" encoding="utf-8"?>
<!-- Generator: Adobe Illustrator 24.2.3, SVG Export Plug-In . SVG Version: 6.00 Build 0)  -->
<svg version="1.1" id="Capa_1" xmlns="http://www.w3.org/2000/svg" xmlns:xlink="http://www.w3.org/1999/xlink" x="0px" y="0px"
	 viewBox="0 0 108 24" style="enable-background:new 0 0 108 24;" xml:space="preserve">
<style type="text/css">
	.st0{fill:#FFFFFF;}
</style>
<g id="Grupo_383" transform="translate(-64.26 -645.98)">
	<g id="Grupo_80" transform="translate(64.26 645.98)">
		<g id="Grupo_76" transform="translate(4.297 3.476)">
			<path id="Trazado_200" class="st0" d="M7.5,0l11.8,11.8L11,20.1l-3.2-3.2l0.5-0.5l2.6,2.6l0.1,0.1l0.1-0.1l7.1-7.1l0.1-0.1
				l-0.1-0.1L7.6,1.1L7.5,1L7.4,1.1L0.5,8L0,7.5L7.5,0"/>
		</g>
		<g id="Grupo_77" transform="translate(0 12.061)">
			<path id="Trazado_201" class="st0" d="M3.2,0l0.5,0.5L1.1,3.1L1,3.2l0.1,0.1l7.1,7.1l0.1,0.1l0.1-0.1L18.8,0l0.5,0.5l-11,11
				L0,3.2L3.2,0z"/>
		</g>
		<g id="Grupo_78" transform="translate(1.774)">
			<path id="Trazado_202" class="st0" d="M10,0l10,10l-1.4,1.4L18.1,11l0.8-0.8l0.1-0.1L19,9.9l-8.9-8.9L10,1L9.9,1.1L1.1,9.9L1,10
				l0.1,0.1l8.6,8.7l-0.5,0.5L0,10L10,0"/>
		</g>
		<g id="Grupo_79" transform="translate(10.461 6.976)">
			<path id="Trazado_203" class="st0" d="M1.3,0l1.3,1.3L1.3,2.7L0,1.3L1.3,0"/>
		</g>
	</g>
	<g id="Grupo_82" transform="translate(92.929 652.432)">
		<g id="Grupo_81" transform="translate(0 0)">
			<path id="Trazado_204" class="st0" d="M0,0.4L0,0.4l2.2-0.1c0.3,0,0.7,0,1,0.1c0.3,0.1,0.5,0.2,0.7,0.4c0.4,0.3,0.6,0.8,0.6,1.3
				c0,0.2,0,0.5-0.1,0.7C4.2,3,4,3.2,3.8,3.4C3.6,3.6,3.4,3.7,3.1,3.8c-0.3,0.1-0.7,0.2-1,0.1c-0.1,0-0.4,0-0.7-0.1v2.3
				c0,0.4,0.2,0.7,0.6,0.7c0.1,0,0.1,0,0.2,0V7H0V6.9c0.2,0,0.4-0.1,0.5-0.2c0.1-0.1,0.2-0.3,0.2-0.6v-5c0-0.1,0-0.3-0.1-0.4
				c0-0.1-0.1-0.2-0.2-0.2c-0.1,0-0.1-0.1-0.2-0.1C0.2,0.4,0.1,0.4,0,0.4L0,0.4z M1.4,0.6v3.1c0.2,0,0.5,0.1,0.7,0.1
				c0.4,0,0.8-0.1,1.1-0.3c0.3-0.3,0.5-0.8,0.4-1.2c0-0.4-0.1-0.9-0.4-1.2C2.9,0.6,2.5,0.5,2,0.5C1.8,0.5,1.6,0.5,1.4,0.6L1.4,0.6z"
				/>
			<path id="Trazado_205" class="st0" d="M12.4,3.6c0,0.6-0.2,1.2-0.5,1.7c-0.3,0.5-0.7,1-1.3,1.3C10.1,7,9.5,7.1,8.9,7.1
				C7,7.1,5.4,5.6,5.4,3.7c0,0,0,0,0,0c0-0.9,0.4-1.8,1.1-2.5c0.3-0.3,0.7-0.6,1.1-0.7c0.8-0.3,1.8-0.3,2.6,0
				c0.4,0.2,0.8,0.4,1.1,0.7c0.3,0.3,0.6,0.7,0.8,1.1C12.3,2.7,12.4,3.2,12.4,3.6z M11.6,3.7c0-0.7-0.1-1.4-0.5-2.1
				c-0.2-0.4-0.6-0.8-1.1-1C9.7,0.4,9.3,0.4,8.9,0.3c-0.3,0-0.6,0-0.9,0.1C7.7,0.6,7.4,0.8,7.1,1C6.8,1.3,6.6,1.6,6.4,2
				C6.3,2.5,6.2,3.1,6.2,3.6c0,0.5,0.1,1,0.2,1.5c0.1,0.4,0.3,0.7,0.6,1c0.2,0.3,0.5,0.5,0.9,0.6C8.5,7,9.2,7,9.8,6.8
				c0.3-0.1,0.6-0.3,0.9-0.5c0.3-0.3,0.5-0.6,0.6-1C11.5,4.7,11.6,4.2,11.6,3.7L11.6,3.7z"/>
			<path id="Trazado_206" class="st0" d="M13.5,0.4L13.5,0.4L13.5,0.4l2.2-0.1c0.3,0,0.6,0,0.9,0.2c0.2,0.1,0.4,0.2,0.6,0.4
				c0.1,0.2,0.2,0.4,0.3,0.6c0.1,0.2,0.1,0.4,0.1,0.6c0,0.2-0.1,0.5-0.1,0.7c-0.1,0.2-0.3,0.4-0.5,0.6c-0.2,0.2-0.5,0.3-0.8,0.3v0
				c0.5,0.3,0.9,0.7,1.1,1.1l0.6,1c0.2,0.3,0.4,0.6,0.6,0.9c0.1,0.1,0.3,0.2,0.5,0.2V7h-1.2c-0.1-0.1-0.1-0.1-0.1-0.2l-0.1-0.2
				l-0.1-0.2c0-0.1-0.1-0.1-0.1-0.2l-0.8-1.3c-0.1-0.2-0.3-0.5-0.5-0.7C16,4.1,15.8,4,15.6,3.9c-0.1-0.1-0.3-0.1-0.4-0.1
				c-0.1,0-0.3,0-0.4,0v2.4c0,0.4,0.2,0.7,0.6,0.7c0.1,0,0.1,0,0.2,0V7h-2.1V6.9c0.1,0,0.2,0,0.4-0.1c0.1,0,0.2-0.1,0.3-0.2
				c0.1-0.1,0.1-0.3,0.1-0.4v-5c0-0.2,0-0.4-0.2-0.6C13.8,0.5,13.7,0.4,13.5,0.4z M14.8,3.6h0.4c0.3,0,0.7,0,1-0.2
				c0.2-0.1,0.4-0.3,0.6-0.5c0.1-0.2,0.2-0.5,0.2-0.8c0-0.3-0.1-0.5-0.2-0.7c-0.1-0.3-0.3-0.5-0.5-0.6c-0.3-0.2-0.6-0.3-1-0.3
				c-0.1,0-0.3,0-0.4,0L14.8,3.6z"/>
			<path id="Trazado_207" class="st0" d="M28.4,0c-0.2,0.2-0.4,0.3-0.7,0.3h-7.9c-0.1,0-0.2,0-0.3,0c-0.1,0-0.1,0-0.2-0.1
				c-0.1,0-0.1-0.1-0.1-0.1c0-0.1-0.1-0.1-0.1-0.2H19v1.6h0.1c0-0.3,0.1-0.6,0.4-0.8c0.2-0.1,0.5-0.2,0.8-0.2h1.3v5.6
				c0,0.2-0.1,0.4-0.2,0.6c-0.1,0.1-0.3,0.2-0.5,0.2V7H23V6.9c-0.4,0-0.7-0.2-0.7-0.6c0-0.1,0-0.1,0-0.2V0.6h2.9v5.6
				c0,0.2-0.1,0.4-0.2,0.6c-0.1,0.1-0.3,0.2-0.5,0.2V7h2.1V6.9c-0.4,0-0.7-0.2-0.7-0.6c0-0.1,0-0.1,0-0.2V0.6h1.3
				c0.3,0,0.6,0.1,0.8,0.2c0.3,0.2,0.4,0.5,0.4,0.8h0.1L28.4,0L28.4,0z"/>
			<path id="Trazado_208" class="st0" d="M36.1,3.6c0,0.6-0.2,1.2-0.5,1.7c-0.3,0.5-0.7,1-1.3,1.3c-0.5,0.3-1.1,0.5-1.8,0.5
				c-1.9,0-3.5-1.5-3.5-3.5c0,0,0,0,0,0c0-0.9,0.4-1.8,1.1-2.5c0.3-0.3,0.7-0.6,1.1-0.7c0.8-0.3,1.8-0.3,2.6,0
				c0.4,0.2,0.8,0.4,1.1,0.7c0.3,0.3,0.6,0.7,0.8,1.1C36,2.7,36.1,3.2,36.1,3.6z M35.3,3.7c0-0.7-0.1-1.4-0.5-2.1
				c-0.2-0.4-0.6-0.8-1.1-1c-0.4-0.2-0.8-0.2-1.2-0.3c-0.3,0-0.6,0-0.9,0.1c-0.3,0.1-0.6,0.3-0.9,0.5c-0.3,0.3-0.6,0.6-0.7,1
				c-0.2,0.5-0.3,1.1-0.3,1.6c0,0.5,0.1,1,0.2,1.5c0.1,0.4,0.3,0.7,0.6,1c0.2,0.3,0.5,0.5,0.9,0.6C32.3,7,33,7,33.6,6.8
				c0.3-0.1,0.6-0.3,0.9-0.5c0.3-0.3,0.5-0.6,0.6-1C35.3,4.7,35.3,4.2,35.3,3.7L35.3,3.7z"/>
			<path id="Trazado_209" class="st0" d="M43,7h-2.5V6.9h0.1c0.2,0,0.3-0.1,0.4-0.2c0.1-0.2,0.2-0.3,0.2-0.5v-5c0-0.2,0-0.4-0.2-0.6
				c-0.1-0.1-0.3-0.2-0.5-0.2h-0.1V0.3h2.2c0.3,0,0.5,0,0.8,0.1c0.2,0.1,0.4,0.2,0.6,0.3c0.2,0.1,0.3,0.3,0.4,0.5
				c0.1,0.2,0.1,0.4,0.1,0.6c0,0.4-0.1,0.7-0.4,1c-0.3,0.3-0.7,0.5-1,0.5v0c0.2,0,0.4,0.1,0.6,0.1c0.2,0,0.3,0.1,0.5,0.2
				c0.2,0.1,0.3,0.2,0.4,0.3c0.1,0.1,0.2,0.2,0.3,0.4c0.1,0.1,0.1,0.3,0.2,0.4c0,0.2,0.1,0.3,0.1,0.5c0,0.3-0.1,0.6-0.3,0.9
				c-0.2,0.2-0.4,0.4-0.6,0.6C43.9,6.9,43.5,7,43,7z M41.9,3.4h0.4c0.3,0,0.5,0,0.8-0.1c0.1-0.1,0.2-0.1,0.3-0.2
				c0.1-0.1,0.2-0.2,0.3-0.4c0.1-0.2,0.1-0.4,0.1-0.7c0-0.2,0-0.4-0.1-0.6c-0.1-0.2-0.2-0.3-0.3-0.5c-0.1-0.1-0.3-0.2-0.4-0.3
				c-0.2-0.1-0.4-0.1-0.5-0.1c-0.2,0-0.4,0-0.6,0.1L41.9,3.4z M42.6,3.6h-0.7V6c0,0.1,0,0.3,0,0.4c0,0.1,0.1,0.2,0.3,0.3
				c0.2,0.1,0.4,0.1,0.7,0.1c0.5,0,1-0.2,1.3-0.6c0.3-0.5,0.3-1.1,0.1-1.6c-0.1-0.2-0.2-0.4-0.4-0.5c-0.2-0.1-0.4-0.3-0.6-0.3
				C43.1,3.6,42.9,3.6,42.6,3.6L42.6,3.6z"/>
			<path id="Trazado_210" class="st0" d="M46.1,6.9L46.1,6.9c0.3,0,0.4-0.1,0.5-0.2c0.1-0.1,0.2-0.3,0.2-0.5v-5
				c0-0.2-0.1-0.4-0.2-0.6c-0.1-0.1-0.3-0.2-0.5-0.2V0.3h2.1v0.1c-0.2,0-0.4,0.1-0.5,0.2c-0.2,0.1-0.2,0.4-0.2,0.6V6
				c0,0.2,0.1,0.4,0.2,0.6c0.2,0.1,0.5,0.2,0.7,0.2H49c0.2,0,0.4,0,0.6-0.1c0.1-0.1,0.3-0.1,0.4-0.3c0.1-0.2,0.2-0.3,0.3-0.5h0.1
				L50,7L46.1,6.9L46.1,6.9z"/>
			<path id="Trazado_211" class="st0" d="M54,0.2l2,5.7c0.1,0.2,0.2,0.4,0.3,0.6c0.1,0.1,0.2,0.2,0.3,0.3c0.1,0,0.2,0.1,0.3,0.1V7
				h-2.2V6.9c0.2,0,0.3,0,0.5-0.1c0.1,0,0.2-0.2,0.2-0.3c0-0.1,0-0.3-0.1-0.4c0,0,0,0,0-0.1l-0.6-1.8h-2.3l-0.5,1.6
				c-0.1,0.2-0.1,0.4-0.1,0.5c0,0.1,0,0.3,0.1,0.4c0.1,0.1,0.3,0.1,0.4,0.1V7h-1.6V6.9c0.2,0,0.4-0.1,0.5-0.3
				c0.2-0.2,0.3-0.4,0.3-0.7l1.9-5.7H54z M52.5,4h2.1l-1.1-3.1h0L52.5,4z"/>
			<path id="Trazado_212" class="st0" d="M64.4,0.3L64.4,0.3c-0.1,0.1-0.3,0.1-0.4,0.2c-0.1,0.1-0.2,0.1-0.2,0.3
				c-0.1,0.2-0.1,0.4-0.1,0.6v5.8h0l-5.1-5.7v4.1c0,0.3,0,0.5,0,0.8c0,0.1,0.1,0.2,0.1,0.4c0.1,0.2,0.4,0.3,0.6,0.3V7h-1.7V6.9
				c0.2,0,0.3,0,0.4-0.1c0.1-0.1,0.2-0.2,0.2-0.4c0.1-0.3,0.1-0.6,0.1-0.8V1.2L58.1,1c-0.1-0.2-0.3-0.3-0.5-0.4
				c-0.1-0.1-0.3-0.1-0.4-0.1V0.3h1.3l5,5.6V1.7c0-0.2,0-0.5,0-0.7c0-0.1-0.1-0.3-0.2-0.4c-0.1-0.1-0.3-0.2-0.5-0.2V0.3L64.4,0.3z"
				/>
			<path id="Trazado_213" class="st0" d="M71.3,1.8L71.3,1.8C71.1,1.5,71,1.2,70.7,1c-0.2-0.2-0.5-0.4-0.9-0.5
				c-0.3-0.1-0.6-0.2-0.9-0.2c-0.4,0-0.7,0.1-1.1,0.2C67.6,0.7,67.3,1,67,1.3c-0.3,0.3-0.4,0.7-0.6,1.1c-0.1,0.4-0.2,0.9-0.2,1.3
				c0,0.4,0.1,0.9,0.2,1.3c0.1,0.4,0.3,0.7,0.6,1c0.2,0.3,0.5,0.5,0.9,0.7c0.3,0.2,0.7,0.2,1.1,0.2c0.4,0,0.8-0.1,1.1-0.2
				c0.4-0.1,0.8-0.4,1.1-0.7v0.3c-0.3,0.3-0.7,0.5-1.1,0.7c-0.4,0.2-0.8,0.2-1.2,0.2c-0.5,0-1-0.1-1.4-0.3c-0.4-0.2-0.8-0.4-1.1-0.8
				c-0.3-0.3-0.5-0.7-0.7-1.1c-0.4-1-0.3-2.1,0.2-3c0.3-0.5,0.8-1,1.3-1.3c0.5-0.3,1.1-0.5,1.8-0.5c0.4,0,0.8,0.1,1.3,0.2l0.5,0.1
				c0.1,0,0.2,0,0.2,0c0.1,0,0.2,0,0.2-0.1c0-0.1,0.1-0.1,0.1-0.2h0.1L71.3,1.8z"/>
			<path id="Trazado_214" class="st0" d="M79.3,3.6c0,0.6-0.2,1.2-0.5,1.7c-0.3,0.5-0.7,1-1.3,1.3c-0.5,0.3-1.1,0.5-1.8,0.5
				c-1.9,0-3.5-1.6-3.5-3.5c0-0.5,0.1-0.9,0.3-1.4c0.2-0.4,0.4-0.8,0.8-1.1c0.3-0.3,0.7-0.6,1.1-0.7c0.8-0.3,1.8-0.3,2.6,0
				c0.4,0.2,0.8,0.4,1.1,0.7c0.3,0.3,0.6,0.7,0.8,1.1C79.2,2.7,79.3,3.2,79.3,3.6z M78.5,3.7c0-0.7-0.1-1.4-0.5-2.1
				c-0.2-0.4-0.6-0.8-1.1-1c-0.4-0.2-0.8-0.2-1.2-0.3c-0.3,0-0.6,0-0.9,0.1c-0.3,0.1-0.6,0.3-0.9,0.5c-0.3,0.3-0.6,0.6-0.7,1
				c-0.2,0.5-0.3,1.1-0.3,1.6c0,0.5,0.1,1,0.2,1.5c0.1,0.4,0.3,0.7,0.6,1c0.2,0.3,0.5,0.5,0.9,0.6c0.6,0.2,1.3,0.2,1.9,0
				c0.3-0.1,0.6-0.3,0.9-0.5c0.3-0.3,0.5-0.6,0.6-1C78.5,4.7,78.6,4.2,78.5,3.7L78.5,3.7z"/>
		</g>
		<path id="Trazado_215" class="st0" d="M79.3,9.7H1l-1,1h78.4L79.3,9.7z"/>
	</g>
</g>
</svg>
