<svg xmlns="http://www.w3.org/2000/svg" viewBox="0 0 89.11 11.95"><defs><style>.cls-1{fill:#fff;}</style></defs><g id="Capa_2" data-name="Capa 2"><g id="Capa_1-2" data-name="Capa 1"><path class="cls-1" d="M0,.45V.37H2.44A3,3,0,0,1,3.52.54,2.29,2.29,0,0,1,4.3,1a1.8,1.8,0,0,1,.46.65,1.79,1.79,0,0,1,.16.76,1.93,1.93,0,0,1-.15.75,1.56,1.56,0,0,1-.45.64,2.09,2.09,0,0,1-.81.45,3.62,3.62,0,0,1-1.15.17c-.14,0-.4,0-.8-.06V6.91a.73.73,0,0,0,.81.82v.08H0V7.73a.84.84,0,0,0,.57-.2A.76.76,0,0,0,.8,6.91V1.28A1.1,1.1,0,0,0,.72.85.69.69,0,0,0,.53.61.74.74,0,0,0,.29.5L.1.45ZM1.56.63V4.14a4.08,4.08,0,0,0,.77.07,2,2,0,0,0,1.23-.37,1.64,1.64,0,0,0,.5-1.38A2.08,2.08,0,0,0,3.62,1.1,1.65,1.65,0,0,0,2.27.57,4.34,4.34,0,0,0,1.56.63Z"/><path class="cls-1" d="M13.91,4.1a3.8,3.8,0,0,1-.52,2A3.94,3.94,0,0,1,12,7.48,3.86,3.86,0,0,1,10,8a3.91,3.91,0,0,1-2-.53,4,4,0,0,1-1.65-5,4,4,0,0,1,.87-1.26A4.21,4.21,0,0,1,8.5.44,4,4,0,0,1,10,.15a3.79,3.79,0,0,1,1.46.28,4.16,4.16,0,0,1,1.27.81,4,4,0,0,1,.87,1.26A3.84,3.84,0,0,1,13.91,4.1Zm-.89,0a4.4,4.4,0,0,0-.52-2.33A2.69,2.69,0,0,0,11.28.67,3.41,3.41,0,0,0,10,.38,3.52,3.52,0,0,0,9,.54,2.81,2.81,0,0,0,8,1.1a3,3,0,0,0-.79,1.15,5,5,0,0,0-.3,1.84,4.93,4.93,0,0,0,.25,1.67,3.2,3.2,0,0,0,.7,1.17,2.7,2.7,0,0,0,1,.65,3,3,0,0,0,1.12.2,3.22,3.22,0,0,0,1.05-.18A2.65,2.65,0,0,0,12,7a3.23,3.23,0,0,0,.72-1.13A5,5,0,0,0,13,4.12Z"/><path class="cls-1" d="M15.21.48h-.1V.37h2.57a2.58,2.58,0,0,1,1.06.19,1.74,1.74,0,0,1,.67.49,1.9,1.9,0,0,1,.34.62,2.16,2.16,0,0,1,.11.65,1.92,1.92,0,0,1-.17.78,1.86,1.86,0,0,1-.52.64,2.12,2.12,0,0,1-.88.36v0A3,3,0,0,1,19.52,5.4l.68,1.14a3.5,3.5,0,0,0,.73,1,1,1,0,0,0,.54.22v.08H20.11L20,7.6l-.16-.22-.15-.23A.66.66,0,0,0,19.52,7L18.63,5.5a3.74,3.74,0,0,0-.54-.73,2.37,2.37,0,0,0-.53-.4,1.58,1.58,0,0,0-.43-.15,3.13,3.13,0,0,0-.46,0V6.91a.73.73,0,0,0,.81.82v.08H15.11V7.73a1,1,0,0,0,.39-.08.69.69,0,0,0,.29-.25,1,1,0,0,0,.11-.49V1.28a.75.75,0,0,0-.22-.62A.71.71,0,0,0,15.21.48ZM16.67,4h.42a2.68,2.68,0,0,0,1.1-.19,1.29,1.29,0,0,0,.62-.55A1.93,1.93,0,0,0,19,2.38a2.21,2.21,0,0,0-.17-.84,1.51,1.51,0,0,0-.59-.69A1.9,1.9,0,0,0,17.13.57a2,2,0,0,0-.46,0Z"/><path class="cls-1" d="M31.88,0a.87.87,0,0,1-.75.37H22.25l-.3,0a.77.77,0,0,1-.23-.06.56.56,0,0,1-.15-.1A1.17,1.17,0,0,1,21.43,0h-.08V1.82h.08a1.12,1.12,0,0,1,.42-.94,1.73,1.73,0,0,1,.91-.22h1.48V6.91a.77.77,0,0,1-.23.63.88.88,0,0,1-.56.19v.08h2.37V7.73A.73.73,0,0,1,25,6.91V.66H28.3V6.91a.77.77,0,0,1-.23.63.91.91,0,0,1-.57.19v.08h2.37V7.73a.73.73,0,0,1-.8-.82V.66h1.48a1.73,1.73,0,0,1,.91.22,1.12,1.12,0,0,1,.42.94H32V0Z"/><path class="cls-1" d="M40.58,4.1a3.9,3.9,0,0,1-.52,2,4.11,4.11,0,0,1-1.41,1.43,3.87,3.87,0,0,1-2,.53,4,4,0,0,1-2-.53A4,4,0,0,1,33.23,6a3.84,3.84,0,0,1-.52-2A3.78,3.78,0,0,1,33,2.53a3.65,3.65,0,0,1,.87-1.26A4.17,4.17,0,0,1,35.16.44,4,4,0,0,1,36.65.15a3.88,3.88,0,0,1,1.47.28A3.92,3.92,0,0,1,40.26,2.5,4,4,0,0,1,40.58,4.1Zm-.89,0a4.39,4.39,0,0,0-.53-2.33A2.67,2.67,0,0,0,38,.67a3.41,3.41,0,0,0-1.3-.29,3.45,3.45,0,0,0-1,.16,2.64,2.64,0,0,0-1,.56,3,3,0,0,0-.79,1.15,4.75,4.75,0,0,0-.31,1.84,4.92,4.92,0,0,0,.26,1.67,3.07,3.07,0,0,0,.7,1.17,2.7,2.7,0,0,0,1,.65,3,3,0,0,0,1.11.2,3.32,3.32,0,0,0,1.06-.18,2.62,2.62,0,0,0,1-.6,3,3,0,0,0,.72-1.13A4.76,4.76,0,0,0,39.69,4.12Z"/><path class="cls-1" d="M48.31,7.81H45.52V7.73h.1a.64.64,0,0,0,.49-.2.83.83,0,0,0,.21-.62V1.29a1,1,0,0,0-.19-.62.68.68,0,0,0-.52-.22h-.09V.37H48a2.81,2.81,0,0,1,.89.14,1.94,1.94,0,0,1,.68.38,1.79,1.79,0,0,1,.44.56,1.53,1.53,0,0,1,.15.67,1.45,1.45,0,0,1-.44,1.09,2.63,2.63,0,0,1-1.16.62v0c.22,0,.43.06.64.11a2.23,2.23,0,0,1,.55.19,2.49,2.49,0,0,1,.47.33,2.06,2.06,0,0,1,.33.4,2.18,2.18,0,0,1,.21.47,1.93,1.93,0,0,1,.07.53,1.67,1.67,0,0,1-.3,1,2.27,2.27,0,0,1-.68.64A3.23,3.23,0,0,1,48.31,7.81Zm-1.22-4h.48a2,2,0,0,0,.85-.13,1.5,1.5,0,0,0,.34-.22A1.52,1.52,0,0,0,49.09,3a1.55,1.55,0,0,0,.16-.74,1.9,1.9,0,0,0-.11-.63,1.48,1.48,0,0,0-.31-.53,1.35,1.35,0,0,0-.48-.37,1.47,1.47,0,0,0-.6-.13,2.45,2.45,0,0,0-.66.11Zm.76.22h-.76V6.7a1.4,1.4,0,0,0,0,.44.55.55,0,0,0,.29.32,1.67,1.67,0,0,0,.73.13,1.58,1.58,0,0,0,1.46-.69,2,2,0,0,0,.15-1.82,1.49,1.49,0,0,0-.41-.57,1.79,1.79,0,0,0-.65-.37A2.93,2.93,0,0,0,47.85,4Z"/><path class="cls-1" d="M51.77,7.73h.1a.66.66,0,0,0,.48-.21.84.84,0,0,0,.21-.61V1.29a.78.78,0,0,0-.23-.64,1,1,0,0,0-.56-.2V.37h2.38V.45a1,1,0,0,0-.56.19.77.77,0,0,0-.24.65V6.73a.81.81,0,0,0,.24.67,1.36,1.36,0,0,0,.8.19H55a2,2,0,0,0,.67-.1.86.86,0,0,0,.39-.31,2.9,2.9,0,0,0,.3-.59h.09L56.2,7.81H51.77Z"/><path class="cls-1" d="M60.61.28l2.23,6.38a2.76,2.76,0,0,0,.34.71.64.64,0,0,0,.3.28,1.13,1.13,0,0,0,.36.08v.08H61.41V7.73A1.79,1.79,0,0,0,62,7.66c.13,0,.2-.17.2-.38a1.59,1.59,0,0,0-.09-.46.1.1,0,0,1,0-.06l-.67-2H58.84l-.6,1.83a2.09,2.09,0,0,0-.12.6.46.46,0,0,0,.16.42.78.78,0,0,0,.44.1v.08H57V7.73a.89.89,0,0,0,.59-.28,2.31,2.31,0,0,0,.4-.76L60.07.28ZM58.92,4.51h2.37L60.08,1h0Z"/><path class="cls-1" d="M72.34.37V.45a1.64,1.64,0,0,0-.44.11.54.54,0,0,0-.26.29,1.69,1.69,0,0,0-.09.62V8h0L65.78,1.62V6.2a5.63,5.63,0,0,0,0,.85.93.93,0,0,0,.13.4.76.76,0,0,0,.65.28v.08H64.75V7.73a.91.91,0,0,0,.48-.13.67.67,0,0,0,.25-.44,4.46,4.46,0,0,0,.07-1V1.35l-.24-.27A2.26,2.26,0,0,0,64.78.6a2.2,2.2,0,0,0-.49-.15V.37h1.4l5.63,6.31V1.87a5.5,5.5,0,0,0,0-.81.73.73,0,0,0-.23-.43.89.89,0,0,0-.58-.18V.37Z"/><path class="cls-1" d="M80.06,2H80a1.54,1.54,0,0,0-.51-.93,2.56,2.56,0,0,0-1-.55,3.22,3.22,0,0,0-1-.18,2.78,2.78,0,0,0-1.21.27,2.88,2.88,0,0,0-1,.77,3.81,3.81,0,0,0-.64,1.18,4.81,4.81,0,0,0-.22,1.5,4.5,4.5,0,0,0,.22,1.45,3.19,3.19,0,0,0,.64,1.16,2.83,2.83,0,0,0,1,.75,2.91,2.91,0,0,0,1.23.25,3.68,3.68,0,0,0,1.24-.23A3.32,3.32,0,0,0,80,6.72V7a6.25,6.25,0,0,1-1.23.76,3.59,3.59,0,0,1-1.4.24,4,4,0,0,1-1.6-.32,3.52,3.52,0,0,1-1.23-.87,4,4,0,0,1-.76-1.22,4.11,4.11,0,0,1,.28-3.43A4.11,4.11,0,0,1,75.5.69a3.86,3.86,0,0,1,2-.54,5.63,5.63,0,0,1,1.41.2l.53.15.25,0A.45.45,0,0,0,80,.47a.51.51,0,0,0,.1-.21h.08Z"/><path class="cls-1" d="M89.11,4.1a3.9,3.9,0,0,1-.52,2,4.11,4.11,0,0,1-1.41,1.43,3.87,3.87,0,0,1-2,.53,4,4,0,0,1-2-.53A4,4,0,0,1,81.76,6a3.84,3.84,0,0,1-.52-2,3.78,3.78,0,0,1,.31-1.54,3.65,3.65,0,0,1,.87-1.26A4.17,4.17,0,0,1,83.69.44,4,4,0,0,1,85.18.15a3.88,3.88,0,0,1,1.47.28A3.92,3.92,0,0,1,88.79,2.5,4,4,0,0,1,89.11,4.1Zm-.89,0a4.39,4.39,0,0,0-.53-2.33A2.67,2.67,0,0,0,86.48.67a3.41,3.41,0,0,0-1.3-.29,3.45,3.45,0,0,0-1,.16,2.64,2.64,0,0,0-1,.56,3,3,0,0,0-.79,1.15,4.75,4.75,0,0,0-.31,1.84,4.92,4.92,0,0,0,.26,1.67,3.07,3.07,0,0,0,.7,1.17,2.75,2.75,0,0,0,1,.65,3.08,3.08,0,0,0,1.12.2,3.32,3.32,0,0,0,1.06-.18,2.62,2.62,0,0,0,1-.6,3,3,0,0,0,.72-1.13A5,5,0,0,0,88.22,4.12Z"/><polygon class="cls-1" points="89.1 10.87 1.08 10.87 0.01 11.95 88.02 11.95 89.1 10.87"/></g></g></svg>