<?xml version="1.0" encoding="utf-8"?>
<!-- Generator: Adobe Illustrator 24.3.0, SVG Export Plug-In . SVG Version: 6.00 Build 0)  -->
<svg version="1.1" id="Capa_1" xmlns="http://www.w3.org/2000/svg" xmlns:xlink="http://www.w3.org/1999/xlink" x="0px" y="0px"
	 viewBox="0 0 250.1 248.9" style="enable-background:new 0 0 250.1 248.9;" xml:space="preserve">
<style type="text/css">
	.st0{fill:#1D2E51;}
	.st1{fill:#00A5CD;}
</style>
<g>
	<g>
		<g>
			<g>
				<path class="st0" d="M124.4,25.9l74.3,74.3l-52.4,52.4l-20.1-20.1l3-3l16.4,16.4l0.6,0.6l0.6-0.6l45-45l0.6-0.6l-0.6-0.6l-67-67
					l-0.6-0.6l-0.6,0.6L80.1,76.2l-3-3L124.4,25.9"/>
			</g>
			<g>
				<path class="st0" d="M70.1,80.1l3,3L56.7,99.6l-0.6,0.6l0.6,0.6l45,45l0.6,0.6l0.6-0.6l65.7-65.7l3.1,3.1l-69.4,69.4l-52.4-52.4
					L70.1,80.1z"/>
			</g>
			<g>
				<path class="st0" d="M124.4,4l63.3,63.3l-9,9l-3.1-3.1l5.3-5.3l0.6-0.6l-0.6-0.6l-55.9-55.9l-0.6-0.6l-0.6,0.6L67.9,66.6
					l-0.6,0.6l0.6,0.6l54.5,54.6l-3,3L61.1,67.3L124.4,4"/>
			</g>
			<g>
				<path class="st0" d="M124.4,48l8.4,8.4l-8.4,8.4l-8.4-8.4L124.4,48"/>
			</g>
		</g>
		<g>
			<g>
				<path class="st0" d="M4.8,188.3v-0.2h6.6c1.1,0,2.1,0.1,2.9,0.4c0.8,0.3,1.5,0.7,2.1,1.2c0.6,0.5,1,1.1,1.2,1.7
					c0.3,0.6,0.4,1.3,0.4,2c0,0.7-0.1,1.4-0.4,2c-0.3,0.6-0.7,1.2-1.2,1.7c-0.6,0.5-1.3,0.9-2.2,1.2c-0.9,0.3-1.9,0.4-3.1,0.4
					c-0.4,0-1.1-0.1-2.1-0.2v6.9c0,1.4,0.7,2.2,2.2,2.2v0.2H4.8v-0.2c0.6,0,1.1-0.2,1.5-0.5c0.4-0.3,0.6-0.9,0.6-1.7v-15.1
					c0-0.5-0.1-0.8-0.2-1.2c-0.1-0.3-0.3-0.5-0.5-0.7c-0.2-0.1-0.4-0.2-0.7-0.3c-0.2-0.1-0.4-0.1-0.5-0.1H4.8z M9,188.8v9.4
					c0.7,0.1,1.4,0.2,2.1,0.2c1.3,0,2.4-0.3,3.3-1c0.9-0.7,1.4-1.9,1.4-3.7c0-1.5-0.4-2.7-1.2-3.7c-0.8-1-2-1.4-3.6-1.4
					C10.2,188.6,9.6,188.7,9,188.8z"/>
				<path class="st0" d="M42.1,198.1c0,1.9-0.5,3.6-1.4,5.2c-0.9,1.6-2.2,2.9-3.8,3.9c-1.6,1-3.4,1.4-5.3,1.4c-2,0-3.7-0.5-5.4-1.4
					c-1.6-1-2.9-2.2-3.9-3.9S21,199.9,21,198c0-1.5,0.3-2.8,0.8-4.1c0.6-1.3,1.3-2.4,2.3-3.4c1-1,2.1-1.7,3.4-2.2
					c1.3-0.5,2.6-0.8,4-0.8c1.4,0,2.7,0.3,3.9,0.8c1.3,0.5,2.4,1.2,3.4,2.2c1,1,1.8,2.1,2.4,3.4S42.1,196.6,42.1,198.1z M39.8,198.2
					c0-2.7-0.5-4.7-1.4-6.2c-0.9-1.5-2-2.5-3.3-3c-1.2-0.5-2.4-0.8-3.5-0.8c-0.8,0-1.7,0.1-2.6,0.4c-0.9,0.3-1.8,0.8-2.6,1.5
					c-0.9,0.7-1.6,1.8-2.1,3.1c-0.6,1.3-0.8,3-0.8,4.9c0,1.7,0.2,3.2,0.7,4.5c0.5,1.3,1.1,2.3,1.9,3.1c0.8,0.8,1.7,1.4,2.6,1.8
					c1,0.4,2,0.5,3,0.5c0.9,0,1.9-0.2,2.8-0.5c1-0.3,1.8-0.9,2.6-1.6c0.8-0.7,1.4-1.8,1.9-3C39.5,201.6,39.8,200,39.8,198.2z"/>
				<path class="st0" d="M45.6,188.4h-0.3v-0.3h6.9c1.1,0,2.1,0.2,2.8,0.5c0.8,0.3,1.4,0.8,1.8,1.3c0.4,0.5,0.7,1.1,0.9,1.7
					c0.2,0.6,0.3,1.2,0.3,1.7c0,0.7-0.2,1.4-0.5,2.1c-0.3,0.7-0.8,1.2-1.4,1.7c-0.6,0.5-1.4,0.8-2.4,1v0.1c1.2,0.6,2.3,1.7,3.3,3.4
					l1.8,3.1c0.8,1.4,1.5,2.2,2,2.6s1,0.6,1.5,0.6v0.2h-3.6c-0.2-0.2-0.3-0.4-0.4-0.6c-0.1-0.2-0.3-0.4-0.4-0.6
					c-0.1-0.1-0.2-0.3-0.4-0.6c-0.2-0.3-0.3-0.4-0.3-0.5l-2.4-4c-0.5-0.8-1-1.5-1.5-2s-1-0.9-1.4-1.1c-0.4-0.2-0.8-0.4-1.2-0.4
					c-0.3-0.1-0.8-0.1-1.2-0.1v7.3c0,1.4,0.7,2.2,2.2,2.2v0.2h-6.4v-0.2c0.4,0,0.8-0.1,1.1-0.2c0.3-0.1,0.6-0.4,0.8-0.7
					c0.2-0.3,0.3-0.8,0.3-1.3v-15.1c0-0.8-0.2-1.4-0.6-1.7C46.5,188.5,46.1,188.4,45.6,188.4z M49.5,197.8h1.1
					c1.2,0,2.2-0.2,2.9-0.5c0.8-0.3,1.3-0.8,1.7-1.5c0.3-0.6,0.5-1.4,0.5-2.3c0-0.8-0.2-1.5-0.5-2.3c-0.3-0.7-0.8-1.4-1.6-1.9
					c-0.7-0.5-1.7-0.8-3-0.8c-0.5,0-0.9,0-1.2,0.1V197.8z"/>
				<path class="st0" d="M90.4,187.1c-0.5,0.7-1.2,1-2,1H77.5h-2.1H64.6c-0.3,0-0.6,0-0.8,0c-0.2,0-0.4-0.1-0.6-0.2
					c-0.2-0.1-0.3-0.2-0.4-0.3s-0.2-0.3-0.4-0.5h-0.2v4.9h0.2c0.1-1.3,0.5-2.1,1.1-2.5c0.7-0.4,1.5-0.6,2.4-0.6h4v16.8
					c0,0.8-0.2,1.3-0.6,1.7c-0.4,0.3-0.9,0.5-1.5,0.5v0.2h6.4v-0.2c-1.4,0-2.2-0.8-2.2-2.2v-16.8h4.9h1.1h2.9v16.8
					c0,0.8-0.2,1.3-0.6,1.7c-0.4,0.3-0.9,0.5-1.5,0.5v0.2H85v-0.2c-1.4,0-2.2-0.8-2.2-2.2v-16.8h4c1,0,1.8,0.2,2.4,0.6
					c0.7,0.4,1,1.2,1.1,2.5h0.2v-4.9H90.4z"/>
				<path class="st0" d="M113.8,198.1c0,1.9-0.5,3.6-1.4,5.2c-0.9,1.6-2.2,2.9-3.8,3.9c-1.6,1-3.4,1.4-5.3,1.4c-2,0-3.7-0.5-5.4-1.4
					c-1.6-1-2.9-2.2-3.9-3.9s-1.4-3.4-1.4-5.3c0-1.5,0.3-2.8,0.8-4.1c0.6-1.3,1.3-2.4,2.3-3.4c1-1,2.1-1.7,3.4-2.2
					c1.3-0.5,2.6-0.8,4-0.8c1.4,0,2.7,0.3,3.9,0.8c1.3,0.5,2.4,1.2,3.4,2.2c1,1,1.8,2.1,2.4,3.4S113.8,196.6,113.8,198.1z
					 M111.4,198.2c0-2.7-0.5-4.7-1.4-6.2c-0.9-1.5-2-2.5-3.3-3c-1.2-0.5-2.4-0.8-3.5-0.8c-0.8,0-1.7,0.1-2.6,0.4
					c-0.9,0.3-1.8,0.8-2.6,1.5c-0.9,0.7-1.6,1.8-2.1,3.1c-0.6,1.3-0.8,3-0.8,4.9c0,1.7,0.2,3.2,0.7,4.5c0.5,1.3,1.1,2.3,1.9,3.1
					s1.7,1.4,2.6,1.8c1,0.4,2,0.5,3,0.5c0.9,0,1.9-0.2,2.8-0.5c1-0.3,1.8-0.9,2.6-1.6c0.8-0.7,1.4-1.8,1.9-3
					C111.2,201.6,111.4,200,111.4,198.2z"/>
				<path class="st0" d="M134.6,208.1h-7.5v-0.2h0.3c0.5,0,0.9-0.2,1.3-0.5c0.4-0.4,0.6-0.9,0.6-1.7v-15.1c0-0.7-0.2-1.3-0.5-1.7
					c-0.3-0.4-0.8-0.6-1.4-0.6h-0.2v-0.2h6.5c0.9,0,1.7,0.1,2.4,0.4c0.7,0.2,1.3,0.6,1.8,1c0.5,0.4,0.9,0.9,1.2,1.5
					c0.3,0.6,0.4,1.2,0.4,1.8c0,1.2-0.4,2.2-1.2,2.9c-0.8,0.8-1.8,1.3-3.1,1.7v0.1c0.6,0.1,1.2,0.2,1.7,0.3c0.6,0.1,1.1,0.3,1.5,0.5
					c0.4,0.2,0.9,0.5,1.2,0.9c0.4,0.3,0.7,0.7,0.9,1.1c0.2,0.4,0.4,0.8,0.6,1.3c0.1,0.5,0.2,0.9,0.2,1.4c0,1-0.3,1.9-0.8,2.7
					c-0.5,0.8-1.1,1.3-1.8,1.7C137.6,207.8,136.3,208.1,134.6,208.1z M131.3,197.3h1.3c1.1,0,1.8-0.1,2.3-0.3
					c0.3-0.1,0.6-0.3,0.9-0.6c0.3-0.3,0.6-0.7,0.9-1.2c0.3-0.5,0.4-1.2,0.4-2c0-0.6-0.1-1.2-0.3-1.7c-0.2-0.5-0.5-1-0.8-1.4
					c-0.4-0.4-0.8-0.7-1.3-1c-0.5-0.2-1-0.4-1.6-0.4c-0.5,0-1.1,0.1-1.8,0.3V197.3z M133.3,197.9h-2.1v7.2c0,0.5,0,0.9,0.1,1.2
					c0.1,0.3,0.4,0.6,0.8,0.8c0.4,0.2,1.1,0.4,2,0.4c1.8,0,3.1-0.6,3.9-1.8c0.5-0.8,0.8-1.8,0.8-2.8c0-0.8-0.1-1.4-0.4-2.1
					c-0.3-0.6-0.6-1.1-1.1-1.5c-0.5-0.4-1.1-0.7-1.8-1C134.9,198,134.2,197.9,133.3,197.9z"/>
				<path class="st0" d="M143.9,207.9h0.3c0.5,0,0.9-0.2,1.3-0.6c0.4-0.4,0.6-0.9,0.6-1.6v-15.1c0-0.8-0.2-1.4-0.6-1.7
					c-0.4-0.3-0.9-0.5-1.5-0.5v-0.2h6.4v0.2c-0.6,0-1.1,0.2-1.5,0.5c-0.4,0.3-0.7,0.9-0.7,1.8v14.6c0,0.9,0.2,1.5,0.7,1.8
					c0.4,0.3,1.1,0.5,2.1,0.5h1.7c0.8,0,1.4-0.1,1.8-0.3c0.4-0.2,0.8-0.5,1.1-0.8c0.3-0.4,0.5-0.9,0.8-1.6h0.2l-0.8,3.3h-11.9V207.9
					z"/>
				<path class="st0" d="M167.6,187.8l6,17.1c0.3,0.9,0.6,1.5,0.9,1.9c0.3,0.4,0.6,0.6,0.8,0.8c0.3,0.1,0.6,0.2,1,0.2v0.2h-6.5v-0.2
					c0.7,0,1.2-0.1,1.5-0.2c0.4-0.1,0.5-0.5,0.5-1c0-0.3-0.1-0.7-0.3-1.2c0-0.1-0.1-0.1-0.1-0.2l-1.8-5.3h-6.9l-1.6,4.9
					c-0.2,0.7-0.3,1.2-0.3,1.6c0,0.6,0.1,0.9,0.4,1.1c0.3,0.2,0.7,0.3,1.2,0.3v0.2h-4.7v-0.2c0.7-0.1,1.2-0.3,1.6-0.8
					c0.4-0.4,0.8-1.1,1.1-2l5.6-17.2H167.6z M163.1,199.2h6.4l-3.3-9.5h-0.1L163.1,199.2z"/>
				<path class="st0" d="M199.2,188.1v0.2c-0.5,0.1-0.9,0.2-1.2,0.3c-0.3,0.1-0.5,0.4-0.7,0.8c-0.2,0.4-0.2,0.9-0.2,1.7v17.5h-0.1
					l-15.4-17.1v12.3c0,1,0,1.8,0.1,2.3c0.1,0.5,0.2,0.9,0.4,1.1c0.3,0.5,0.9,0.7,1.8,0.8v0.2h-5v-0.2c0.6,0,1-0.1,1.3-0.4
					c0.3-0.2,0.5-0.6,0.7-1.2c0.1-0.6,0.2-1.4,0.2-2.6v-13.1l-0.7-0.7c-0.6-0.7-1.1-1.1-1.4-1.3c-0.4-0.2-0.8-0.3-1.3-0.4v-0.2h3.8
					l15.1,17v-12.9c0-1,0-1.7-0.1-2.2c-0.1-0.5-0.3-0.9-0.6-1.2c-0.3-0.3-0.8-0.4-1.6-0.5v-0.2H199.2z"/>
				<path class="st0" d="M219.9,192.6h-0.2c-0.2-1-0.6-1.8-1.4-2.5c-0.7-0.7-1.6-1.2-2.6-1.5c-1-0.3-1.9-0.5-2.7-0.5
					c-1.2,0-2.2,0.2-3.2,0.7c-1,0.5-1.9,1.2-2.6,2.1c-0.7,0.9-1.3,1.9-1.7,3.2c-0.4,1.2-0.6,2.6-0.6,4c0,1.4,0.2,2.7,0.6,3.9
					c0.4,1.2,1,2.2,1.7,3.1c0.8,0.9,1.6,1.6,2.6,2s2.1,0.7,3.3,0.7c1,0,2.1-0.2,3.3-0.6c1.2-0.4,2.3-1.1,3.3-2.1v0.8
					c-1.2,0.9-2.3,1.6-3.3,2.1c-1,0.4-2.2,0.7-3.7,0.7c-1.6,0-3-0.3-4.3-0.9c-1.3-0.6-2.4-1.4-3.3-2.3c-0.9-1-1.6-2.1-2-3.3
					c-0.5-1.2-0.7-2.5-0.7-3.8c0-1.9,0.5-3.8,1.4-5.4c1-1.7,2.3-3,3.9-4s3.4-1.5,5.3-1.5c1.2,0,2.4,0.2,3.8,0.5l1.4,0.4
					c0.3,0.1,0.5,0.1,0.7,0.1c0.4,0,0.6-0.1,0.7-0.2c0.1-0.1,0.2-0.3,0.3-0.6h0.2L219.9,192.6z"/>
				<path class="st0" d="M244.2,198.1c0,1.9-0.5,3.6-1.4,5.2c-0.9,1.6-2.2,2.9-3.8,3.9c-1.6,1-3.4,1.4-5.3,1.4c-2,0-3.7-0.5-5.4-1.4
					c-1.6-1-2.9-2.2-3.9-3.9c-0.9-1.6-1.4-3.4-1.4-5.3c0-1.5,0.3-2.8,0.8-4.1c0.6-1.3,1.3-2.4,2.3-3.4c1-1,2.1-1.7,3.4-2.2
					c1.3-0.5,2.6-0.8,4-0.8c1.4,0,2.7,0.3,3.9,0.8c1.3,0.5,2.4,1.2,3.4,2.2c1,1,1.8,2.1,2.4,3.4
					C243.9,195.1,244.2,196.6,244.2,198.1z M241.8,198.2c0-2.7-0.5-4.7-1.4-6.2c-0.9-1.5-2-2.5-3.3-3c-1.2-0.5-2.4-0.8-3.5-0.8
					c-0.8,0-1.7,0.1-2.6,0.4c-0.9,0.3-1.8,0.8-2.6,1.5c-0.9,0.7-1.6,1.8-2.1,3.1c-0.6,1.3-0.8,3-0.8,4.9c0,1.7,0.2,3.2,0.7,4.5
					c0.5,1.3,1.1,2.3,1.9,3.1c0.8,0.8,1.7,1.4,2.6,1.8c1,0.4,2,0.5,3,0.5c0.9,0,1.9-0.2,2.8-0.5c1-0.3,1.8-0.9,2.6-1.6
					c0.8-0.7,1.4-1.8,1.9-3C241.6,201.6,241.8,200,241.8,198.2z"/>
			</g>
		</g>
		<g>
			<polygon class="st1" points="244.2,216.4 7.6,216.4 4.8,219.3 241.3,219.3 			"/>
		</g>
		<g>
			<path class="st0" d="M18.3,230.6c-1.3-1.5-3.2-2.4-5.2-2.4c-4,0-7,3.1-7,6.9c0,4.5,3.8,6.8,7,6.8c1.6,0,3.6-0.6,5.2-2.3v1.3
				c-1.6,1.4-3.5,1.9-5.2,1.9c-4.7,0-8.1-3.5-8.1-7.8c0-4.3,3.6-7.8,8.1-7.8c3,0,4.8,1.5,5.2,2V230.6z"/>
			<path class="st0" d="M39,227.6v15.1h-1v-15.1H39z"/>
			<path class="st0" d="M59.4,242.6l1.8-15.6l6.7,13.9l6.7-13.9l1.8,15.6h-1L74,230.5c0,0-6.1,12.7-6.1,12.7l-6.1-12.7l-1.4,12.1
				H59.4z"/>
			<path class="st0" d="M104.6,237.7H98l-2.1,4.9h-1.1l6.6-15.5l6.5,15.5h-1.1L104.6,237.7z M104.2,236.8l-2.9-7.1l-3,7.1H104.2z"/>
			<path class="st0" d="M128.6,228.5v14.2h-1v-14.2h-4v-0.9h9.1v0.9H128.6z"/>
			<path class="st0" d="M158.3,237.7h-6.6l-2.1,4.9h-1.1l6.6-15.5l6.5,15.5h-1.1L158.3,237.7z M157.9,236.8l-2.9-7.1l-3,7.1H157.9z"
				/>
			<path class="st0" d="M186.7,242.6l-5-7.1h-0.5v7.1h-1v-15.1h2.2c1.2,0,2.3,0.1,3.3,0.8c1.2,0.8,1.6,2.1,1.6,3.2
				c0,1.5-0.7,3-2.6,3.7c-0.8,0.3-1.6,0.3-1.9,0.3l5.1,7.1H186.7z M181.2,234.6h1.5c2.2,0,3.5-1.1,3.5-3.1c0-1.5-0.8-2.3-1.4-2.6
				c-0.7-0.4-1.8-0.5-2.4-0.5h-1.3V234.6z"/>
			<path class="st0" d="M208.5,227.6v15.1h-1v-15.1H208.5z"/>
			<path class="st0" d="M244.3,235.1c0,4.3-3.5,7.8-8.1,7.8c-4.6,0-8.1-3.4-8.1-7.8c0-4.3,3.5-7.8,8.1-7.8
				C240.8,227.4,244.3,230.8,244.3,235.1z M243.3,235.1c0-3.9-3-6.9-7-6.9c-4,0-7,3-7,6.9c0,3.8,3,6.8,7,6.8
				C240.3,242,243.3,239,243.3,235.1z"/>
		</g>
		<g>
			<path class="st0" d="M50,165.7v13.3H54v0.8h-5v-14.1H50z"/>
			<path class="st0" d="M78.3,172.8c0,4.1-3.3,7.3-7.6,7.3c-4.3,0-7.6-3.2-7.6-7.3s3.3-7.3,7.6-7.3C75,165.5,78.3,168.7,78.3,172.8z
				 M77.3,172.8c0-3.6-2.8-6.4-6.6-6.4c-3.8,0-6.6,2.8-6.6,6.4c0,3.6,2.8,6.4,6.6,6.4C74.5,179.2,77.3,176.4,77.3,172.8z"/>
			<path class="st0" d="M89.6,179.8l1.7-14.6l6.3,13.1l6.3-13.1l1.7,14.6h-1l-1.3-11.4c0,0-5.7,11.9-5.7,11.9l-5.7-11.9l-1.3,11.4
				H89.6z"/>
			<path class="st0" d="M125,175.1h-6.2l-1.9,4.6h-1l6.1-14.6l6.1,14.6h-1L125,175.1z M124.7,174.3l-2.7-6.7l-2.8,6.7H124.7z"/>
			<path class="st0" d="M144.6,168c-0.9-1.7-2.5-1.7-2.9-1.7c-1.7,0-2.7,1.2-2.7,2.6c0,1.5,1.1,2,2.6,2.7c1.4,0.7,2.2,1,2.9,1.5
				c0.6,0.4,1.6,1.2,1.6,2.7c0,2.4-2.1,4.1-4.6,4.1c-1.9,0-2.8-0.9-3.4-1.5c-0.6-0.6-0.8-1.2-0.9-1.5l0.8-0.4
				c0.2,0.6,0.6,1.1,0.8,1.4c0.7,0.8,1.7,1.2,2.7,1.2c2,0,3.5-1.4,3.5-3.3c0-0.8-0.3-1.6-1.4-2.2c-0.4-0.2-1.3-0.7-2.5-1.2
				c-1.4-0.7-2.2-1.1-2.7-1.9c-0.3-0.5-0.5-1.1-0.5-1.6c0-1.6,1.1-3.5,3.7-3.5c1.5,0,2.8,0.7,3.5,2L144.6,168z"/>
			<path class="st0" d="M170.9,179.8v-14.1h2.9c1.3,0,3.5,0.2,5.4,2c1.6,1.5,2.1,3.6,2.1,5.1s-0.5,3.6-2.1,5.1c-1.8,1.8-4.1,2-5.4,2
				H170.9z M171.8,178.9h1.9c3.9,0,6.5-2.5,6.5-6.2c0-3.6-2.7-6.2-6.5-6.2h-1.9V178.9z"/>
			<path class="st0" d="M199.7,166.5h-6v5.1h5.9v0.8h-5.9v6.5h6v0.8h-7v-14.1h7V166.5z"/>
		</g>
	</g>
</g>
</svg>
