<?xml version="1.0" encoding="utf-8"?>
<!-- Generator: Adobe Illustrator 24.2.3, SVG Export Plug-In . SVG Version: 6.00 Build 0)  -->
<svg version="1.1" id="Capa_1" xmlns="http://www.w3.org/2000/svg" xmlns:xlink="http://www.w3.org/1999/xlink" x="0px" y="0px"
	 viewBox="0 0 309.77 317.32" style="enable-background:new 0 0 309.77 317.32;" xml:space="preserve">
<style type="text/css">
	.st0{fill:#002856;}
</style>
<g>
	<g>
		<g>
			<path class="st0" d="M37.36,158.07l16.93-44.51h10.88l17.18,44.51H71.54l-3.62-9.46H50.68l-3.1,9.46H37.36z M65.7,141.14
				l-4.99-14.38c-0.14-0.43-0.32-1.16-0.55-2.19c-0.22-1.03-0.46-2.3-0.7-3.8c-0.26,1.44-0.52,2.73-0.76,3.88
				c-0.24,1.15-0.42,1.91-0.55,2.3l-4.8,14.2H65.7z"/>
			<path class="st0" d="M87.04,158.07v-44.51h9.52v36.42h15.2v8.09H87.04z"/>
			<path class="st0" d="M118.34,158.07v-44.51h9.52v44.51H118.34z"/>
			<path class="st0" d="M131.12,158.07l16.93-44.51h10.88l17.18,44.51H165.3l-3.62-9.46h-17.24l-3.1,9.46H131.12z M159.46,141.14
				l-4.99-14.38c-0.14-0.43-0.32-1.16-0.55-2.19c-0.22-1.03-0.46-2.3-0.7-3.8c-0.26,1.44-0.52,2.73-0.76,3.88
				c-0.24,1.15-0.42,1.91-0.55,2.3l-4.8,14.2H159.46z"/>
			<path class="st0" d="M179.47,158.07v-44.51h12.13c4.78,0,8.55,0.33,11.31,1c2.76,0.67,5.18,1.78,7.27,3.34
				c2.69,2.01,4.74,4.54,6.13,7.59c1.39,3.05,2.08,6.52,2.08,10.41c0,3.95-0.71,7.45-2.13,10.5c-1.42,3.05-3.5,5.57-6.23,7.56
				c-2.03,1.46-4.28,2.51-6.76,3.15c-2.48,0.64-6.12,0.96-10.9,0.96h-3.38H179.47z M188.98,150.05h5.29c4.99,0,8.62-1.13,10.9-3.4
				c2.28-2.27,3.42-5.87,3.42-10.79c0-4.9-1.14-8.5-3.42-10.78c-2.28-2.28-5.91-3.42-10.9-3.42h-5.29V150.05z"/>
			<path class="st0" d="M272,135.91c0,3.18-0.59,6.19-1.78,9.03s-2.89,5.33-5.12,7.48c-2.31,2.21-4.91,3.9-7.81,5.08
				c-2.9,1.18-5.9,1.76-9,1.76c-2.72,0-5.38-0.46-7.98-1.38c-2.6-0.92-4.99-2.24-7.16-3.97c-2.8-2.23-4.94-4.9-6.43-8
				c-1.49-3.1-2.24-6.43-2.24-10c0-3.2,0.59-6.21,1.76-9.01c1.18-2.81,2.9-5.3,5.17-7.49c2.23-2.17,4.82-3.85,7.77-5.05
				c2.95-1.2,5.98-1.79,9.11-1.79c3.1,0,6.12,0.6,9.04,1.79c2.93,1.2,5.52,2.88,7.77,5.05c2.25,2.19,3.96,4.69,5.14,7.51
				C271.41,129.73,272,132.73,272,135.91z M248.29,150.78c4.03,0,7.36-1.41,9.99-4.24c2.62-2.83,3.94-6.37,3.94-10.63
				c0-4.21-1.33-7.76-3.98-10.64c-2.66-2.88-5.97-4.32-9.94-4.32c-4.03,0-7.38,1.43-10.03,4.3c-2.66,2.87-3.98,6.42-3.98,10.66
				c0,4.3,1.31,7.85,3.92,10.66C240.81,149.37,244.17,150.78,248.29,150.78z"/>
		</g>
	</g>
	<g>
		<path class="st0" d="M176.59,279.46c-1.05-0.5-2.88-0.52-5.48-0.08l-1.01,0.17l1.4,8.3l1.01-0.17c2.73-0.46,4.49-1.06,5.26-1.81
			c0.78-0.75,1.04-1.86,0.79-3.34C178.3,280.98,177.65,279.95,176.59,279.46z"/>
		<path class="st0" d="M212.35,266.59c-1.09-0.24-2.45,0.09-4.1,0.97l-0.87,0.47l4.45,8.29l0.87-0.47c1.64-0.88,2.66-1.87,3.03-2.95
			c0.38-1.08,0.17-2.37-0.64-3.88C214.35,267.64,213.44,266.83,212.35,266.59z"/>
		<path class="st0" d="M242.16,250.75l4.26,8.31l5.35-5.52l-8.59-4.01c-0.25-0.12-0.66-0.36-1.22-0.7c-0.56-0.35-1.23-0.79-2-1.34
			c0.53,0.74,1,1.42,1.4,2.02C241.78,250.11,242.04,250.53,242.16,250.75z"/>
		<path class="st0" d="M309.88,75.81V48.37l-56.7-29.84c0,0-2.41-1.21-6.51-1.36c-2.66-0.1-5.55,1.37-5.55,1.37l-9.5,5.11
			c0,0-1.51,0.81-3.11,0.8c-1.79-0.01-3.67-1.62-3.67-1.62L196.62,2.19c0,0-2.59-2.13-6.85-2.19c-4.04-0.06-7.83,2.57-7.83,2.57
			l-19.29,14.61c0,0-1.24,1.03-3.12,1.24c-1.69,0.18-3.22-0.42-3.22-0.42l-8.18-3.67c0,0-2.47-1.25-6.17-0.85
			c-3.06,0.33-5.74,2.19-5.74,2.19l-23.68,18.14c0,0-1.23,1.13-2.7,1.37c-1.93,0.32-3.37-0.28-3.37-0.28L77,24.99
			c0,0-1.85-0.74-4.33-0.64c-2.46,0.1-4.4,1.03-4.4,1.03L18.6,47.51h-0.02L0,55.79v20.02h0v85.44c0,32.26,9.86,62.22,26.74,87.02
			c3.41,5.03,7.13,9.86,11.1,14.44c8.82,10.16,18.94,19.16,30.09,26.74c24.8,16.88,54.76,26.74,87.02,26.74s62.22-9.86,87.02-26.74
			c11.15-7.58,21.27-16.58,30.09-26.74c3.97-4.59,7.68-9.41,11.1-14.44c16.88-24.8,26.74-54.76,26.74-87.02L309.88,75.81
			L309.88,75.81z M75.92,253.51l-4.68-0.27c0.3-0.83,0.36-1.62,0.19-2.36c-0.17-0.75-0.58-1.47-1.22-2.15
			c-0.77-0.83-1.6-1.31-2.49-1.43c-0.89-0.12-1.66,0.12-2.33,0.74c-1.04,0.96-1.04,2.86-0.02,5.67c0.2,0.56,0.36,0.99,0.46,1.3
			c0.79,2.37,1.08,4.4,0.86,6.09c-0.21,1.69-0.93,3.1-2.15,4.24c-1.84,1.71-3.89,2.45-6.15,2.22c-2.26-0.24-4.38-1.41-6.35-3.53
			c-1.4-1.5-2.34-3.03-2.82-4.58c-0.48-1.55-0.48-3.05,0-4.48l4.81-0.13c-0.45,0.97-0.58,1.97-0.39,3.01
			c0.19,1.04,0.67,1.96,1.42,2.78c0.91,0.98,1.87,1.54,2.87,1.68c1,0.14,1.89-0.16,2.67-0.89c0.93-0.86,0.97-2.68,0.12-5.44
			c-0.28-0.89-0.49-1.6-0.64-2.13c-0.7-2.55-0.94-4.55-0.7-6c0.24-1.46,0.95-2.73,2.12-3.83c1.62-1.51,3.54-2.1,5.78-1.79
			c2.23,0.31,4.3,1.49,6.21,3.54c1.11,1.19,1.85,2.41,2.24,3.65C76.13,250.66,76.19,252.03,75.92,253.51z M101.93,296.68l-6.11-3.1
			l6.05-11.94l-12.39-6.28l-6.05,11.94l-6.11-3.1l14.48-28.57l6.11,3.1l-5.81,11.46l12.39,6.28l5.81-11.46l6.11,3.1L101.93,296.68z
			 M147.54,281.49l-11.93-1.37l-0.75,6.54l11.93,1.37l-0.67,5.78l-11.93-1.37l-0.92,7.98l11.93,1.37l-0.67,5.78l-18.74-2.16
			l3.66-31.82l18.74,2.16L147.54,281.49z M182.87,304.57l-10.8-13.35l2.49,14.76l-6.75,1.14l-5.34-31.58l9.66-1.63
			c3.84-0.65,6.84-0.39,9.01,0.77c2.16,1.16,3.5,3.24,4.01,6.24c0.37,2.17,0.03,4.14-1.02,5.9c-1.05,1.76-2.59,2.94-4.61,3.55
			l11.14,12.89L182.87,304.57z M222.16,273.82c-0.94,2.51-2.99,4.61-6.14,6.3l-1.66,0.89l5.79,10.77l-6.07,3.26l-15.16-28.21
			l6.94-3.73c3.7-1.99,6.81-2.75,9.34-2.29c2.53,0.46,4.58,2.17,6.17,5.13C222.84,268.69,223.11,271.31,222.16,273.82z
			 M261.88,258.27l-5.8-2.48l-7.48,7.71l2.88,5.49l-4.43,4.57l-12.55-26.88l4.72-4.87l27.35,11.63L261.88,258.27z M283.14,134.51
			c0,70.81-57.39,128.2-128.2,128.2s-128.2-57.39-128.2-128.2V95.12h0V79.37l41.53-18.51c0,0,1.94-0.93,4.4-1.03
			c2.48-0.1,4.33,0.64,4.33,0.64l29.14,9.8c0,0,1.43,0.6,3.37,0.28c1.47-0.24,2.73-1.2,2.73-1.2l23.68-18.14
			c0,0,2.96-1.93,6.03-2.26c3.71-0.4,6.17,0.85,6.17,0.85l8.41,3.66c0,0,1.05,0.61,2.74,0.43c1.88-0.21,3.12-1.24,3.12-1.24
			l19.29-14.61c0,0,4.04-2.63,8.08-2.57c4.25,0.06,6.85,2.19,6.85,2.19l28.82,20.98c0,0,1.2,1.13,3.32,1.13
			c1.61,0,3.11-0.8,3.11-0.8l9.5-5.11c0,0,2.21-1.13,5.79-1.13c3.39,0,5.91,1.47,5.91,1.47l30.07,15.57v25.34h0V134.51z"/>
	</g>
	<g>
		<polygon class="st0" points="104.57,183.42 104.83,184.87 102.51,183.65 102.5,183.65 98.08,181.33 93.66,183.65 93.65,183.65 
			91.33,184.87 91.58,183.42 92.62,177.36 87.17,172.04 94.7,170.94 96.46,167.39 98.08,164.11 99.7,167.39 101.45,170.94 
			108.99,172.04 103.53,177.36 		"/>
		<polygon class="st0" points="133.01,183.42 133.26,184.87 130.94,183.65 130.93,183.65 126.51,181.33 122.09,183.65 
			122.08,183.65 119.76,184.87 120.01,183.42 121.05,177.36 115.6,172.04 123.13,170.94 124.89,167.39 126.51,164.11 128.13,167.39 
			129.88,170.94 137.42,172.04 131.97,177.36 		"/>
		<polygon class="st0" points="161.44,183.42 161.69,184.87 159.37,183.65 159.36,183.65 154.94,181.33 150.52,183.65 
			150.52,183.65 148.19,184.87 148.44,183.42 149.48,177.36 144.03,172.04 151.56,170.94 153.32,167.39 154.94,164.11 
			156.56,167.39 158.31,170.94 165.85,172.04 160.4,177.36 		"/>
		<polygon class="st0" points="189.87,183.42 190.12,184.87 187.8,183.65 187.79,183.65 183.37,181.33 178.95,183.65 178.95,183.65 
			176.62,184.87 176.87,183.42 177.91,177.36 172.46,172.04 180,170.94 181.75,167.39 183.37,164.11 184.99,167.39 186.75,170.94 
			194.28,172.04 188.83,177.36 		"/>
		<polygon class="st0" points="218.3,183.42 218.55,184.87 216.23,183.65 216.22,183.65 211.8,181.33 207.38,183.65 207.38,183.65 
			205.05,184.87 205.3,183.42 206.34,177.36 200.89,172.04 208.43,170.94 210.18,167.39 211.8,164.11 213.42,167.39 215.18,170.94 
			222.72,172.04 217.26,177.36 		"/>
	</g>
</g>
</svg>
