<?xml version="1.0" encoding="utf-8"?>
<!-- Generator: Adobe Illustrator 24.2.3, SVG Export Plug-In . SVG Version: 6.00 Build 0)  -->
<svg version="1.1" id="Capa_1" xmlns="http://www.w3.org/2000/svg" xmlns:xlink="http://www.w3.org/1999/xlink" x="0px" y="0px"
	 viewBox="0 0 322.77 301.32" style="enable-background:new 0 0 322.77 301.32;" xml:space="preserve">
<style type="text/css">
	.st0{fill:#002856;}
	.st1{fill:#00A6CE;}
</style>
<g>
	<g>
		<g>
			<path class="st0" d="M154.3,28.31l95.85,95.85l-67.54,67.54l-25.86-25.86l3.93-3.93l21.12,21.12l0.81,0.81l0.81-0.81l58.05-58.05
				l0.81-0.81l-0.81-0.81l-86.36-86.36l-0.81-0.81l-0.81,0.81L97.17,93.13l-3.93-3.93L154.3,28.31"/>
		</g>
		<g>
			<path class="st0" d="M84.21,98.22l3.93,3.93l-21.2,21.2l-0.81,0.81l0.81,0.81l58.04,58.05l0.81,0.81l0.81-0.81l84.73-84.73
				l3.94,3.94l-89.48,89.47l-67.54-67.54L84.21,98.22z"/>
		</g>
		<g>
			<path class="st0" d="M154.3,0l81.59,81.59l-11.59,11.6l-3.94-3.94l6.85-6.85l0.81-0.81l-0.81-0.81l-72.1-72.11l-0.81-0.81
				l-0.81,0.81L81.38,80.78l-0.81,0.81l0.81,0.81l70.31,70.45l-3.93,3.93L72.7,81.59L154.3,0"/>
		</g>
		<g>
			<path class="st0" d="M154.29,56.81l10.86,10.86l-10.86,10.85l-10.85-10.85L154.29,56.81"/>
		</g>
	</g>
	<g>
		<path class="st0" d="M0,207.62v-0.3h8.46c1.41,0,2.66,0.19,3.74,0.58c1.08,0.38,1.98,0.91,2.7,1.58s1.25,1.42,1.61,2.25
			c0.36,0.84,0.53,1.71,0.53,2.64c0,0.9-0.17,1.77-0.5,2.6c-0.33,0.83-0.86,1.58-1.57,2.22c-0.71,0.65-1.65,1.16-2.8,1.55
			c-1.16,0.38-2.49,0.58-3.99,0.58c-0.48,0-1.4-0.07-2.77-0.21v8.9c0,1.83,0.93,2.78,2.8,2.84v0.28H0v-0.28
			c0.81-0.02,1.47-0.25,1.99-0.69c0.52-0.44,0.78-1.15,0.78-2.15v-19.51c0-0.6-0.09-1.09-0.28-1.49c-0.19-0.4-0.41-0.68-0.66-0.85
			c-0.25-0.17-0.53-0.29-0.84-0.38c-0.31-0.08-0.52-0.13-0.64-0.16H0z M5.41,208.23v12.15c0.9,0.16,1.79,0.25,2.66,0.25
			c1.67,0,3.08-0.43,4.25-1.29c1.16-0.86,1.74-2.45,1.74-4.77c0-1.91-0.51-3.49-1.53-4.72c-1.02-1.23-2.57-1.85-4.65-1.85
			C7.07,208,6.25,208.08,5.41,208.23z"/>
		<path class="st0" d="M48.2,220.24c0,2.42-0.6,4.66-1.79,6.74c-1.2,2.08-2.83,3.73-4.89,4.96c-2.07,1.23-4.36,1.85-6.87,1.85
			c-2.52,0-4.83-0.62-6.93-1.85c-2.1-1.23-3.76-2.89-4.96-4.98c-1.21-2.09-1.81-4.37-1.81-6.83c0-1.89,0.36-3.67,1.08-5.33
			c0.72-1.66,1.72-3.11,3.01-4.35c1.29-1.24,2.76-2.2,4.41-2.87c1.65-0.68,3.38-1.02,5.17-1.02c1.76,0,3.46,0.32,5.08,0.97
			c1.62,0.65,3.08,1.59,4.37,2.81c1.29,1.23,2.3,2.68,3.04,4.36S48.2,218.24,48.2,220.24z M45.11,220.31c0-3.43-0.61-6.12-1.82-8.05
			c-1.21-1.94-2.62-3.24-4.2-3.9c-1.59-0.66-3.08-0.99-4.48-0.99c-1.09,0-2.21,0.18-3.38,0.53c-1.17,0.36-2.3,1.01-3.41,1.95
			c-1.1,0.95-2.01,2.28-2.72,3.99c-0.71,1.72-1.07,3.83-1.07,6.36c0,2.22,0.3,4.15,0.88,5.81c0.59,1.65,1.4,3,2.43,4.05
			c1.03,1.04,2.17,1.8,3.42,2.26c1.24,0.46,2.54,0.69,3.88,0.69c1.2,0,2.42-0.21,3.65-0.64c1.23-0.43,2.36-1.12,3.38-2.08
			c1.02-0.96,1.85-2.27,2.49-3.92C44.8,224.71,45.11,222.69,45.11,220.31z"/>
		<path class="st0" d="M52.68,207.69h-0.35v-0.37h8.93c1.44,0,2.65,0.22,3.65,0.67c1,0.44,1.77,1.01,2.33,1.69
			c0.55,0.68,0.95,1.4,1.19,2.16c0.24,0.76,0.36,1.51,0.36,2.24c0,0.93-0.2,1.83-0.59,2.69c-0.39,0.86-0.99,1.6-1.8,2.21
			c-0.81,0.62-1.82,1.04-3.04,1.26v0.07c1.54,0.75,2.96,2.23,4.27,4.45l2.33,3.94c1.05,1.76,1.89,2.88,2.53,3.34
			c0.64,0.47,1.26,0.73,1.88,0.79v0.28h-4.69c-0.2-0.26-0.39-0.5-0.56-0.74c-0.18-0.24-0.36-0.49-0.56-0.76
			c-0.12-0.17-0.29-0.44-0.52-0.8c-0.23-0.36-0.36-0.56-0.41-0.6l-3.08-5.1c-0.62-1.04-1.25-1.88-1.9-2.53
			c-0.65-0.65-1.25-1.11-1.81-1.39c-0.56-0.28-1.07-0.46-1.52-0.53c-0.45-0.07-0.98-0.11-1.58-0.11V230c0,1.83,0.93,2.78,2.8,2.84
			v0.28h-8.21v-0.28c0.51-0.02,0.97-0.12,1.37-0.29c0.4-0.17,0.73-0.46,0.99-0.88c0.26-0.41,0.39-0.97,0.39-1.67v-19.51
			c0-1.03-0.25-1.75-0.75-2.17C53.83,207.9,53.28,207.69,52.68,207.69z M57.75,219.88h1.47c1.54,0,2.81-0.22,3.79-0.67
			c0.99-0.44,1.7-1.08,2.15-1.9c0.44-0.82,0.67-1.83,0.67-3.02c0-0.99-0.2-1.96-0.6-2.92c-0.4-0.95-1.07-1.75-2.02-2.4
			c-0.95-0.65-2.23-0.97-3.84-0.97c-0.65,0-1.19,0.05-1.61,0.16V219.88z"/>
		<path class="st0" d="M110.45,206.04c-0.62,0.85-1.48,1.28-2.59,1.28H93.81h-2.65H77.1c-0.41,0-0.76-0.02-1.06-0.06
			c-0.3-0.04-0.56-0.11-0.78-0.21c-0.22-0.1-0.4-0.22-0.54-0.36c-0.14-0.14-0.3-0.36-0.49-0.65h-0.28v6.3h0.28
			c0.14-1.68,0.63-2.77,1.48-3.27c0.85-0.5,1.89-0.74,3.14-0.74h5.13V230c0,1.02-0.27,1.74-0.8,2.16c-0.53,0.43-1.18,0.65-1.95,0.67
			v0.28h8.21v-0.28c-1.87-0.06-2.8-1-2.8-2.84v-21.66h6.26h1.36h3.77V230c0,1.02-0.27,1.74-0.8,2.16c-0.53,0.43-1.18,0.65-1.95,0.67
			v0.28h8.21v-0.28c-1.87-0.06-2.8-1-2.8-2.84v-21.66h5.13c1.25,0,2.3,0.25,3.15,0.74c0.85,0.5,1.34,1.58,1.47,3.27h0.28v-6.3
			H110.45z"/>
		<path class="st0" d="M140.58,220.24c0,2.42-0.6,4.66-1.79,6.74c-1.2,2.08-2.83,3.73-4.89,4.96c-2.07,1.23-4.36,1.85-6.87,1.85
			c-2.52,0-4.83-0.62-6.93-1.85c-2.1-1.23-3.76-2.89-4.96-4.98c-1.21-2.09-1.81-4.37-1.81-6.83c0-1.89,0.36-3.67,1.08-5.33
			c0.72-1.66,1.72-3.11,3.01-4.35c1.29-1.24,2.76-2.2,4.41-2.87c1.65-0.68,3.38-1.02,5.17-1.02c1.76,0,3.46,0.32,5.08,0.97
			c1.62,0.65,3.08,1.59,4.37,2.81c1.29,1.23,2.3,2.68,3.04,4.36C140.21,216.39,140.58,218.24,140.58,220.24z M137.49,220.31
			c0-3.43-0.61-6.12-1.82-8.05c-1.21-1.94-2.62-3.24-4.2-3.9c-1.59-0.66-3.08-0.99-4.48-0.99c-1.09,0-2.21,0.18-3.38,0.53
			c-1.17,0.36-2.3,1.01-3.41,1.95c-1.1,0.95-2.01,2.28-2.72,3.99c-0.71,1.72-1.07,3.83-1.07,6.36c0,2.22,0.3,4.15,0.88,5.81
			c0.59,1.65,1.4,3,2.43,4.05c1.03,1.04,2.17,1.8,3.42,2.26c1.24,0.46,2.54,0.69,3.88,0.69c1.2,0,2.42-0.21,3.65-0.64
			c1.23-0.43,2.36-1.12,3.38-2.08c1.02-0.96,1.85-2.27,2.49-3.92C137.18,224.71,137.49,222.69,137.49,220.31z"/>
		<path class="st0" d="M167.36,233.11h-9.65v-0.28h0.35c0.65,0,1.22-0.24,1.69-0.71c0.47-0.47,0.71-1.18,0.71-2.13v-19.47
			c0-0.92-0.22-1.64-0.66-2.15c-0.44-0.51-1.03-0.76-1.78-0.76h-0.32v-0.3h8.42c1.11,0,2.13,0.16,3.06,0.48
			c0.93,0.32,1.72,0.76,2.37,1.33c0.65,0.57,1.15,1.21,1.5,1.93c0.35,0.72,0.53,1.5,0.53,2.34c0,1.55-0.5,2.81-1.51,3.78
			c-1,0.97-2.35,1.68-4.04,2.14v0.07c0.77,0.08,1.51,0.2,2.22,0.37c0.71,0.16,1.35,0.39,1.93,0.68c0.57,0.29,1.11,0.67,1.61,1.14
			c0.46,0.42,0.84,0.88,1.16,1.38c0.31,0.5,0.55,1.05,0.72,1.64c0.16,0.59,0.24,1.19,0.24,1.81c0,1.34-0.35,2.5-1.04,3.47
			c-0.69,0.97-1.48,1.71-2.35,2.21C171.28,232.77,169.56,233.11,167.36,233.11z M163.13,219.16h1.68c1.38,0,2.36-0.14,2.94-0.42
			c0.37-0.19,0.76-0.44,1.16-0.77c0.4-0.33,0.79-0.84,1.16-1.54c0.37-0.7,0.55-1.55,0.55-2.54c0-0.77-0.12-1.5-0.37-2.2
			c-0.24-0.69-0.6-1.31-1.07-1.85c-0.47-0.54-1.02-0.96-1.66-1.26c-0.64-0.3-1.34-0.46-2.1-0.46c-0.67,0-1.43,0.13-2.29,0.39V219.16
			z M165.77,219.95h-2.64v9.3c0,0.62,0.06,1.14,0.18,1.55c0.12,0.41,0.46,0.77,1.01,1.08c0.55,0.3,1.39,0.46,2.54,0.46
			c2.37,0,4.06-0.79,5.06-2.36c0.69-1.09,1.03-2.31,1.03-3.66c0-0.98-0.17-1.87-0.52-2.66c-0.34-0.79-0.82-1.46-1.42-1.99
			c-0.6-0.53-1.36-0.95-2.27-1.25C167.84,220.1,166.84,219.95,165.77,219.95z"/>
		<path class="st0" d="M179.35,232.83h0.35c0.63,0,1.19-0.25,1.67-0.74c0.48-0.5,0.73-1.19,0.73-2.09v-19.47
			c0-1.07-0.27-1.82-0.81-2.24c-0.54-0.42-1.19-0.64-1.94-0.67v-0.3h8.25v0.3c-0.72,0.02-1.37,0.24-1.93,0.65
			c-0.56,0.41-0.84,1.16-0.84,2.26v18.82c0,1.12,0.28,1.9,0.84,2.33c0.56,0.43,1.48,0.65,2.75,0.65h2.22c0.97,0,1.74-0.12,2.32-0.35
			c0.58-0.23,1.04-0.59,1.37-1.07c0.34-0.48,0.68-1.16,1.03-2.03h0.3l-0.98,4.24h-15.34V232.83z"/>
		<path class="st0" d="M210,207l7.72,22.1c0.41,1.14,0.79,1.97,1.16,2.49c0.36,0.51,0.71,0.84,1.04,0.97
			c0.33,0.13,0.76,0.23,1.27,0.27v0.28h-8.42v-0.28c0.86,0,1.53-0.08,2-0.24c0.47-0.16,0.7-0.61,0.7-1.33c0-0.4-0.11-0.93-0.33-1.59
			c-0.05-0.09-0.07-0.16-0.07-0.21l-2.29-6.85h-8.93l-2.05,6.34c-0.28,0.86-0.42,1.56-0.42,2.08c0,0.72,0.18,1.21,0.54,1.44
			c0.36,0.24,0.88,0.36,1.54,0.36v0.28h-6.06v-0.28c0.86-0.08,1.56-0.41,2.08-0.99s0.97-1.46,1.36-2.64l7.28-22.2H210z
			 M204.13,221.68h8.21l-4.2-12.24h-0.07L204.13,221.68z"/>
		<path class="st0" d="M250.63,207.32v0.3c-0.65,0.08-1.17,0.21-1.55,0.38c-0.38,0.17-0.67,0.5-0.88,1
			c-0.21,0.5-0.32,1.21-0.32,2.15v22.62h-0.18l-19.8-22.1v15.86c0,1.32,0.05,2.3,0.16,2.94c0.11,0.64,0.26,1.1,0.46,1.38
			c0.43,0.61,1.18,0.93,2.26,0.98v0.28h-6.46v-0.28c0.72-0.04,1.29-0.19,1.69-0.46c0.4-0.27,0.69-0.78,0.86-1.51
			c0.17-0.73,0.25-1.83,0.25-3.3v-16.83l-0.86-0.96c-0.76-0.86-1.37-1.41-1.82-1.64c-0.46-0.23-1.02-0.4-1.7-0.52v-0.3h4.85
			l19.51,21.85v-16.65c0-1.25-0.05-2.18-0.15-2.8c-0.1-0.62-0.36-1.11-0.79-1.49c-0.43-0.37-1.09-0.58-2.01-0.61v-0.3H250.63z"/>
		<path class="st0" d="M277.36,213.1h-0.3c-0.22-1.26-0.81-2.33-1.78-3.2c-0.96-0.88-2.07-1.52-3.32-1.92
			c-1.25-0.4-2.42-0.6-3.5-0.6c-1.48,0-2.87,0.31-4.18,0.94s-2.43,1.51-3.37,2.64c-0.95,1.14-1.68,2.5-2.21,4.1
			c-0.53,1.59-0.79,3.32-0.79,5.19c0,1.81,0.25,3.49,0.76,5.03c0.51,1.55,1.25,2.89,2.22,4.03c0.97,1.14,2.1,2,3.39,2.58
			s2.71,0.88,4.27,0.88c1.31,0,2.74-0.27,4.31-0.8c1.56-0.53,2.98-1.42,4.24-2.65v1c-1.55,1.2-2.97,2.08-4.26,2.64
			s-2.9,0.84-4.82,0.84c-2.03,0-3.88-0.37-5.56-1.11c-1.68-0.74-3.09-1.74-4.25-3c-1.16-1.26-2.03-2.68-2.63-4.25
			c-0.6-1.58-0.89-3.2-0.89-4.87c0-2.51,0.62-4.84,1.86-7c1.24-2.15,2.91-3.86,5.03-5.11s4.41-1.88,6.88-1.88
			c1.53,0,3.16,0.23,4.89,0.68l1.82,0.51c0.35,0.07,0.65,0.11,0.89,0.11c0.46,0,0.76-0.07,0.91-0.2c0.15-0.13,0.27-0.38,0.35-0.73
			h0.28L277.36,213.1z"/>
		<path class="st0" d="M308.71,220.24c0,2.42-0.6,4.66-1.79,6.74c-1.2,2.08-2.83,3.73-4.89,4.96c-2.07,1.23-4.36,1.85-6.87,1.85
			c-2.52,0-4.83-0.62-6.93-1.85c-2.1-1.23-3.76-2.89-4.96-4.98c-1.21-2.09-1.81-4.37-1.81-6.83c0-1.89,0.36-3.67,1.08-5.33
			c0.72-1.66,1.72-3.11,3.01-4.35c1.29-1.24,2.76-2.2,4.41-2.87c1.65-0.68,3.38-1.02,5.17-1.02c1.76,0,3.46,0.32,5.08,0.97
			c1.62,0.65,3.08,1.59,4.37,2.81c1.29,1.23,2.3,2.68,3.04,4.36S308.71,218.24,308.71,220.24z M305.62,220.31
			c0-3.43-0.61-6.12-1.82-8.05c-1.21-1.94-2.62-3.24-4.2-3.9c-1.59-0.66-3.08-0.99-4.48-0.99c-1.09,0-2.21,0.18-3.38,0.53
			c-1.17,0.36-2.3,1.01-3.41,1.95c-1.1,0.95-2.01,2.28-2.72,3.99c-0.71,1.72-1.07,3.83-1.07,6.36c0,2.22,0.3,4.15,0.88,5.81
			c0.59,1.65,1.4,3,2.43,4.05c1.03,1.04,2.17,1.8,3.42,2.26c1.24,0.46,2.54,0.69,3.88,0.69c1.2,0,2.42-0.21,3.65-0.64
			c1.23-0.43,2.36-1.12,3.38-2.08c1.02-0.96,1.85-2.27,2.49-3.92C305.31,224.71,305.62,222.69,305.62,220.31z"/>
	</g>
	<g>
		<path class="st0" d="M159.08,293.2h8.3v-5.81h0.9v13.7h-0.9v-7.06h-8.3v7.06h-0.9v-13.7h0.9V293.2z"/>
		<path class="st0" d="M178.38,296.59h-5.83l-1.83,4.5h-0.99l5.77-14.11l5.69,14.11h-0.99L178.38,296.59z M178.06,295.77l-2.57-6.49
			l-2.61,6.49H178.06z M177.85,284.06l-2.75,2.59l-0.66-0.37l2.38-2.73L177.85,284.06z"/>
		<path class="st0" d="M182.66,287.39h3c2.38,0,3.78,1.38,3.78,3.43c0,1.48-0.7,2.44-1.6,3c1.79,0.29,2.83,1.66,2.83,3.43
			c0,2.4-1.77,3.84-4.25,3.84h-3.76V287.39z M183.56,293.59h2.18c0.7,0,1.27-0.08,1.87-0.57c0.55-0.45,0.9-1.15,0.9-2.09
			c0-1.09-0.47-1.77-0.92-2.14c-0.68-0.53-1.56-0.57-2.28-0.57h-1.75V293.59z M183.56,300.27h2.3c0.92,0,2.05,0,2.98-0.82
			c0.74-0.66,0.88-1.46,0.88-2.09c0-1.23-0.43-2.07-1.46-2.55c-0.37-0.16-1.05-0.39-2.57-0.39h-2.14V300.27z"/>
		<path class="st0" d="M193.85,287.39v13.7h-0.9v-13.7H193.85z"/>
		<path class="st0" d="M199.77,288.21v12.88h-0.9v-12.88h-3.55v-0.82h8.01v0.82H199.77z"/>
		<path class="st0" d="M208.31,288.21v12.88h-0.9v-12.88h-3.55v-0.82h8.01v0.82H208.31z"/>
		<path class="st0" d="M219.34,296.59h-5.83l-1.83,4.5h-0.99l5.77-14.11l5.69,14.11h-0.99L219.34,296.59z M219.01,295.77l-2.57-6.49
			l-2.61,6.49H219.01z"/>
		<path class="st0" d="M227.72,287.39h3c2.38,0,3.78,1.38,3.78,3.43c0,1.48-0.7,2.44-1.6,3c1.79,0.29,2.83,1.66,2.83,3.43
			c0,2.4-1.77,3.84-4.25,3.84h-3.76V287.39z M228.63,293.59h2.18c0.7,0,1.27-0.08,1.87-0.57c0.55-0.45,0.9-1.15,0.9-2.09
			c0-1.09-0.47-1.77-0.92-2.14c-0.68-0.53-1.56-0.57-2.28-0.57h-1.75V293.59z M228.63,300.27h2.3c0.92,0,2.05,0,2.98-0.82
			c0.74-0.66,0.88-1.46,0.88-2.09c0-1.23-0.43-2.07-1.46-2.55c-0.37-0.16-1.05-0.39-2.57-0.39h-2.14V300.27z"/>
		<path class="st0" d="M240.11,295.24l-4.5-7.85h1.03l3.94,6.92l4.02-6.92h1.03l-4.62,7.85v5.85h-0.9V295.24z"/>
		<path class="st0" d="M262.17,290.18c-1.17-1.38-2.85-2.16-4.62-2.16c-3.51,0-6.14,2.81-6.14,6.28c0,4.07,3.39,6.18,6.16,6.18
			c1.38,0,3.2-0.55,4.6-2.07v1.19c-1.4,1.23-3.08,1.71-4.56,1.71c-4.11,0-7.15-3.22-7.15-7.04c0-3.94,3.16-7.06,7.11-7.06
			c2.61,0,4.19,1.4,4.6,1.79V290.18z"/>
		<path class="st0" d="M274.98,290.18c-1.17-1.38-2.85-2.16-4.62-2.16c-3.51,0-6.14,2.81-6.14,6.28c0,4.07,3.39,6.18,6.16,6.18
			c1.38,0,3.2-0.55,4.6-2.07v1.19c-1.4,1.23-3.08,1.71-4.56,1.71c-4.11,0-7.15-3.22-7.15-7.04c0-3.94,3.16-7.06,7.11-7.06
			c2.61,0,4.19,1.4,4.6,1.79V290.18z"/>
		<path class="st0" d="M278.17,287.39v13.7h-0.9v-13.7H278.17z"/>
		<path class="st0" d="M281.04,301.09l1.56-14.17l5.94,12.67l5.94-12.67l1.56,14.17h-0.9l-1.21-11.01c0,0-5.36,11.5-5.38,11.5
			l-5.38-11.5l-1.21,11.01H281.04z"/>
		<path class="st0" d="M305.79,296.59h-5.83l-1.83,4.5h-0.99l5.77-14.11l5.69,14.11h-0.99L305.79,296.59z M305.47,295.77l-2.57-6.49
			l-2.61,6.49H305.47z"/>
	</g>
	<g>
		<path class="st0" d="M17.27,261.97c-1.71-1.95-4.18-3.06-6.77-3.06c-5.14,0-8.99,3.99-8.99,8.92c0,5.77,4.96,8.77,9.02,8.77
			c2.02,0,4.69-0.79,6.74-2.94v1.69c-2.04,1.75-4.51,2.42-6.68,2.42c-6.01,0-10.47-4.57-10.47-9.99c0-5.59,4.63-10.02,10.41-10.02
			c3.82,0,6.13,1.98,6.74,2.53V261.97z"/>
		<path class="st0" d="M43.97,258.01v19.43h-1.32v-19.43H43.97z"/>
		<path class="st0" d="M70.23,277.44l2.29-20.1l8.69,17.98l8.69-17.98l2.29,20.1h-1.32l-1.77-15.62c0,0-7.85,16.31-7.88,16.31
			l-7.88-16.31l-1.77,15.62H70.23z"/>
		<path class="st0" d="M128.51,271.06h-8.54l-2.68,6.38h-1.44l8.45-20.02l8.33,20.02h-1.44L128.51,271.06z M128.03,269.89
			l-3.76-9.21l-3.82,9.21H128.03z"/>
		<path class="st0" d="M159.49,259.17v18.27h-1.32v-18.27h-5.2v-1.16h11.73v1.16H159.49z"/>
		<path class="st0" d="M197.69,271.06h-8.54l-2.68,6.38h-1.44l8.45-20.02l8.33,20.02h-1.44L197.69,271.06z M197.21,269.89
			l-3.76-9.21l-3.82,9.21H197.21z"/>
		<path class="st0" d="M234.41,277.44l-6.5-9.18h-0.6v9.18h-1.32v-19.43h2.89c1.53,0,2.92,0.12,4.24,0.99
			c1.56,1.05,2.07,2.65,2.07,4.17c0,1.92-0.87,3.9-3.37,4.72c-1.05,0.35-2.01,0.38-2.47,0.38l6.56,9.18H234.41z M227.31,267.1h1.92
			c2.86,0,4.57-1.46,4.57-3.96c0-1.95-0.99-2.97-1.77-3.38c-0.84-0.47-2.29-0.58-3.07-0.58h-1.65V267.1z"/>
		<path class="st0" d="M262.44,258.01v19.43h-1.32v-19.43H262.44z"/>
		<path class="st0" d="M308.64,267.77c0,5.59-4.54,9.99-10.41,9.99c-5.89,0-10.41-4.4-10.41-9.99c0-5.59,4.54-10.02,10.41-10.02
			C304.1,257.75,308.64,262.17,308.64,267.77z M307.25,267.77c0-4.98-3.85-8.86-9.02-8.86c-5.17,0-9.02,3.88-9.02,8.86
			c0,4.95,3.85,8.83,9.02,8.83C303.4,276.6,307.25,272.72,307.25,267.77z"/>
	</g>
	<g>
		<polygon class="st1" points="308.67,243.71 3.75,243.71 0.02,247.43 304.95,247.43 		"/>
	</g>
	<g>
		<g>
			<path class="st0" d="M317.45,269.04c0.92,0,1.39,0.24,1.71,0.5c0.51,0.43,0.66,1,0.66,1.51c0,0.65-0.26,1.22-0.78,1.58
				c-0.17,0.12-0.41,0.23-0.73,0.29l2.09,2.82h-1.63l-1.79-2.69h-0.16v2.69h-1.3v-6.69H317.45z M316.82,272.12h0.37
				c0.25,0,1.28-0.03,1.28-1.01c0-0.99-1.02-1-1.26-1h-0.39V272.12z"/>
		</g>
		<path class="st0" d="M317.63,277.69c-2.9,0-5.25-2.36-5.25-5.25s2.36-5.25,5.25-5.25c2.9,0,5.25,2.36,5.25,5.25
			S320.53,277.69,317.63,277.69z M317.63,268.02c-2.43,0-4.42,1.98-4.42,4.42s1.98,4.42,4.42,4.42c2.44,0,4.42-1.98,4.42-4.42
			S320.07,268.02,317.63,268.02z"/>
	</g>
</g>
</svg>
