<?xml version="1.0" encoding="utf-8"?>
<!-- Generator: Adobe Illustrator 24.2.3, SVG Export Plug-In . SVG Version: 6.00 Build 0)  -->
<svg version="1.1" id="Capa_1" xmlns="http://www.w3.org/2000/svg" xmlns:xlink="http://www.w3.org/1999/xlink" x="0px" y="0px"
	 viewBox="0 0 434.77 317.32" style="enable-background:new 0 0 434.77 317.32;" xml:space="preserve">
<style type="text/css">
	.st0{fill:#021D49;}
	.st1{fill:#9F9E9F;}
	.st2{fill:#C92B30;}
</style>
<g>
	<g>
		<g>
			<g>
				<path class="st0" d="M10.99,308.17h7.47c0,1.63-0.35,3.97-1.81,5.84c-1.57,2-3.97,2.99-6.69,2.99c-5.23,0-9.2-3.84-9.2-9.15
					c0-5.28,4.11-9.18,9.28-9.18c2.51,0,4.19,0.85,5.57,1.92c0.75,0.59,1.42,1.22,2.13,2.24l-0.93,0.75
					c-0.51-0.85-1.22-1.57-1.71-1.97c-1.12-0.93-2.88-1.87-5.09-1.87c-4.56,0-8.03,3.63-8.03,8.16c0,4.45,3.36,8.03,7.95,8.03
					c3.04,0,5.23-1.55,6.19-3.01c0.69-1.07,1.12-2.53,1.18-3.68h-6.3V308.17z"/>
				<path class="st0" d="M38.92,299.99h-7.36v6.45h7.2v1.07h-7.2v8.14h7.36v1.07h-8.53v-17.79h8.53V299.99z"/>
				<path class="st0" d="M50.85,316.71v-17.97l14.94,15.63v-15.44h1.17v18.25l-14.94-15.63v15.18H50.85z"/>
				<path class="st0" d="M88.38,299.99h-7.36v6.45h7.2v1.07h-7.2v8.14h7.36v1.07h-8.53v-17.79h8.53V299.99z"/>
				<path class="st0" d="M107.79,316.71l-5.76-8.4h-0.53v8.4h-1.17v-17.79h2.56c1.36,0,2.59,0.11,3.76,0.91
					c1.39,0.96,1.84,2.43,1.84,3.81c0,1.76-0.77,3.57-2.99,4.32c-0.93,0.32-1.79,0.34-2.19,0.34l5.81,8.4H107.79z M101.49,307.24
					h1.71c2.54,0,4.06-1.33,4.06-3.63c0-1.79-0.88-2.72-1.57-3.09c-0.75-0.43-2.03-0.53-2.72-0.53h-1.47V307.24z"/>
				<path class="st0" d="M129.27,310.87h-7.57l-2.37,5.84h-1.28l7.49-18.32l7.39,18.32h-1.28L129.27,310.87z M128.84,309.8
					l-3.33-8.43l-3.39,8.43H128.84z"/>
				<path class="st0" d="M143.79,316.71v-17.97l14.94,15.63v-15.44h1.17v18.25l-14.94-15.63v15.18H143.79z"/>
				<path class="st0" d="M172.78,316.71v-17.79h3.52c1.57,0,4.32,0.24,6.56,2.48c1.89,1.89,2.56,4.48,2.56,6.43s-0.67,4.51-2.56,6.4
					c-2.24,2.24-4.99,2.48-6.56,2.48H172.78z M173.96,315.64h2.32c4.69,0,7.92-3.2,7.92-7.82c0-4.56-3.25-7.84-7.92-7.84h-2.32
					V315.64z"/>
				<path class="st0" d="M214.85,307.85c0,5.12-4.03,9.15-9.23,9.15c-5.23,0-9.23-4.03-9.23-9.15s4.03-9.18,9.23-9.18
					C210.83,298.68,214.85,302.73,214.85,307.85z M213.63,307.85c0-4.56-3.41-8.11-8-8.11c-4.59,0-8,3.55-8,8.11
					c0,4.53,3.41,8.08,8,8.08C210.21,315.93,213.63,312.39,213.63,307.85z"/>
				<path class="st0" d="M242.26,308.25v8.45h-1.17v-17.79h3.44c2.91,0,5.2,1.6,5.2,4.64c0,2.96-2.11,4.69-5.18,4.69H242.26z
					 M242.26,307.19h2.35c2.32,0,3.89-1.36,3.89-3.6c0-2.21-1.49-3.6-4.08-3.6h-2.16V307.19z"/>
				<path class="st0" d="M268.55,316.71l-5.76-8.4h-0.53v8.4h-1.17v-17.79h2.56c1.36,0,2.59,0.11,3.76,0.91
					c1.39,0.96,1.84,2.43,1.84,3.81c0,1.76-0.77,3.57-2.99,4.32c-0.93,0.32-1.79,0.34-2.19,0.34l5.81,8.4H268.55z M262.25,307.24
					h1.71c2.54,0,4.06-1.33,4.06-3.63c0-1.79-0.88-2.72-1.57-3.09c-0.75-0.43-2.03-0.53-2.72-0.53h-1.47V307.24z"/>
				<path class="st0" d="M298.86,307.85c0,5.12-4.03,9.15-9.23,9.15c-5.23,0-9.23-4.03-9.23-9.15s4.03-9.18,9.23-9.18
					S298.86,302.73,298.86,307.85z M297.63,307.85c0-4.56-3.41-8.11-8-8.11s-8,3.55-8,8.11c0,4.53,3.41,8.08,8,8.08
					S297.63,312.39,297.63,307.85z"/>
				<path class="st0" d="M320.06,308.17h7.47c0,1.63-0.35,3.97-1.81,5.84c-1.57,2-3.97,2.99-6.69,2.99c-5.23,0-9.2-3.84-9.2-9.15
					c0-5.28,4.11-9.18,9.28-9.18c2.51,0,4.19,0.85,5.57,1.92c0.75,0.59,1.42,1.22,2.13,2.24l-0.93,0.75
					c-0.51-0.85-1.22-1.57-1.71-1.97c-1.12-0.93-2.88-1.87-5.09-1.87c-4.56,0-8.03,3.63-8.03,8.16c0,4.45,3.36,8.03,7.95,8.03
					c3.04,0,5.23-1.55,6.19-3.01c0.69-1.07,1.12-2.53,1.18-3.68h-6.3V308.17z"/>
				<path class="st0" d="M346.93,316.71l-5.76-8.4h-0.53v8.4h-1.17v-17.79h2.56c1.36,0,2.59,0.11,3.76,0.91
					c1.39,0.96,1.84,2.43,1.84,3.81c0,1.76-0.77,3.57-2.99,4.32c-0.93,0.32-1.79,0.34-2.19,0.34l5.81,8.4H346.93z M340.63,307.24
					h1.71c2.54,0,4.06-1.33,4.06-3.63c0-1.79-0.88-2.72-1.57-3.09c-0.75-0.43-2.03-0.53-2.72-0.53h-1.47V307.24z"/>
				<path class="st0" d="M368.57,299.99h-7.36v6.45h7.2v1.07h-7.2v8.14h7.36v1.07h-8.53v-17.79h8.53V299.99z"/>
				<path class="st0" d="M388.61,301.93c-1.09-2.13-3.01-2.19-3.49-2.19c-2.11,0-3.31,1.52-3.31,3.31c0,1.92,1.33,2.56,3.12,3.44
					c1.76,0.85,2.64,1.22,3.55,1.87c0.77,0.53,1.89,1.47,1.89,3.44c0,2.99-2.51,5.2-5.55,5.2c-2.29,0-3.47-1.1-4.13-1.87
					c-0.69-0.8-0.99-1.49-1.15-1.95l1.01-0.48c0.24,0.69,0.69,1.39,0.96,1.71c0.8,1.01,2.11,1.52,3.33,1.52
					c2.4,0,4.29-1.76,4.29-4.11c0-0.96-0.37-1.97-1.73-2.8c-0.51-0.29-1.55-0.83-3.01-1.55c-1.76-0.85-2.64-1.33-3.25-2.35
					c-0.4-0.67-0.56-1.34-0.56-2.03c0-2.05,1.39-4.43,4.56-4.43c1.79,0,3.41,0.85,4.32,2.54L388.61,301.93z"/>
				<path class="st0" d="M419.53,307.85c0,5.12-4.03,9.15-9.23,9.15c-5.23,0-9.23-4.03-9.23-9.15s4.03-9.18,9.23-9.18
					S419.53,302.73,419.53,307.85z M418.3,307.85c0-4.56-3.41-8.11-8-8.11c-4.59,0-8,3.55-8,8.11c0,4.53,3.41,8.08,8,8.08
					C414.89,315.93,418.3,312.39,418.3,307.85z"/>
			</g>
		</g>
	</g>
	<g>
		<g>
			<g>
				<path class="st1" d="M323.85,176.81c-3.32,0.5-5.7-0.8-5.95-0.96l-54.35-28.6c-0.07-0.05-2.11-1.14-5.06-1.24
					c-1.9-0.07-4.14,0.85-4.85,1.21l-9.91,5.33c-0.23,0.11-2.11,1.08-4.21,1.08c-2.81,0-4.97-1.56-5.19-1.74l-30.3-21.92
					c-0.11-0.09-2.38-1.85-6.04-1.92h-0.09c-3.39,0-6.25,2.17-6.27,2.2l-20.25,15.35c-0.11,0.09-1.76,1.42-4.26,1.69
					c-2.22,0.23-4.12-0.48-4.32-0.57l-9.18-3.8c-0.14-0.07-2.29-1.1-5.49-0.76c-2.59,0.27-4.94,2.06-4.97,2.08l-24.83,19.02
					c-0.18,0.14-1.78,1.3-3.75,1.62c-2.52,0.43-4.42-0.32-4.62-0.41L79.2,154.13c-0.11-0.05-1.74-0.64-3.82-0.55
					c-2.11,0.07-3.82,0.87-3.84,0.87L0.82,185.99v-4.39l69.05-30.78c0.05-0.02,2.38-1.12,5.33-1.24c2.95-0.14,5.15,0.71,5.38,0.8
					l30.78,10.34c0.11,0.05,1.19,0.43,2.56,0.23c0.87-0.14,1.81-0.73,1.99-0.89l24.81-18.99c0.14-0.09,3.25-2.47,6.98-2.88
					c4.44-0.48,7.46,1.03,7.6,1.1l8.99,3.73c0,0,0.89,0.32,1.95,0.32c0.16,0,0.3,0,0.46-0.02c1.3-0.16,2.2-0.87,2.22-0.87
					l20.27-15.35c0.11-0.11,3.94-3.11,8.88-3.04c5.1,0.09,8.28,2.65,8.42,2.75l30.23,21.88c0.02,0.02,1.3,0.96,2.81,0.96
					c0.94,0,1.99-0.43,2.31-0.62l9.95-5.33c0.39-0.21,3.59-1.76,6.82-1.67c4,0.11,6.75,1.67,6.86,1.74l54.44,28.65
					c0.14,0.09,1.12,0.64,2.65,0.53c0.3,0.85,0.57,1.72,0.85,2.56C323.57,175.92,323.71,176.35,323.85,176.81z"/>
			</g>
		</g>
		<path class="st0" d="M350.32,168.94l-26.48,7.87c-0.14-0.46-0.27-0.89-0.43-1.33c-0.27-0.85-0.55-1.72-0.85-2.56
			c-1.14-3.39-2.4-6.75-3.75-10.05C290.02,91.8,220.32,41.64,138.9,41.64C85.31,41.64,36.8,63.38,1.67,98.5L1.6,98.57
			c-0.07,0.07-0.18,0.11-0.3,0.11c-0.3,0-0.5-0.23-0.5-0.5c0-0.11,0.05-0.23,0.11-0.32c0.02-0.02,0.05-0.05,0.07-0.07
			c37.53-43.18,92.86-70.48,154.55-70.48C246.57,27.31,323.73,86.74,350.32,168.94z"/>
		<path class="st2" d="M419.57,191.19v2.06l-46.32-31.1l-19.43,5.77C326.46,84.02,247.55,23.43,154.53,23.43
			c-54.62,0-104.35,20.87-141.65,55.08c-0.11,0.11-0.27,0.18-0.43,0.18c-0.34,0-0.62-0.27-0.62-0.64c0-0.18,0.07-0.32,0.18-0.43
			C55.36,30.16,117.74,0.36,187.07,0.36c100.71,0,186.75,62.81,221.08,151.42C413.05,164.44,416.89,177.59,419.57,191.19z"/>
	</g>
	<g>
		<path class="st0" d="M54.39,268.27v7.79c-14.77,0-27.38-3.04-37.82-9.13c-10.44-6.09-15.66-13.42-15.66-22.01
			c0-8.59,5.22-15.93,15.66-22.01c10.44-6.09,23.05-9.13,37.82-9.13v7.79c-10.54,0-19.55,2.28-27.01,6.83
			c-7.46,4.55-11.19,10.06-11.19,16.52c0,6.46,3.73,11.97,11.19,16.52C34.85,265.99,43.85,268.27,54.39,268.27z"/>
		<path class="st0" d="M149.48,268.27v7.79c-14.77,0-27.38-3.04-37.82-9.13C101.22,260.84,96,253.51,96,244.92
			c0-8.59,5.22-15.93,15.66-22.01c10.44-6.09,23.05-9.13,37.82-9.13v7.79c-10.54,0-19.55,2.28-27.01,6.83
			c-7.46,4.55-11.19,10.06-11.19,16.52c0,6.46,3.73,11.97,11.19,16.52C129.93,265.99,138.94,268.27,149.48,268.27z"/>
		<path class="st0" d="M191.08,213.77h15.28v62.28h-15.28V213.77z"/>
		<path class="st0" d="M286.13,229.35l22.92-15.57h15.28v62.28h-15.28v-50.6l-22.92,15.57l-22.92-15.57v50.6h-15.28v-62.28h15.28
			L286.13,229.35z"/>
		<path class="st0" d="M411.8,225.45v27.25h7.64v7.79h-7.64v15.57h-15.28v-15.57h-15.28v15.57h-15.28v-15.57h-7.64v-7.79h7.64
			v-27.25c0-3.22,2.24-5.97,6.72-8.25c4.48-2.28,9.88-3.43,16.2-3.43c6.32,0,11.71,1.14,16.2,3.43
			C409.56,219.48,411.8,222.24,411.8,225.45z M381.24,225.45v27.25h15.28v-27.25c0-1.06-0.75-1.98-2.25-2.74
			c-1.5-0.76-3.3-1.15-5.39-1.15c-2.09,0-3.89,0.38-5.39,1.15C381.99,223.47,381.24,224.39,381.24,225.45z"/>
	</g>
	<g>
		<g>
			<path class="st0" d="M426.3,262.41c1.46,0,2.2,0.38,2.69,0.79c0.81,0.68,1.05,1.58,1.05,2.38c0,1.03-0.41,1.93-1.24,2.49
				c-0.27,0.19-0.65,0.36-1.16,0.46l3.29,4.45h-2.57l-2.82-4.24h-0.25v4.24h-2.06v-10.56H426.3z M425.31,267.27h0.59
				c0.4,0,2.03-0.05,2.03-1.6c0-1.57-1.62-1.58-2-1.58h-0.62V267.27z"/>
		</g>
		<path class="st0" d="M426.59,276.06c-4.57,0-8.29-3.72-8.29-8.29c0-4.57,3.72-8.29,8.29-8.29c4.57,0,8.29,3.72,8.29,8.29
			C434.88,272.34,431.16,276.06,426.59,276.06z M426.59,260.8c-3.84,0-6.97,3.13-6.97,6.97c0,3.84,3.13,6.97,6.97,6.97
			c3.84,0,6.97-3.13,6.97-6.97C433.56,263.93,430.44,260.8,426.59,260.8z"/>
	</g>
</g>
</svg>
